<?xml version="1.0" encoding="UTF-8"?>
<svg width="560px" height="268px" viewBox="0 0 560 268" version="1.1" xmlns="http://www.w3.org/2000/svg" xmlns:xlink="http://www.w3.org/1999/xlink">
    <!-- Generator: Sketch 63.1 (92452) - https://sketch.com -->
    <title>13</title>
    <desc>Created with Sketch.</desc>
    <defs>
        <rect id="path-1" x="0" y="0" width="560" height="268"></rect>
        <path d="M50.0577346,60.032 C72.1491246,60.032 80,62.09139 80,40 C80,17.90861 62.09139,-1.0658141e-14 40,-1.0658141e-14 C17.90861,-1.0658141e-14 0,17.90861 0,40 C0,52.0191316 11.7883892,30.5646166 20.18,37.8970036 C27.2123277,44.0416818 39.9854762,60.032 50.0577346,60.032 Z" id="path-3"></path>
    </defs>
    <g id="Page-1" stroke="none" stroke-width="1" fill="none" fill-rule="evenodd">
        <g id="13">
            <mask id="mask-2" fill="white">
                <use xlink:href="#path-1"></use>
            </mask>
            <use id="Mask" fill="#EFBB3D" xlink:href="#path-1"></use>
            <g mask="url(#mask-2)">
                <g transform="translate(161.000000, 33.000000)">
                    <path d="M153.53536,29.741008 C153.53536,40.596512 144.73536,49.3966 133.87968,49.3966 C130.0376,49.3966 124.24544,49.608592 121.21736,47.703392 C115.6892,44.22484 114.224,36.75496 114.224,29.741008 C114.224,18.885504 123.024,10.085416 133.87968,10.085416 C144.73536,10.085416 153.53536,18.885504 153.53536,29.741008 Z" id="Path" stroke="none" fill="#C48D84" fill-rule="nonzero"></path>
                    <path d="M115.3284,9.202072 L115.3284,23.189144 C116.97224,22.330264 118.8616,20.023608 125.63496,22.08492 C134.10056,24.661472 141.09392,19.140264 143.89144,22.08492 C146.68896,25.029576 146.17328,28.980248 145.1428,31.066112 C145.1428,31.066112 143.83248,37.876696 143.89144,41.445976 C143.93104,43.84908 144.62712,46.231064 144.62712,46.231064 C149.81032,43.34528 152.94576,37.102648 153.38752,33.053768 L154.198,13.987072 L150.14912,17.226176 L148.89688,9.202072 L144.3332,11.557744 L144.3332,5.815656 L138.00248,10.306296 L129.8308,0 L119.23032,12.735624 L115.3284,9.202072 Z" id="Path" stroke="none" fill="#000000" fill-rule="nonzero"></path>
                    <path d="M143.2288,51.08972 L142.86096,45.273976 L124.67752,44.4642 L123.64704,49.91184 C128.35856,59.629152 141.3148,54.623272 143.2288,51.08972 Z" id="Path" stroke="none" fill="#C48D84" fill-rule="nonzero"></path>
                    <path d="M146.65904,37.915152 C148.63552,38.564768 150.87776,37.145504 151.66624,34.745304 C152.4556,32.345016 151.492,29.872568 149.51552,29.22304 C147.53904,28.573424 145.2968,29.992688 144.50832,32.392888 C143.71896,34.793176 144.68256,37.265624 146.65904,37.915152 Z" id="Path" stroke="none" fill="#AE7C73" fill-rule="nonzero"></path>
                    <path d="M145.51064,33.569008 C146.17328,32.464784 148.01424,31.13968 149.70736,31.434128" id="Path" stroke="#000000" stroke-width="1.056" fill="none" stroke-linecap="round"></path>
                    <path d="M148.62672,31.601944 C148.82648,31.909504 149.24712,32.92168 149.31224,33.611424" id="Path" stroke="#000000" stroke-width="1.056" fill="none" stroke-linecap="round"></path>
                    <polygon id="Path" stroke="none" fill="#AE7C73" fill-rule="nonzero" points="125.11928 38.355416 129.3336 32.128272 130.54536 39.299568"></polygon>
                    <polyline id="Path" stroke="#000000" stroke-width="1.056" fill="none" stroke-linecap="round" points="128.8892 32.577424 125.0788 37.994616 130.18456 38.784856"></polyline>
                    <path d="M128.13768,42.550288 C128.80032,42.574752 130.46352,42.461936 131.81872,41.81408" id="Path" stroke="#000000" stroke-width="1.056" fill="none" stroke-linecap="round"></path>
                    <path d="M133.51184,27.020224 C134.1736,26.995672 135.83768,27.108576 137.192,27.756432" id="Path" stroke="#000000" stroke-width="1.056" fill="none" stroke-linecap="round"></path>
                    <path d="M123.05832,27.314672 C122.39568,27.29012 120.7316,27.403024 119.37728,28.05088" id="Path" stroke="#000000" stroke-width="1.056" fill="none" stroke-linecap="round"></path>
                    <path d="M129.24208,48.807704 C130.86128,49.102152 133.73272,49.322944 135.94064,47.4826" id="Path" stroke="#000000" stroke-width="1.056" fill="none" stroke-linecap="round"></path>
                    <path d="M122.39568,32.906456 C123.08648,32.906456 123.64704,32.34616 123.64704,31.655008 C123.64704,30.963856 123.08648,30.40356 122.39568,30.40356 C121.70488,30.40356 121.14432,30.963856 121.14432,31.655008 C121.14432,32.34616 121.70488,32.906456 122.39568,32.906456 Z" id="Path" stroke="none" fill="#000000" fill-rule="nonzero"></path>
                    <path d="M134.7632,32.906456 C135.454,32.906456 136.01456,32.34616 136.01456,31.655008 C136.01456,30.963856 135.454,30.40356 134.7632,30.40356 C134.0724,30.40356 133.51184,30.963856 133.51184,31.655008 C133.51184,32.34616 134.0724,32.906456 134.7632,32.906456 Z" id="Path" stroke="none" fill="#000000" fill-rule="nonzero"></path>
                    <path d="M136.44664,39.955256 C137.82384,39.955256 138.94056,38.8388 138.94056,37.461512 C138.94056,36.084224 137.82384,34.967768 136.44664,34.967768 C135.06944,34.967768 133.95272,36.084224 133.95272,37.461512 C133.95272,38.8388 135.06944,39.955256 136.44664,39.955256 Z" id="Path" stroke="none" fill="#AE7C73" fill-rule="nonzero"></path>
                    <path d="M120.39896,38.630152 C121.77616,38.630152 122.89288,37.513696 122.89288,36.136408 C122.89288,34.75912 121.77616,33.642664 120.39896,33.642664 C119.02176,33.642664 117.90504,34.75912 117.90504,36.136408 C117.90504,37.513696 119.02176,38.630152 120.39896,38.630152 Z" id="Path" stroke="none" fill="#AE7C73" fill-rule="nonzero"></path>
                    <path d="M143.176,50.424 C133.2144,56.76 126.06,52.506696 123.728,49.588 C122.716,50.82 122.144,51.172 120.956,51.744 C120.02672,52.191216 94.82,57.992 88.352,61.248 C81.884,64.504 75.944,75.416 73.172,78.144 C70.4,80.872 53.768,87.604 35.376,113.256 C16.984,138.908 25.168,149.072 26.18,168.256 C27.192,187.44 55.528,196.108 71.676,200.86 C84.5944,204.6616 107.59496,188.65704 117.48,180.18 C125.708,191.62 158.312,201.828 167.024,203.588 C175.736,205.348 188.408,192.632 203.104,184.932 C217.8,177.232 215.776,133.672 210.804,124.432 C205.832,115.192 199.672,96.052 193.996,82.192 C189.4552,71.104 147.312,55.22 145.86,53.9 C144.408,52.58 143.176,50.424 143.176,50.424 Z" id="Path" stroke="none" fill="#3D98E7" fill-rule="nonzero"></path>
                    <path d="M176.308,201.564 C174.46,197.12 167.6664,185.8912 176.22,170.368 C186.912,150.964 187.044,154.088 188.628,146.916 C190.212,139.744 205.876,138.6 210.144,142.076 C213.5584,144.8568 211.684,148.28 214.456,148.28 M131.736,136.092 C133.408,143.85096 141.1696,158.7696 158.84,156.376 C180.928,153.384 162.668,132.088 165.88,124.256 C168.4496,117.9904 160.52696,114.42904 156.244,113.432 M151.448,56.496 C148.984,62.26 155.4608,75.7856 158.84,78.496 C163.064,81.884 175.736,80.52 178.728,81.708 C181.72,82.896 184.976,82.456 185.768,80.476 C186.4016,78.892 186.956,76.252 187.66,75.328 M32.252,117.832 C38.852,121.924 51.7352,132.9768 52.228,137.94 C52.844,144.144 43.164,155.672 46.2,163.02 C49.236,170.368 50.777496,176.93104 46.2,183.48 C44.542432,185.8516 41.844,186.868 40.788,188.54 M120.956,183.832 C123.288,181.148 119.8384,161.9112 113.256,162.404 C105.028,163.02 75.108,178.86 73.304,186.912 C71.8608,193.3536 70.312,198.616 69.784,200.288 M85.976,71.676 C83.13272,60.45776 107.1488,55.6424 112.464,58.388 C119.108,61.82 119.856,71.676 119.284,71.676 C118.712,71.676 112.464,91.3 112.464,99.352 C112.464,107.404 93.236,101.552 90.596,95.744 C87.956,89.936 93.57744,81.312 89.77672,78.496 C86.73632,76.2432 86.72488,74.63192 85.976,71.676 Z" id="Shape" stroke="#0E76D0" stroke-width="1.056" fill="none"></path>
                    <g id="Shape" stroke="none" stroke-width="1" fill="none" fill-rule="evenodd" transform="translate(94.000000, 93.000000)">
                        <mask id="mask-4" fill="white">
                            <use xlink:href="#path-3"></use>
                        </mask>
                        <use id="Mask" fill="#000000" xlink:href="#path-3"></use>
                        <path d="M48.3494634,39.586582 C50.1909026,38.6172461 51.3627698,36.8939063 51.0907043,34.0289648 C50.7349008,30.1084863 47.6071768,28.7944824 43.4639719,28.4283496 L43.4639719,23 L40.2414201,23 L40.2414201,28.2775488 C39.4043721,28.2775488 38.5464062,28.299082 37.6885068,28.3206152 L37.6885068,23 L34.465955,23 L34.465955,28.4283496 C33.2811386,28.4651953 31.9012214,28.4472168 28,28.4283496 L28,31.9610254 C30.5442806,31.9146777 31.879241,31.746377 32.1851071,33.4257617 L32.1851071,48.2890723 C31.9908695,49.6215332 30.9550019,49.4296484 28.6486541,49.3876758 L28,53.3296875 C33.8757382,53.3296875 34.4660214,53.3512207 34.4660214,53.3512207 L34.4660214,58 L37.6885732,58 L37.6885732,53.4158203 C38.5673905,53.4373535 39.4253564,53.4373535 40.2414865,53.4373535 L40.2414865,58 L43.4640383,58 L43.4640383,53.3512207 C48.862782,53.0496191 52.4718168,51.6494824 52.9531277,46.415 C53.3297163,42.2145898 51.4045391,40.3404492 48.3494634,39.586582 L48.3494634,39.586582 Z M37.7513269,32.197959 C39.5718481,32.197959 45.2635752,31.6164258 45.2635752,35.5153027 C45.2635752,39.2419141 39.5719145,38.8110449 37.7513269,38.8110449 L37.7513269,32.197959 L37.7513269,32.197959 Z M37.7513269,49.409209 L37.7513269,42.1283887 C39.9275852,42.1283887 46.5917622,41.5037207 46.5917622,45.7688672 C46.5917622,49.8831445 39.9275852,49.409209 37.7513269,49.409209 Z" fill="#FFFFFF" fill-rule="nonzero" mask="url(#mask-4)" transform="translate(40.500000, 40.500000) rotate(11.000000) translate(-40.500000, -40.500000) "></path>
                    </g>
                    <path d="M125.268,51.612 C126.99896,52.785304 131.8152,54.8064 137.236,53.504" id="Path" stroke="#0E76D0" stroke-width="1.056" fill="none" stroke-linecap="round"></path>
                    <path d="M127.116,54.648 C128.304,55.073304 131.384,55.88 134.2,55.704" id="Path" stroke="#0E76D0" stroke-width="1.056" fill="none" stroke-linecap="round"></path>
                    <path d="M157.828,98.824 C157.72504,102.85704 157.9072,112.0856 159.456,116.732" id="Path" stroke="#000000" stroke-width="1.056" fill="none" stroke-linecap="round"></path>
                    <path d="M94.82,92.664 C89.672,106.348 79.2,126.49472 79.2,130.328 C79.2,143.572 95.26,140.69704 98.472,139.964" id="Path" stroke="#000000" stroke-width="1.056" fill="none" stroke-linecap="round"></path>
                    <path d="M97.9,153.032 C103.20904,159.07496 114.0656,171.644 115.016,173.58" id="Path" stroke="#000000" stroke-width="1.056" fill="none" stroke-linecap="round"></path>
                    <path d="M79.86,129.184 L97.064,150.172 C98.7888,138.5208 109.48696,132.73304 114.62,131.296 C114.62,131.296 112.52384,118.6548 107.624,114.092 C104.9752,111.62536 101.288,110.66 101.288,110.66 C102.476,109.912 104.852,107.9408 104.852,106.04 C104.852,104.1392 102.476,102.256 101.288,101.552 C94.5296,96.3776 91.31496,102.388 90.552,106.04 C85.3424,105.6176 84.68504,110.792 85.008,113.432 C79.6224,113.0096 80.476,118.624 81.576,121.484 C78.3024,121.8008 79.068,126.74904 79.86,129.184 Z" id="Path" stroke="none" fill="#C48D84" fill-rule="nonzero"></path>
                    <path d="M100.3772,105.6 C100.59456,108.8824 101.43056,111.804 103.02688,114.67016" id="Path" stroke="#000000" stroke-width="0.704" fill="none" stroke-linecap="round"></path>
                    <path d="M90.42,106.656 C90.376,108.284 90.6928,112.4552 92.312,116.116" id="Path" stroke="#000000" stroke-width="0.704" fill="none" stroke-linecap="round"></path>
                    <path d="M81.928,122.188 C81.928,123.64 82.324,125.664 83.424,126.676 M85.052,114.048 C85.12504,114.42904 85.052,117.172 86.24,119.988 L85.052,114.048 Z" id="Shape" stroke="#000000" stroke-width="0.704" fill="none" stroke-linecap="round"></path>
                    <path d="M229.00768,21.334896 C198.94776,-14.578696 153.89088,2.081728 125.752,21.092192 M16.09608,107.36 C7.099928,93.28264 1.259896,80.79192 0.383768,71.89072 C-3.488232,32.554896 22.515768,10.422896 52.347768,7.298896 C76.213368,4.799696 101.62768,22.8602 111.35168,32.202896 C112.25016,31.404912 113.19352,30.592056 114.18,29.768816 M104.808,204.16704 C105.8552,204.9872 107.932,206.57736 107.932,206.57736 C110.6424,208.63568 122.21264,213.66136 124.828,215.468 C156.85384,181.84408 216.04968,112.024 232.61832,62.7 M236.28616,44.132 C236.16208,48.084344 235.52408,52.232664 234.4364,56.54" id="Shape" stroke="#000000" stroke-width="1.056" fill="none" stroke-linecap="round"></path>
                    <path d="M49.456,38.092384 C51.098872,29.74268 58.636336,14.301408 60.90656,19.099608 C63.744296,25.097336 62.64896,42.267192 58.815592,43.266872 C54.982136,44.266464 60.557992,19.217176 65.33736,20.981224 C69.160872,22.39248 66.930512,29.722968 65.33736,33.211816 C65.901616,28.507776 66.626472,21.92212 74.448,17.512" id="Path" stroke="#000000" stroke-width="1.056" fill="none" stroke-linecap="round"></path>
                    <path d="M238.524,52.8396 L174.02,52.8396 C173.41808,51.6516 173.2896,48.9148 177.584,47.4716 C181.8784,46.0284 185.47408,48.072992 186.736,49.2756 C187.14608,45.4476 189.7984,37.6508 197.12,37.0876 C204.4416,36.5244 206.74104,42.1036 206.976,44.9636 C213.6992,35.6356 219.57408,42.748992 221.672,47.4716 C228.6768,45.0428 235.82504,50.038296 238.524,52.8396 Z" id="Path" stroke="none" fill="#D1EAFF" fill-rule="nonzero"></path>
                    <path d="M229.67208,102.10288 C229.67208,103.91392 230.08304,107.448 231.90552,107.448 C233.728,107.448 236.27208,103.91392 236.27208,102.10288 C236.27208,100.29184 234.79456,98.824 232.97208,98.824 C231.1496,98.824 229.67208,100.29184 229.67208,102.10288 Z" id="Path" stroke="none" fill="#000000" fill-rule="nonzero"></path>
                    <path d="M221.85944,104.22632 C221.85944,105.60616 222.17008,108.29808 223.54992,108.29808 C224.92976,108.29808 226.85608,105.60616 226.85608,104.22632 C226.85608,102.84648 225.7376,101.728 224.35776,101.728 C222.97792,101.728 221.85944,102.84648 221.85944,104.22632 Z" id="Path" stroke="none" fill="#000000" fill-rule="nonzero"></path>
                    <path d="M228.81144,112.93832 C228.81144,114.31816 229.12208,117.01008 230.50192,117.01008 C231.88176,117.01008 233.80808,114.31816 233.80808,112.93832 C233.80808,111.55848 232.6896,110.44 231.30976,110.44 C229.92992,110.44 228.81144,111.55848 228.81144,112.93832 Z" id="Path" stroke="none" fill="#000000" fill-rule="nonzero"></path>
                    <path d="M221.848,112.93832 C221.848,114.31816 222.15864,117.01008 223.53848,117.01008 C224.91832,117.01008 226.84464,114.31816 226.84464,112.93832 C226.84464,111.55848 225.72616,110.44 224.34632,110.44 C222.96648,110.44 221.848,111.55848 221.848,112.93832 Z" id="Path" stroke="none" fill="#000000" fill-rule="nonzero"></path>
                    <path d="M214.896,112.93832 C214.896,114.31816 215.20664,117.01008 216.58648,117.01008 C217.96632,117.01008 219.89264,114.31816 219.89264,112.93832 C219.89264,111.55848 218.77416,110.44 217.39432,110.44 C216.01448,110.44 214.896,111.55848 214.896,112.93832 Z" id="Path" stroke="none" fill="#000000" fill-rule="nonzero"></path>
                    <path d="M21.659176,72.63432 C21.659176,74.01416 21.97008,76.70608 23.34992,76.70608 C24.72976,76.70608 26.655904,74.01416 26.655904,72.63432 C26.655904,71.25448 25.537336,70.136 24.157584,70.136 C22.777744,70.136 21.659176,71.25448 21.659176,72.63432 Z" id="Path" stroke="none" fill="#000000" fill-rule="nonzero"></path>
                    <path d="M14.696,72.63432 C14.696,74.01416 15.006904,76.70608 16.386744,76.70608 C17.766584,76.70608 19.692728,74.01416 19.692728,72.63432 C19.692728,71.25448 18.57416,70.136 17.194408,70.136 C15.814568,70.136 14.696,71.25448 14.696,72.63432 Z" id="Path" stroke="none" fill="#000000" fill-rule="nonzero"></path>
                    <path d="M7.744,72.63432 C7.744,74.01416 8.054904,76.70608 9.434744,76.70608 C10.814584,76.70608 12.740728,74.01416 12.740728,72.63432 C12.740728,71.25448 11.62216,70.136 10.242408,70.136 C8.862568,70.136 7.744,71.25448 7.744,72.63432 Z" id="Path" stroke="none" fill="#000000" fill-rule="nonzero"></path>
                    <path d="M228.72344,121.65032 C228.72344,123.03016 229.03408,125.72208 230.41392,125.72208 C231.79376,125.72208 233.72008,123.03016 233.72008,121.65032 C233.72008,120.27048 232.6016,119.152 231.22176,119.152 C229.84192,119.152 228.72344,120.27048 228.72344,121.65032 Z" id="Path" stroke="none" fill="#000000" fill-rule="nonzero"></path>
                    <path d="M5.984,119.768 L52.928128,119.768 C53.365752,118.90032 53.459648,116.90272 50.334328,115.84936 C47.209008,114.796 44.591712,116.28848 43.673784,117.16584 C43.374936,114.37184 41.445008,108.68 36.116608,108.26904 C30.78812,107.85808 29.114448,111.93072 28.943728,114.01808 C24.050752,107.20864 19.774744,112.40152 18.248384,115.84936 C13.150544,114.07616 7.947984,117.72288 5.984,119.768 Z" id="Path" stroke="none" fill="#D1EAFF" fill-rule="nonzero"></path>
                    <path d="M159.192,58.876664 C160.02272,58.080528 161.10072,57.504392 162.48144,57.397824 C166.50568,57.087184 167.76936,60.16516 167.89872,61.74256 C171.59472,56.596848 174.82432,60.52112 175.97712,63.1268 C179.82712,61.78656 183.75632,64.54272 185.24,66.088 L173.8,66.088" id="Path" stroke="#000000" stroke-width="1.056" fill="none" stroke-linecap="round"></path>
                </g>
            </g>
        </g>
    </g>
</svg>