<?xml version="1.0" encoding="UTF-8"?>
<svg width="550px" height="550px" viewBox="0 0 550 550" version="1.1" xmlns="http://www.w3.org/2000/svg" xmlns:xlink="http://www.w3.org/1999/xlink">
    <!-- Generator: Sketch 62 (91390) - https://sketch.com -->
    <title>Account Creation</title>
    <desc>Created with Sketch.</desc>
    <defs>
        <polygon id="path-1" points="0.269161927 0.0910596026 29.4661643 0.0910596026 29.4661643 28.7938516 0.269161927 28.7938516"></polygon>
    </defs>
    <g id="Account-Creation" stroke="none" stroke-width="1" fill="none" fill-rule="evenodd">
        <g id="Group-Copy" transform="translate(47.666667, 66.000000)">
            <path d="M7.77601997,106.287494 C-48.1104167,231.454899 214.805042,183.781063 237.168323,218.209584 C271.118612,270.474438 173.370399,323.251986 209.191097,379.303949 C259.584655,458.15787 342.17644,383.331685 371.667676,354.201015 C401.452736,324.779135 462.73139,248.283613 423.73712,181.534773 C364.175161,79.5849501 295.710059,150.939846 234.209677,110.357612 C205.208148,91.2197178 235.908688,46.7095535 191.120913,15.6661886 C113.005865,-38.4799149 27.7465384,61.5599468 7.77601997,106.287494" id="Fill-1" fill="#FFFFFF"></path>
            <g id="Create-Account" transform="translate(18.333671, 45.033133)">
                <path d="M220,370.447102 C98.4972845,370.447102 7.81597009e-14,364.748569 7.81597009e-14,357.717869 C7.81597009e-14,350.688292 98.4972845,344.988635 220,344.988635 C341.502715,344.988635 440,350.688292 440,357.717869 C440,364.748569 341.502715,370.447102 220,370.447102 Z" id="Fill-1" fill-opacity="0.05" fill="#000000"></path>
                <g id="Group-31" transform="translate(64.332996, 22.000000)">
                    <path d="M165.342255,271.340528 L21.9245054,271.340528 C17.1860334,271.340528 13.1468093,267.499162 12.9028595,262.76069 L0.0668281416,13.6946897 C-0.177121658,8.95621781 3.46638664,5.1159758 8.20485856,5.1159758 L151.622609,5.1159758 C156.36108,5.1159758 160.400305,8.95621781 160.644254,13.6946897 L173.480286,262.76069 C173.724236,267.499162 170.080727,271.340528 165.342255,271.340528" id="Fill-4" fill-opacity="0.05" fill="#000000"></path>
                    <path d="M165.342255,271.340528 L21.9245054,271.340528 C17.1860334,271.340528 13.1468093,267.499162 12.9028595,262.76069 L0.0668281416,13.6946897 C-0.177121658,8.95621781 3.46638664,5.1159758 8.20485856,5.1159758 L151.622609,5.1159758 C156.36108,5.1159758 160.400305,8.95621781 160.644254,13.6946897 L173.480286,262.76069 C173.724236,267.499162 170.080727,271.340528 165.342255,271.340528" id="Fill-6" fill-opacity="0.05" fill="#D3CBCB"></path>
                    <path d="M171.508789,255.543935 L34.3437985,255.543935 C29.8121781,255.543935 25.9494522,251.870074 25.7156201,247.338454 L13.4394367,9.13215395 C13.2056046,4.60053348 16.6906017,0.926671981 21.2222222,0.926671981 L158.387213,0.926671981 C162.918833,0.926671981 166.781559,4.60053348 167.015391,9.13215395 L179.291575,247.338454 C179.525407,251.870074 176.04041,255.543935 171.508789,255.543935" id="Fill-11" fill="#B5C0DD"></path>
                    <path d="M21.2224471,6.68782193 C20.4602445,6.68782193 19.9869594,7.01721037 19.7250225,7.29376175 C19.4608372,7.57256152 19.1539326,8.06608209 19.1932794,8.83502984 L31.4694628,247.042454 C31.5447837,248.501656 32.8881939,249.782111 34.3440234,249.782111 L171.509014,249.782111 C172.270092,249.782111 172.743377,249.452723 173.005314,249.177295 C173.270624,248.898496 173.577528,248.404975 173.538182,247.634903 L161.261998,9.42860355 C161.186677,7.96827733 159.843267,6.68782193 158.386313,6.68782193 L21.2224471,6.68782193 Z M171.509014,250.063159 L34.3440234,250.063159 C32.7465457,250.063159 31.2716049,248.657918 31.1884147,247.055944 L18.9122312,8.84964435 C18.8683877,7.98064345 19.2191358,7.41854713 19.5204194,7.10040062 C19.821703,6.7833783 20.3601913,6.40677377 21.2224471,6.40677377 L158.386313,6.40677377 C159.984915,6.40677377 161.459856,7.81201455 161.543046,9.41398904 L173.81923,247.620289 C173.863073,248.490414 173.511201,249.05251 173.209917,249.370657 C172.908634,249.686555 172.370146,250.063159 171.509014,250.063159 L171.509014,250.063159 Z" id="Fill-12" fill="#FFFFFF"></path>
                    <path d="M134.552418,63.4974348 C135.733944,86.4298402 118.102107,105.020614 95.169702,105.020614 C72.2361724,105.020614 52.6875869,86.4298402 51.5060604,63.4974348 C50.324534,40.5650294 67.9563711,21.974256 90.8899007,21.974256 C113.822306,21.974256 133.370892,40.5650294 134.552418,63.4974348" id="Fill-13" fill="#FFFFFF"></path>
                    <path d="M126.62405,63.4977721 C126.923085,69.2997302 125.732565,74.7464435 123.388623,79.4995299 C118.262305,89.9713842 107.531886,97.0920203 94.761058,97.0920203 C81.9891056,97.0920203 70.5257134,89.9713842 64.3190459,79.4995299 C61.4860805,74.7464435 59.7334641,69.2997302 59.4344289,63.4977721 C58.4788652,44.9407244 72.741497,29.9023996 91.2985447,29.9023996 C109.854468,29.9023996 125.667362,44.9407244 126.62405,63.4977721" id="Fill-14" fill="#FFFFFF"></path>
                    <path d="M123.38896,79.4998671 C118.261518,89.9705973 107.532223,97.0923575 94.760271,97.0923575 C81.9894428,97.0923575 70.5260506,89.9705973 64.3193831,79.4998671 C72.4855184,73.849675 82.4649763,70.5512938 93.3932528,70.5512938 C104.320405,70.5512938 114.639369,73.849675 123.38896,79.4998671" id="Fill-15" fill="#41474F"></path>
                    <path d="M107.402042,52.0043639 C107.828111,60.2694281 101.47305,66.9684919 93.20911,66.9684919 C84.9440459,66.9684919 77.8987307,60.2694281 77.4726617,52.0043639 C77.0465927,43.7392997 83.4016536,37.0391117 91.6667178,37.0391117 C99.9306578,37.0391117 106.975973,43.7392997 107.402042,52.0043639" id="Fill-16" fill="#41474F"></path>
                    <path d="M151.850932,162.884719 L44.4523138,162.884719 C42.5344412,162.884719 40.8998651,161.329961 40.8009361,159.412088 L39.9881449,143.630672 C39.8892159,141.712799 41.3641567,140.158041 43.2809051,140.158041 L150.679523,140.158041 C152.597396,140.158041 154.231972,141.712799 154.330901,143.630672 L155.144816,159.412088 C155.243745,161.329961 153.768805,162.884719 151.850932,162.884719" id="Fill-17" fill="#FFFFFF"></path>
                    <path d="M118.961215,131.491303 L74.1070538,131.491303 C72.1891812,131.491303 70.5534809,129.936544 70.4556762,128.018672 L70.2825505,124.668578 C70.1836215,122.750705 71.6585623,121.195947 73.5764349,121.195947 L118.430596,121.195947 C120.348469,121.195947 121.983045,122.750705 122.081974,124.668578 L122.2551,128.018672 C122.352905,129.936544 120.879088,131.491303 118.961215,131.491303" id="Fill-18" fill-opacity="0.5" fill="#FFFFFF"></path>
                    <path d="M135.641311,238.527032 L68.4584355,238.527032 C65.192656,238.527032 62.409155,235.879558 62.2405261,232.613779 L61.8414377,224.864719 C61.6728088,221.598939 64.1842552,218.951466 67.4500347,218.951466 L134.63291,218.951466 C137.89869,218.951466 140.682191,221.598939 140.85082,224.864719 L141.249908,232.613779 C141.418537,235.879558 138.907091,238.527032 135.641311,238.527032" id="Fill-19" fill-opacity="0.5" fill="#FFFFFF"></path>
                    <path d="M153.811187,200.921777 L46.4125685,200.921777 C44.4946959,200.921777 42.8601198,199.367018 42.7611908,197.449146 L41.9483996,181.66773 C41.8494706,179.749857 43.3244113,178.195099 45.2411598,178.195099 L152.639778,178.195099 C154.557651,178.195099 156.192227,179.749857 156.291156,181.66773 L157.105071,197.449146 C157.204,199.367018 155.729059,200.921777 153.811187,200.921777" id="Fill-20" fill="#FFFFFF"></path>
                    <path d="M58.1099052,151.521493 C58.2189518,153.643968 56.5866242,155.365107 54.4641485,155.365107 C52.3405486,155.365107 50.5317227,153.643968 50.4215518,151.521493 C50.3125051,149.397893 51.9448328,147.677878 54.0673085,147.677878 C56.1909083,147.677878 58.0008585,149.397893 58.1099052,151.521493" id="Fill-21" fill="#1A2E35"></path>
                    <path d="M69.9221343,151.521493 C70.031181,153.643968 68.3988533,155.365107 66.2763776,155.365107 C64.1527778,155.365107 62.3428277,153.643968 62.233781,151.521493 C62.1247343,149.397893 63.757062,147.677878 65.8795377,147.677878 C68.0031375,147.677878 69.8130876,149.397893 69.9221343,151.521493" id="Fill-22" fill="#1A2E35"></path>
                    <path d="M81.7342511,151.521493 C81.8432978,153.643968 80.2109701,155.365107 78.0884944,155.365107 C75.9648945,155.365107 74.1549444,153.643968 74.0458977,151.521493 C73.936851,149.397893 75.5691787,147.677878 77.6916544,147.677878 C79.8152543,147.677878 81.6252044,149.397893 81.7342511,151.521493" id="Fill-23" fill="#1A2E35"></path>
                    <path d="M93.5463678,151.521493 C93.6554145,153.643968 92.0230868,155.365107 89.9006112,155.365107 C87.7770113,155.365107 85.9681853,153.643968 85.8580145,151.521493 C85.7489678,149.397893 87.3812955,147.677878 89.5037712,147.677878 C91.627371,147.677878 93.4373212,149.397893 93.5463678,151.521493" id="Fill-24" fill="#1A2E35"></path>
                    <path d="M60.0702723,189.558775 C60.1793189,191.681251 58.5469913,193.402389 56.4245156,193.402389 C54.3009157,193.402389 52.4909656,191.681251 52.3819189,189.558775 C52.2728722,187.436299 53.9051999,185.71516 56.0276756,185.71516 C58.1512754,185.71516 59.9612256,187.436299 60.0702723,189.558775" id="Fill-25" fill="#1A2E35"></path>
                    <path d="M71.882389,189.558775 C71.9914357,191.681251 70.359108,193.402389 68.2366323,193.402389 C66.1130325,193.402389 64.3030823,191.681251 64.1940356,189.558775 C64.084989,187.436299 65.7173167,185.71516 67.8397923,185.71516 C69.9633922,185.71516 71.7733423,187.436299 71.882389,189.558775" id="Fill-26" fill="#1A2E35"></path>
                    <path d="M83.6945058,189.558775 C83.8035524,191.681251 82.1712248,193.402389 80.0487491,193.402389 C77.9251492,193.402389 76.1151991,191.681251 76.0061524,189.558775 C75.8971057,187.436299 77.5294334,185.71516 79.6519091,185.71516 C81.775509,185.71516 83.5854591,187.436299 83.6945058,189.558775" id="Fill-27" fill="#1A2E35"></path>
                    <path d="M95.5066225,189.558775 C95.6156692,191.681251 93.9833415,193.402389 91.8608658,193.402389 C89.737266,193.402389 87.9273158,191.681251 87.8182692,189.558775 C87.7092225,187.436299 89.3415502,185.71516 91.4640258,185.71516 C93.5876257,185.71516 95.3975758,187.436299 95.5066225,189.558775" id="Fill-28" fill="#1A2E35"></path>
                    <path d="M107.318739,189.558775 C107.427786,191.681251 105.795458,193.402389 103.672983,193.402389 C101.549383,193.402389 99.7394326,191.681251 99.6303859,189.558775 C99.5213392,187.436299 101.153667,185.71516 103.276143,185.71516 C105.399742,185.71516 107.209693,187.436299 107.318739,189.558775" id="Fill-29" fill="#1A2E35"></path>
                    <path d="M119.130968,189.558775 C119.240015,191.681251 117.607687,193.402389 115.485212,193.402389 C113.361612,193.402389 111.551662,191.681251 111.442615,189.558775 C111.333568,187.436299 112.965896,185.71516 115.088372,185.71516 C117.211972,185.71516 119.021922,187.436299 119.130968,189.558775" id="Fill-30" fill="#1A2E35"></path>
                </g>
                <g id="Group-123" transform="translate(201.230143, 0.000000)">
                    <path d="M110.080829,81.0126932 C110.363002,81.4297686 110.505774,81.6591039 110.691266,81.9592633 L111.19378,82.8001594 C111.519796,83.3566348 111.805341,83.9119859 112.093134,84.4673371 C112.655231,85.5791636 113.186974,86.6921143 113.662507,87.8163069 C114.62594,90.0646922 115.416248,92.3602935 116.099757,94.6716336 C117.484762,99.2920652 118.331279,104.027165 118.765217,108.764512 L118.852905,109.6515 C118.868643,109.778534 118.879885,109.979765 118.888879,110.18774 L118.913611,110.792556 C118.928225,111.591857 118.888879,112.382164 118.777584,113.129752 C118.566235,114.637295 118.160402,116.029045 117.662385,117.316246 C116.651735,119.879405 115.263357,122.056966 113.773802,124.038918 C110.724992,127.985958 107.263603,131.144939 103.308693,133.945303 L100.211542,130.318658 C102.990547,127.104591 105.682988,123.543149 107.677306,119.987327 C108.6947,118.214476 109.472641,116.386538 109.956044,114.681138 C110.183131,113.830124 110.305668,113.010588 110.324779,112.270869 C110.350636,111.897637 110.323655,111.553634 110.287681,111.22537 L110.252831,110.985917 C110.244962,110.912844 110.235968,110.830778 110.206739,110.679012 L110.066215,109.887581 C109.329869,105.668486 108.327089,101.522463 107.010659,97.5180893 C106.364249,95.5102813 105.564948,93.5699248 104.753281,91.6632941 C104.353068,90.7066062 103.909012,89.7791472 103.455962,88.8741722 L102.757839,87.5532459 L102.411587,86.9270706 L102.126042,86.4357984 L110.080829,81.0126932 Z" id="Fill-32" fill="#EBCAB0"></path>
                    <path d="M99.5867161,134.017476 L103.657418,142.611929 L106.886099,135.344023 C106.886099,135.344023 104.025029,129.048545 100.153309,129.625255 L99.5867161,134.017476 Z" id="Fill-34" fill="#EBCAB0"></path>
                    <polygon id="Fill-36" fill="#EBCAB0" points="106.574922 143.038447 109.806976 137.737879 106.885199 135.344473 103.657642 142.612378"></polygon>
                    <path d="M90.1304574,340.711645 C88.4913846,341.039909 87.2581453,340.982575 86.7814876,340.547512 C86.5780087,340.363145 86.503812,340.102332 86.5532765,339.754957 C86.5791329,339.566092 86.6656958,339.504262 86.7387683,339.47166 C87.3166033,339.206351 88.9646697,340.006776 90.1304574,340.711645 M88.2755396,341.367049 C89.1456647,341.367049 90.0956075,341.188302 90.7611295,341.029791 C90.8488165,341.009556 90.9140197,340.939856 90.9297584,340.852169 C90.9454971,340.764482 90.9072745,340.67567 90.8330778,340.62733 C90.5104346,340.414858 87.6504885,338.568933 86.5555249,339.064702 C86.381275,339.143396 86.1643059,339.315397 86.1114688,339.692002 C86.0406447,340.191143 86.1654301,340.590232 86.4813282,340.876901 C86.8826649,341.243388 87.5504354,341.367049 88.2755396,341.367049" id="Fill-38" fill="#007CFF"></path>
                    <path d="M89.1077794,337.219453 C89.2910228,337.219453 89.4529065,337.283532 89.6013,337.415062 C90.2117366,337.956923 90.4219606,339.477956 90.4736735,340.380682 C89.5788161,339.665696 88.5108331,338.139042 88.6389911,337.492631 C88.6603507,337.385833 88.7210571,337.259924 89.0066021,337.226198 C89.041452,337.221701 89.0751778,337.219453 89.1077794,337.219453 M90.7097539,341.036087 C90.7491006,341.036087 90.7884474,341.025969 90.8221732,341.005733 C90.8907489,340.966387 90.9334682,340.89219 90.9334682,340.813496 C90.9334682,340.697705 90.9211021,337.987276 89.8969626,337.081177 C89.624908,336.839476 89.3067615,336.739422 88.9526408,336.783266 C88.3939171,336.850717 88.2432753,337.20259 88.2016802,337.404944 C87.9903319,338.467306 89.7024773,340.498723 90.6007072,341.006858 C90.634433,341.027093 90.6726555,341.036087 90.7097539,341.036087" id="Fill-40" fill="#007CFF"></path>
                    <path d="M72.4236367,337.493081 C72.9250266,336.950096 75.1486796,336.802827 76.8192298,336.830932 C75.0677377,338.016955 73.622026,338.583548 72.8890524,338.355337 C72.6316123,338.275519 72.4584866,338.099021 72.3573093,337.813476 C72.3179626,337.703305 72.3280803,337.616742 72.3899109,337.532428 C72.4000286,337.518938 72.4112705,337.505447 72.4236367,337.493081 M77.6578775,336.780343 C77.7107146,336.723009 77.73095,336.642067 77.7084662,336.565622 C77.6814856,336.474563 77.5994195,336.410484 77.5049873,336.405987 C77.0384474,336.383503 72.9980991,336.215998 72.0875031,337.199667 C72.0672676,337.222151 72.0492805,337.24351 72.0324176,337.265994 C71.8806516,337.470597 71.84805,337.712299 71.9368613,337.962994 C72.0863789,338.383442 72.3618061,338.658869 72.7563977,338.781406 C74.0649579,339.188364 76.3684286,337.720168 77.6252759,336.809572 C77.6376421,336.800578 77.6477598,336.790461 77.6578775,336.780343" id="Fill-42" fill="#007CFF"></path>
                    <path d="M73.6210142,334.526674 C73.6671061,334.47721 73.7345577,334.422124 73.8346108,334.363666 C74.1280251,334.19054 74.4360539,334.152318 74.7755601,334.243377 C75.7524834,334.506439 76.672073,335.756541 77.0801549,336.381592 C75.7502351,336.229826 73.713198,335.408041 73.5411965,334.78299 C73.5299546,334.744767 73.5052224,334.652584 73.6210142,334.526674 M77.6579899,336.78068 C77.6692319,336.768314 77.6793496,336.754824 77.687219,336.740209 C77.7265657,336.672758 77.7276899,336.588443 77.6883431,336.519868 C77.6355061,336.425435 76.3797829,334.214148 74.8913519,333.812812 C74.4371781,333.690275 74.0043639,333.74536 73.6086481,333.979192 C73.0735324,334.292842 73.0431792,334.654832 73.1106308,334.90103 C73.3984241,335.943157 76.2651153,336.860498 77.4961062,336.852629 C77.5579368,336.851504 77.6163948,336.824524 77.6579899,336.78068" id="Fill-44" fill="#007CFF"></path>
                    <path d="M90.0346762,48.0801447 C88.9397126,53.6673821 86.478855,65.8570027 90.3876727,69.5859496 C90.3876727,69.5859496 88.8598949,75.2541289 78.477976,75.2541289 C67.0606757,75.2541289 73.0222692,69.5859496 73.0222692,69.5859496 C79.2525448,68.0986428 79.0917852,63.4748385 78.0069393,59.1343308 L90.0346762,48.0801447 Z" id="Fill-46" fill="#EBCAB0"></path>
                    <path d="M71.008503,34.9024712 C71.0759545,34.9024712 71.1434061,34.8867325 71.2074851,34.8552551 C71.4278268,34.7450842 71.5177622,34.4764022 71.4064672,34.2560604 C70.3013858,32.0503945 68.2587278,31.7940786 68.172165,31.7839608 C67.9282152,31.7547318 67.7056251,31.9323543 67.6786444,32.1774283 C67.6505396,32.4213781 67.8259137,32.6417198 68.0687393,32.6698246 C68.1361908,32.6788182 69.7280476,32.8957873 70.6094146,34.656273 C70.6881081,34.8114116 70.8454951,34.9024712 71.008503,34.9024712" id="Fill-48" fill="#1A2E35"></path>
                    <path d="M67.6043353,39.7856267 C67.6043353,39.7856267 65.9236673,42.8726596 64.3216928,44.2644101 C65.2019357,45.3155302 66.9466826,45.1008094 66.9466826,45.1008094 L67.6043353,39.7856267 Z" id="Fill-50" fill="#CFB29B"></path>
                    <path d="M68.4390483,38.5739719 C68.3457403,39.3271809 67.871331,39.8892772 67.3778105,39.8285708 C66.8854141,39.7678644 66.5616466,39.1068392 66.6549546,38.3525059 C66.7482626,37.5992969 67.2226719,37.0383247 67.7161925,37.0990312 C68.2085888,37.1597376 68.5323563,37.8196386 68.4390483,38.5739719" id="Fill-52" fill="#1A2E35"></path>
                    <path d="M67.9282152,37.1672696 L66.182344,36.4219299 C66.182344,36.4219299 66.9366773,37.9508319 67.9282152,37.1672696" id="Fill-54" fill="#1A2E35"></path>
                    <polygon id="Fill-56" fill="#EBCAB0" points="87.5798892 334.644489 78.40985 336.786076 72.8383513 315.693974 82.0072664 313.552387"></polygon>
                    <polygon id="Fill-58" fill="#EBCAB0" points="101.660627 340.813496 92.2443893 340.813496 92.9829838 319.006408 102.399221 319.006408"></polygon>
                    <path d="M91.4982626,339.723367 L102.076915,339.723367 C102.462513,339.723367 102.775039,339.990925 102.829,340.366405 L104.034135,348.736019 C104.15892,349.60502 103.412456,350.426805 102.524344,350.411066 C98.8358679,350.346987 97.0585193,350.131142 92.4066103,350.131142 C89.5444158,350.131142 85.3624193,350.427929 81.409758,350.427929 C77.5447837,350.427929 77.2468727,346.520235 78.8926907,346.166115 C86.2730153,344.578755 87.4376788,342.389952 89.9243929,340.302326 C90.3729458,339.925722 90.9350421,339.723367 91.4982626,339.723367" id="Fill-60" fill="#1A2E35"></path>
                    <path d="M77.597396,335.38106 L87.2081187,330.959611 C87.5577426,330.798851 87.9534584,330.911271 88.1603099,331.230541 L92.7526367,338.330942 C93.2292944,339.067288 92.894285,340.125153 92.0814937,340.482647 C88.7044191,341.966581 86.9990189,342.512938 82.7720546,344.456667 C80.1717971,345.652808 74.9184449,348.396963 71.3266495,350.049526 C67.8146717,351.664991 65.9114136,348.238451 67.2593206,347.228926 C73.2996076,342.702927 75.024119,339.501226 76.4091244,336.564835 C76.6598193,336.035341 77.0858883,335.616017 77.597396,335.38106" id="Fill-62" fill="#1A2E35"></path>
                    <polygon id="Fill-64" fill="#000000" points="72.8412742 315.699258 75.8248814 326.999642 84.885874 324.428614 82.014686 313.556547"></polygon>
                    <polygon id="Fill-66" fill="#000000" points="102.401245 319.012816 92.9805106 319.012816 92.6050303 330.253618 102.025764 330.253618"></polygon>
                    <path d="M106.628097,71.7252882 C110.540287,72.5830472 114.717787,86.6556905 114.717787,86.6556905 L103.65798,98.4158695 C103.65798,98.4158695 94.4811953,85.199861 96.3496035,80.3388521 C98.2967051,75.2766127 102.004292,70.7123906 106.628097,71.7252882" id="Fill-68" fill="#4160B5"></path>
                    <path d="M100.427725,80.6817308 C98.4491456,78.8717807 97.1113564,79.4113932 96.2007604,80.8503597 C95.3014063,85.0323563 100.630079,93.7898169 102.777287,97.1061851 C103.766577,93.1490271 104.902011,84.7962759 100.427725,80.6817308" id="Fill-70" fill-opacity="0.2" fill="#000000"></path>
                    <path d="M57.1043762,71.9983546 C57.1043762,71.9983546 52.6188476,73.5778452 61.6045193,128.831913 L99.8484282,128.831913 C99.2065142,113.266342 99.1885271,103.669109 106.628434,71.7251758 C106.628434,71.7251758 98.6151889,69.981553 90.3883472,69.5858372 C83.9523445,69.2755601 78.679881,69.0698328 73.0218196,69.5858372 C65.5628015,70.2670979 57.1043762,71.9983546 57.1043762,71.9983546" id="Fill-72" fill="#4160B5"></path>
                    <path d="M56.7641955,93.2048994 C57.0115179,95.8917198 57.3375337,98.915798 57.7647269,102.333344 C60.8967276,99.5127443 63.4565142,91.4905057 62.5200617,86.8093676 C60.3278861,88.4383227 58.3043394,90.9565142 56.7641955,93.2048994" id="Fill-74" fill-opacity="0.2" fill="#000000"></path>
                    <path d="M60.8461389,84.8283153 C58.7652584,90.0839159 56.4730296,95.0787037 53.8952559,100.066746 C51.3208548,105.048044 48.5710796,109.942779 44.9174536,114.676754 L44.1990945,115.561493 L43.8393529,116.002177 C43.7168159,116.151694 43.6201353,116.282101 43.4211532,116.486704 C42.725278,117.254527 41.9720689,117.911056 41.2008728,118.46191 C39.6517353,119.565867 38.050885,120.268488 36.5006234,120.809225 C33.393355,121.854724 30.3895123,122.225707 27.4621147,122.401081 C21.5859599,122.63941 16.0268273,122.095301 10.4204787,120.887918 L11.0432814,116.160688 C13.6266761,116.174178 16.3371045,116.116844 18.9508523,115.951588 C21.5769663,115.814437 24.1760997,115.533389 26.6695589,115.088208 C29.1573972,114.671133 31.5631694,114.038212 33.5709774,113.164715 C34.5613911,112.720659 35.4225227,112.188915 36.0554431,111.650427 C36.3735896,111.381745 36.6242846,111.107442 36.8243909,110.845505 C36.865986,110.807283 36.9671634,110.660013 37.052602,110.538601 L37.3156631,110.167617 L37.8417852,109.429023 C40.6106717,105.33134 43.0434245,100.570385 45.3648823,95.8128015 C47.6469933,91.0316103 49.8470383,86.0739208 51.9133043,81.2365199 L60.8461389,84.8283153 Z" id="Fill-76" fill="#EBCAB0"></path>
                    <path d="M57.1043762,71.9983546 C52.4243623,73.1394101 46.6651235,85.9889318 46.6651235,85.9889318 L56.3792719,100.260557 C56.3792719,100.260557 69.3131081,83.9788754 67.7752126,79.0031988 C66.1743623,73.821795 62.7826731,70.6133493 57.1043762,71.9983546" id="Fill-78" fill="#4160B5"></path>
                    <path d="M13.7375215,116.860948 L5.63434102,113.119635 L4.82042556,121.174475 C4.82042556,121.174475 11.5925619,123.167668 14.931414,121.126134 L13.7375215,116.860948 Z" id="Fill-80" fill="#EBCAB0"></path>
                    <polygon id="Fill-82" fill="#EBCAB0" points="0.780976617 112.305719 0.00865628321 118.439314 4.82020072 121.174475 5.63524037 113.119635"></polygon>
                    <path d="M94.1033542,39.1220158 C92.3889604,48.3089179 91.8605899,52.2345986 86.59712,56.4076016 C78.6794314,62.683969 67.7702661,58.5705482 66.7045315,49.056506 C65.7455952,40.4924066 68.708967,26.9076629 78.2263817,24.3445037 C87.6032724,21.8195671 95.8166237,29.9351136 94.1033542,39.1220158" id="Fill-84" fill="#EBCAB0"></path>
                    <path d="M83.4874908,58.2947837 C96.0986837,58.7635721 99.8737225,47.9904341 98.7495299,43.6802796 C105.30807,38.3403646 106.255764,29.1602077 98.8833088,22.1340038 C91.5097294,15.1077999 75.2741395,19.0346047 70.7391464,25.8809378 C65.1181833,34.3652195 73.9239841,41.0575382 73.9239841,41.0575382 C73.3989862,45.7420489 73.1966315,57.9125583 83.4874908,58.2947837 Z" id="Fill-86" fill="#C6AE7F"></path>
                    <path d="M86.5514778,24.8632062 C85.9421654,19.9223796 86.4154505,16.5127034 91.0370064,16.5127034 C95.6585623,16.5127034 101.982146,18.191123 104.300231,22.9262223 C106.61944,27.6613216 106.806056,35.0618817 100.341949,34.3120452 C93.8778411,33.5633329 87.2810788,30.7775836 86.5514778,24.8632062" id="Fill-88" fill="#007CFF"></path>
                    <g id="Group-92" transform="translate(93.307988, 0.000000)">
                        <mask id="mask-2" fill="white">
                            <use xlink:href="#path-1"></use>
                        </mask>
                        <g id="Clip-91"></g>
                        <path d="M0.411679339,23.6761712 C-0.690029433,17.7820293 4.56107432,1.19681547 17.3712493,0.118714741 C23.3036138,-0.381550977 26.0522647,6.00498733 22.9449963,7.05610743 C28.5502208,6.98865587 32.1622517,14.4184449 26.9201414,15.5381408 C31.0650397,18.1856144 30.0330308,23.6323277 24.1310195,26.3022852 C19.7803941,28.2707465 1.93608454,31.8321887 0.411679339,23.6761712" id="Fill-90" fill="#C6AE7F" mask="url(#mask-2)"></path>
                    </g>
                    <path d="M107.404014,30.0052633 C103.282724,30.0052633 98.9725697,29.3993234 96.3026122,27.6118572 C94.6815264,26.5258871 93.7922901,25.0869205 93.6596354,23.33318 C93.6483934,23.1780415 93.7641853,23.0431383 93.9181997,23.0318964 C94.0823318,23.0195303 94.2082414,23.1353221 94.2206075,23.2904607 C94.3386477,24.8632062 95.1446938,26.1594003 96.6151378,27.1453172 C101.702109,30.5516209 113.46004,29.4487879 117.144019,28.2459018 C120.313118,27.2116446 122.459202,25.2072091 122.885271,22.8846272 C123.197797,21.1803512 122.528902,19.5648864 121.003373,18.3361438 C120.88196,18.2394632 120.862848,18.0618408 120.960653,17.9415522 C121.057334,17.8201394 121.234956,17.8021523 121.355245,17.8988329 C123.025795,19.2433673 123.783501,21.0971609 123.438374,22.9858045 C122.975206,25.5152379 120.68635,27.6815571 117.318269,28.7798933 C115.389155,29.4094412 111.48933,30.0052633 107.404014,30.0052633" id="Fill-93" fill="#B59F73"></path>
                    <path d="M71.0550446,39.8158675 C69.9263552,41.3796194 69.6014635,43.3244727 69.8510343,44.8915972 C70.2253904,47.2490291 72.5232401,47.4052919 74.1881694,45.894377 C75.685594,44.5341039 77.2954378,41.6674127 76.0689437,39.7124417 C74.8604366,37.787824 72.3456177,38.0284012 71.0550446,39.8158675" id="Fill-95" fill="#EBCAB0"></path>
                    <path d="M71.704041,128.8318 C71.704041,128.8318 77.1687413,193.462759 82.8391689,229.887724 C87.4191297,259.307845 91.0300364,328.075832 91.0300364,328.075832 L103.871689,328.075832 C103.871689,328.075832 108.439283,261.362869 106.114453,232.264267 C100.231553,158.631898 113.349757,152.633207 99.8482033,128.8318 L71.704041,128.8318 Z" id="Fill-97" fill="#2F3E43"></path>
                    <path d="M87.8694812,153.259719 C82.6869532,158.554666 78.7410371,164.883871 75.7394428,171.561575 C77.234619,186.086144 79.0108433,202.207066 80.899487,216.326925 C86.7452886,201.566276 91.7479458,178.857585 87.8694812,153.259719" id="Fill-99" fill="#000000" opacity="0.2"></path>
                    <path d="M62.7158961,128.423718 C62.7158961,128.423718 50.8612848,199.010649 48.9872557,230.827549 C53.6436616,260.248794 72.6886089,322.433509 72.6886089,322.433509 L84.3700944,318.202048 C84.3700944,318.202048 77.9082352,250.391873 70.8426846,231.826956 C86.6600748,178.570579 98.2842266,165.111745 94.9015309,128.8318 C86.8354489,128.8318 62.7158961,128.423718 62.7158961,128.423718" id="Fill-101" fill="#2F3E43"></path>
                    <polygon id="Fill-103" fill="#1A2E35" points="71.1220464 325.54089 86.9057109 321.255468 86.0108536 314.964486 69.11199 319.533205"></polygon>
                    <polygon id="Fill-105" fill="#1A2E35" points="89.2732606 328.331024 105.628015 328.331024 106.488022 322.593144 89.1799526 322.00744"></polygon>
                    <path d="M100.421317,126.587575 L102.145828,130.010741 C102.279607,130.276051 101.964833,130.546981 101.523026,130.546981 L61.4152052,130.546981 C61.0700781,130.546981 60.7845332,130.378352 60.7631735,130.161383 L60.4180464,126.738216 C60.3944383,126.501012 60.6934736,126.299781 61.0700781,126.299781 L99.798514,126.299781 C100.082935,126.299781 100.334754,126.416697 100.421317,126.587575" id="Fill-107" fill="#007CFF"></path>
                    <path d="M100.421317,126.587575 L102.145828,130.010741 C102.279607,130.276051 101.964833,130.546981 101.523026,130.546981 L61.4152052,130.546981 C61.0700781,130.546981 60.7845332,130.378352 60.7631735,130.161383 L60.4180464,126.738216 C60.3944383,126.501012 60.6934736,126.299781 61.0700781,126.299781 L99.798514,126.299781 C100.082935,126.299781 100.334754,126.416697 100.421317,126.587575" id="Fill-109" fill="#000000"></path>
                    <path d="M95.2200147,130.91774 L96.2576445,130.91774 C96.4633718,130.91774 96.6207587,130.812066 96.6072684,130.681659 L96.120493,126.233229 C96.1058785,126.103947 95.9260077,125.997149 95.7191562,125.997149 L94.6815264,125.997149 C94.474675,125.997149 94.3184122,126.103947 94.3319025,126.233229 L94.8186779,130.681659 C94.8332925,130.812066 95.0131633,130.91774 95.2200147,130.91774" id="Fill-111" fill="#007CFF"></path>
                    <path d="M80.7553655,97.7423657 C77.0860007,84.1902236 69.4639747,73.0449779 65.8272116,71.3260874 C65.4202539,71.1338505 65.0829961,71.078765 64.8795172,71.1698246 C64.5950965,71.2979826 64.2634597,71.1709488 64.1364259,70.8887765 C64.0093921,70.6054799 64.1353017,70.2727189 64.417474,70.1456851 C64.942472,69.9084805 65.5776408,69.9646901 66.308366,70.3098173 C70.189079,72.1444996 77.8774323,83.1627116 81.7255437,97.0307518 C84.482064,96.9959018 88.7348847,96.6518989 89.7601484,96.565336 C91.0451006,95.0386824 100.47258,83.2560195 96.9448635,70.3671511 C96.8639216,70.0669917 97.0392956,69.7578387 97.3394551,69.6757726 C97.6362419,69.5937066 97.9476433,69.7702048 98.0297093,70.06924 C101.956514,84.4173105 90.5718155,97.3522709 90.4560236,97.4804288 C90.3604673,97.5872271 90.2278125,97.6535545 90.0861643,97.6659206 C90.0299546,97.6704174 84.423606,98.1571928 81.2972263,98.1571928 C81.0431588,98.1571928 80.8205686,97.9874397 80.7553655,97.7423657 Z" id="Fill-113" fill="#1EB2D2"></path>
                    <path d="M99.9188026,106.103998 C93.7908286,94.6169978 91.2850033,93.8143243 90.1889155,90.1213515 C90.1889155,90.1213515 91.1770808,87.3333538 93.6829061,84.5105061 C92.9319455,84.3014063 91.3400887,83.9832597 90.3418057,83.7898986 C90.4564733,83.2873845 90.571141,82.7904914 90.6858086,82.3138337 C89.8572786,82.0844984 88.1383881,82.321703 87.2581453,82.4678481 L87.2187985,81.3346619 C87.2187985,81.3346619 84.1115301,80.710735 82.8625521,81.0581105 C82.9873375,81.5808601 83.1143713,82.1249693 83.2391567,82.6769479 C82.1453172,82.8882961 80.4005703,83.2367958 79.5765371,83.4661311 C81.963198,86.1540757 82.8232054,89.0230153 83.0086972,89.7323808 C79.7091918,95.4039326 66.8664153,131.900846 87.7482933,134.645 C108.643662,137.391403 106.045652,117.592122 99.9188026,106.103998" id="Fill-115" fill="#007CFF"></path>
                    <path d="M99.9188026,106.103998 C93.7908286,94.6169978 91.2850033,93.8143243 90.1889155,90.1213515 C90.1889155,90.1213515 91.1770808,87.3333538 93.6829061,84.5105061 C92.9319455,84.3014063 91.3400887,83.9832597 90.3418057,83.7898986 C90.4564733,83.2873845 90.571141,82.7904914 90.6858086,82.3138337 C89.8572786,82.0844984 88.1383881,82.321703 87.2581453,82.4678481 L87.2187985,81.3346619 C87.2187985,81.3346619 84.1115301,80.710735 82.8625521,81.0581105 C82.9873375,81.5808601 83.1143713,82.1249693 83.2391567,82.6769479 C82.1453172,82.8882961 80.4005703,83.2367958 79.5765371,83.4661311 C81.963198,86.1540757 82.8232054,89.0230153 83.0086972,89.7323808 C79.7091918,95.4039326 66.8664153,131.900846 87.7482933,134.645 C108.643662,137.391403 106.045652,117.592122 99.9188026,106.103998" id="Fill-117" fill="#FBC557"></path>
                    <path d="M82.2304186,88.6462983 C82.07528,88.9250981 82.0898945,89.980715 82.0662865,90.4022872 C82.0426784,90.8238595 83.1668711,91.1060318 84.4315878,91.2229478 C85.6963045,91.3398639 90.9193034,91.5500879 90.7551713,90.9655077 C90.5910392,90.3798034 91.0126114,89.5827508 91.0362194,89.0914786 C91.0598275,88.5990823 88.9519663,88.5765984 87.1959774,88.6462983 C85.4388644,88.7159983 82.5811667,88.0145021 82.2304186,88.6462983" id="Fill-119" fill="#007CFF"></path>
                    <path d="M70.0787957,130.91774 L71.1164255,130.91774 C71.3221527,130.91774 71.4795397,130.812066 71.4660494,130.681659 L70.979274,126.233229 C70.9646595,126.103947 70.7847887,125.997149 70.5779372,125.997149 L69.5403074,125.997149 C69.333456,125.997149 69.176069,126.103947 69.1906835,126.233229 L69.6774589,130.681659 C69.6909492,130.812066 69.8719442,130.91774 70.0787957,130.91774" id="Fill-121" fill="#007CFF"></path>
                </g>
            </g>
        </g>
    </g>
</svg>