<?xml version="1.0" encoding="UTF-8"?>
<svg width="550px" height="550px" viewBox="0 0 550 550" version="1.1" xmlns="http://www.w3.org/2000/svg" xmlns:xlink="http://www.w3.org/1999/xlink">
    <!-- Generator: Sketch 62 (91390) - https://sketch.com -->
    <title>Fund</title>
    <desc>Created with Sketch.</desc>
    <defs>
        <polygon id="path-1" points="0 0.40640674 438.630613 0.40640674 438.630613 26.4497878 0 26.4497878"></polygon>
    </defs>
    <g id="Fund" stroke="none" stroke-width="1" fill="none" fill-rule="evenodd">
        <g id="Group-2-Copy" transform="translate(66.000000, 66.000000)">
            <path d="M7.77601997,106.287494 C-48.1104167,231.454899 214.805042,183.781063 237.168323,218.209584 C271.118612,270.474438 173.370399,323.251986 209.191097,379.303949 C259.584655,458.15787 342.17644,383.331685 371.667676,354.201015 C401.452736,324.779135 462.73139,248.283613 423.73712,181.534773 C364.175161,79.5849501 295.710059,150.939846 234.209677,110.357612 C205.208148,91.2197178 235.908688,46.7095535 191.120913,15.6661886 C113.005865,-38.4799149 27.7465384,61.5599468 7.77601997,106.287494" id="Fill-1-Copy" fill="#FFFFFF"></path>
            <g id="Fund" transform="translate(0.000000, 47.666667)">
                <g id="Group-3" transform="translate(0.000000, 343.535594)">
                    <mask id="mask-2" fill="white">
                        <use xlink:href="#path-1"></use>
                    </mask>
                    <g id="Clip-2"></g>
                    <path d="M438.630613,13.4277523 C438.630613,20.6197946 340.439876,26.4502478 219.315306,26.4502478 C98.190737,26.4502478 0,20.6197946 0,13.4277523 C0,6.23685997 98.190737,0.40640674 219.315306,0.40640674 C340.439876,0.40640674 438.630613,6.23685997 438.630613,13.4277523" id="Fill-1" fill-opacity="0.05" fill="#000000" mask="url(#mask-2)"></path>
                </g>
                <g id="Group-108" transform="translate(122.948773, 0.838343)">
                    <path d="M160.213955,248.755029 L155.709441,248.77026 L156.046388,352.23263 L160.550902,352.21883 C189.121273,352.12568 212.207338,328.888967 212.114469,300.318596 C212.021039,271.748225 188.784326,248.66216 160.213955,248.755029" id="Fill-4" fill="#FBC557"></path>
                    <path d="M160.213955,248.762619 L155.709441,248.777849 L156.046388,352.24022 L160.550902,352.22642 C189.121273,352.13327 212.207338,328.896557 212.114469,300.326186 C212.021039,271.755815 188.784326,248.66975 160.213955,248.762619" id="Fill-6" fill-opacity="0.15" fill="#000000"></path>
                    <path d="M207.610416,300.333086 C207.516985,271.762715 184.280272,248.67665 155.709901,248.769519 C127.13953,248.862949 104.053465,272.099662 104.146334,300.670033 C104.239764,329.240404 127.476477,352.326469 156.046848,352.2336 C184.617219,352.14017 207.703284,328.903457 207.610416,300.333086" id="Fill-8" fill="#FBC557"></path>
                    <path d="M187.352702,272.486174 C179.896162,265.912827 170.098241,261.936159 159.372277,261.971809 C136.101063,262.047708 117.295264,280.975406 117.371164,304.24777 C117.405663,314.961084 121.437531,324.726805 128.049978,332.141946 C119.312348,324.450807 113.783192,313.195848 113.741564,300.637948 C113.665893,277.366735 132.468242,258.437887 155.739456,258.361754 C168.306555,258.320588 179.605214,263.785344 187.352702,272.486174" id="Fill-10" fill-opacity="0.1" fill="#000000"></path>
                    <polygon id="Fill-12" fill="#CFA082" points="67.8120811 346.580885 58.9249523 344.908798 60.4325902 323.883517 69.318569 325.555604"></polygon>
                    <polygon id="Fill-14" fill="#CFA082" points="127.632991 346.346172 118.590614 346.346172 116.338932 325.40484 125.381309 325.40484"></polygon>
                    <path d="M117.8468,345.298875 L128.871761,345.298875 C129.240908,345.298875 129.561756,345.555323 129.641105,345.91642 L131.428191,353.954856 C131.613339,354.787449 130.957845,355.577493 130.103401,355.562543 C126.55683,355.501593 123.968201,355.293445 119.500486,355.293445 C116.752008,355.293445 108.462875,355.578643 104.667905,355.578643 C100.955735,355.578643 100.37614,351.826223 101.929777,351.485826 C108.897571,349.962088 114.148429,347.859905 116.379411,345.854321 C116.780758,345.493224 117.306304,345.298875 117.8468,345.298875" id="Fill-16" fill="#1A2E35"></path>
                    <path d="M59.1135508,342.957379 L68.8447728,344.635216 C69.2093198,344.698465 69.4818677,345.005513 69.4991175,345.37581 L69.8935644,353.599394 C69.934964,354.452687 69.1771201,355.123131 68.3376268,354.963283 C64.8382049,354.298588 59.8012453,353.218747 55.3887307,352.457453 C50.2287221,351.56851 47.7102423,350.924515 41.6601408,349.881473 C38.0020202,349.250129 38.8047137,345.249311 40.394001,345.178011 C47.628593,344.854864 50.1815725,345.957705 56.846919,343.281676 C57.5714132,342.990729 58.344207,342.82513 59.1135508,342.957379" id="Fill-18" fill="#1A2E35"></path>
                    <path d="M90.0734875,69.6125066 C89.7698899,70.5221493 89.5237919,71.1994939 89.2397442,71.9665377 C88.9683464,72.7140317 88.6681988,73.4396759 88.3692012,74.1664701 C87.766606,75.6177584 87.1329611,77.048347 86.4682664,78.4685856 C85.150377,81.3136628 83.650789,84.0839905 81.9936523,86.8071687 C78.6448792,92.2144253 74.6544112,97.492883 69.0332563,101.854798 C67.5854179,102.90819 66.0938798,103.930531 64.4056934,104.774625 C63.9997466,104.998873 63.5731001,105.202421 63.1326536,105.39102 C62.6784072,105.587668 62.3035102,105.770517 61.7837144,105.969465 C60.6199237,106.407611 59.6125318,106.63646 58.6488396,106.822758 C56.7341049,107.167755 55.0470684,107.234455 53.3887817,107.271255 C51.739695,107.304604 50.1492577,107.234455 48.5841203,107.116006 C42.3350704,106.63531 36.4689675,105.507169 30.5672148,103.854632 L31.4711076,97.1248859 C37.2038116,96.9086877 43.0503647,96.7292891 48.5300707,96.246293 C49.8974098,96.112894 51.238299,95.9507453 52.5136388,95.7632968 C53.7763286,95.5689484 55.0125687,95.3102005 55.9555612,94.998553 C56.4201574,94.8525042 56.8284042,94.6846055 57.0193026,94.5615565 C57.3987996,94.3338583 57.9082455,94.1142101 58.338342,93.8117625 C59.2422348,93.2793168 60.1219777,92.5559726 60.9948207,91.8211285 C62.7370568,90.2916407 64.4056934,88.4597054 65.9259812,86.395472 C67.4727188,84.3588383 68.9021573,82.1347562 70.2257967,79.8071748 C71.5747359,77.4956934 72.7856762,75.0577129 73.9632667,72.5990327 C74.545162,71.3650926 75.1017576,70.1162026 75.6261534,68.8604126 L76.3977972,66.9813277 L77.0912416,65.2126419 L90.0734875,69.6125066 Z" id="Fill-20" fill="#CFA082"></path>
                    <path d="M85.7212324,59.006252 C102.22245,58.9913068 84.0882455,94.6387209 84.0882455,94.6387209 L63.0307644,86.1264891 C63.0307644,86.1264891 68.7772683,73.7203887 72.5630379,66.6318455 C76.1418092,59.9319993 82.0654117,59.0097067 85.7212324,59.006252" id="Fill-24" fill="#7282AB"></path>
                    <path d="M81.6799348,70.5274393 C75.6424832,74.7674553 71.4438669,82.648342 70.2478765,89.0422908 L82.27908,93.9182516 C84.4629125,90.6522778 86.5915454,86.7998087 88.9375266,83.4188359 C89.5803714,81.65935 90.2128664,79.8078648 90.7648619,77.9333799 L81.6799348,70.5274393 Z" id="Fill-26" fill-opacity="0.1" fill="#000000"></path>
                    <path d="M36.6259412,97.9310295 L29.3901992,93.8451122 L23.8472437,104.235279 C23.8472437,104.235279 28.8267038,105.186321 33.4991163,103.990331 L36.6259412,97.9310295 Z" id="Fill-28" fill="#CFA082"></path>
                    <polygon id="Fill-30" fill="#CFA082" points="22.5216493 93.8453422 18.4943816 102.978569 23.8464387 104.234359 29.3893943 93.8453422"></polygon>
                    <polygon id="Fill-32" fill="#000000" points="60.4331652 323.889842 59.6546215 334.727355 68.5452002 336.399442 69.3237439 325.563079"></polygon>
                    <polygon id="Fill-34" fill="#000000" points="125.384069 325.410475 116.337092 325.410475 117.502032 336.204288 126.54901 336.204288"></polygon>
                    <path d="M130.720716,62.9486551 C127.931989,72.9409249 126.149503,83.1171933 124.974213,92.6943165 C124.119769,99.7023602 123.605724,106.389557 123.287176,112.454608 C122.535082,126.668494 122.84788,137.506007 122.425833,141.176778 C115.35454,140.686881 88.7069534,138.833096 74.17682,137.816505 C67.6069227,86.3774171 80.1533221,59.8735797 80.1533221,59.8735797 C80.1533221,59.8735797 85.4938792,58.8086883 91.7015294,58.4464412 C92.5191729,58.3935416 93.3506162,58.3647918 94.1958594,58.348692 C99.6606156,58.2325429 108.568444,59.0524863 114.709395,59.7758305 C115.999685,59.9299293 117.304924,60.1185278 118.574514,60.3232261 C125.035162,61.3743177 130.720716,62.9486551 130.720716,62.9486551" id="Fill-38" fill="#7282AB"></path>
                    <path d="M118.537484,75.9629857 C118.511034,84.0485708 120.742016,90.881816 124.509386,96.870968 C124.645085,95.493279 124.803784,94.1029402 124.975133,92.6988014 C125.619127,87.4341437 126.448271,81.9831874 127.549962,76.4770315 L118.537484,75.9629857 Z" id="Fill-40" fill-opacity="0.1" fill="#000000"></path>
                    <path d="M114.285623,36.5393469 C112.531887,43.0482947 110.396354,55.0507484 114.70537,59.7760605 C111.077149,63.0259344 105.856191,65.6421635 98.4537003,64.9648189 C92.7842457,64.4450231 92.7761958,60.4557051 94.1952844,58.345472 C101.677124,57.101182 101.868023,51.6283759 100.94343,46.4108677 L114.285623,36.5393469 Z" id="Fill-42" fill="#CFA082"></path>
                    <path d="M108.846167,40.5676496 L100.95033,46.4061528 C101.173428,47.6412429 101.326377,48.8878329 101.328677,50.0907232 C104.168004,49.8802749 108.245872,47.0639475 108.749568,44.1406709 C109.001416,42.6836326 109.038215,41.267994 108.846167,40.5676496" id="Fill-44" fill="#000000" opacity="0.1"></path>
                    <path d="M95.122177,15.58732 C91.6423049,16.952359 90.4026148,30.3003019 97.4221585,28.9904625 C104.440552,27.679473 102.073871,12.8606918 95.122177,15.58732" id="Fill-46" fill="#1A2E35"></path>
                    <path d="M117.902344,28.9419328 C115.091767,37.4656645 113.879677,42.5969233 108.334421,45.8927969 C99.9935379,50.8492571 90.3439653,44.0700615 90.5509637,34.8781852 C90.7384122,26.6051516 95.3027255,14.0564522 104.6901,12.839762 C113.938326,11.6403216 120.712922,20.4182012 117.902344,28.9419328" id="Fill-48" fill="#CFA082"></path>
                    <path d="M114.705715,34.8124058 C111.134994,34.8768052 108.195617,24.0496421 115.415259,21.0297663 C109.729705,20.3742716 92.2877947,21.3322139 89.1575198,13.5375764 C86.0272449,5.74293893 98.1653976,4.52969867 102.286965,7.4679251 C100.977125,3.18765943 106.311932,-3.13728983 115.910905,2.61266404 C125.509878,8.36261792 125.382229,15.453461 124.487536,17.5625441 C128.768952,18.7125349 129.607295,28.2321585 124.875083,29.5097983 C127.648861,33.3427175 125.24998,41.4248527 117.77504,39.6998666 C117.523192,44.3952789 112.284984,42.3367954 112.604682,38.7338743 C112.924379,35.1321032 114.705715,34.8124058 114.705715,34.8124058" id="Fill-50" fill="#1A2E35"></path>
                    <path d="M98.7675327,36.8930841 C98.7686827,36.8930841 98.7698327,36.8942341 98.7721327,36.8942341 C102.352054,37.8119267 104.620986,35.778743 104.715285,35.6913437 C104.809584,35.6050944 104.815334,35.4590456 104.730235,35.3658963 C104.643986,35.2715971 104.497937,35.2646971 104.403638,35.3509464 C104.382938,35.3704963 102.216355,37.3013308 98.8871318,36.4480376 C98.7629328,36.4158379 98.6375838,36.4905873 98.605384,36.6136363 C98.5754843,36.7355353 98.6467837,36.8597343 98.7675327,36.8930841" id="Fill-52" fill="#1A2E35"></path>
                    <path d="M119.686325,37.9871853 C117.933739,39.6558219 115.573958,40.3584663 113.586774,40.2779669 C110.597948,40.1549179 110.021802,37.2603911 111.62144,34.9201599 C113.061228,32.8145268 116.351352,30.3397466 118.981381,31.6047365 C121.57231,32.8501765 121.690759,36.0793506 119.686325,37.9871853" id="Fill-54" fill="#CFA082"></path>
                    <path d="M56.6592405,331.217123 L71.557371,334.753345 C71.557371,334.753345 76.8576785,276.501712 81.4001421,244.496319 C82.6053324,236.008237 84.4637175,224.075933 87.3007447,211.357035 C90.882966,195.330763 95.37598,178.003852 99.0548004,164.433961 C102.936019,150.143026 105.891496,140.027707 105.891496,140.027707 L74.1713,137.816275 C74.1713,137.816275 57.0076877,212.673774 55.1872523,240.213753 C53.2909175,268.848523 56.6592405,331.217123 56.6592405,331.217123" id="Fill-56" fill="#1A2E35"></path>
                    <path d="M87.3007447,211.35669 C90.882966,195.331568 95.37598,178.003507 99.0548004,164.433616 L95.7623769,157.345073 C87.89529,166.694498 85.7781569,195.635166 87.3007447,211.35669" id="Fill-58" fill="#000000"></path>
                    <path d="M91.2852328,139.009735 C91.2852328,139.009735 94.7087553,216.429414 98.5255747,242.649204 C102.706941,271.361023 113.323656,334.11372 113.323656,334.11372 L129.885823,334.11372 C129.885823,334.11372 125.28586,274.465998 122.170535,246.346424 C118.622813,214.316881 122.418933,141.182068 122.418933,141.182068 L91.2852328,139.009735 Z" id="Fill-60" fill="#1A2E35"></path>
                    <polygon id="Fill-62" fill="#4160B4" points="111.341072 334.472287 130.843765 334.472287 131.705109 328.646434 110.176131 328.266937"></polygon>
                    <polygon id="Fill-64" fill="#4160B4" points="55.7012982 332.220605 72.6878119 335.416429 74.6048466 329.493977 55.2378519 325.822056"></polygon>
                    <path d="M104.803259,28.2638983 C104.618111,28.9688426 104.093715,29.4426388 103.632569,29.3218898 C103.171422,29.1999908 102.948324,28.5295462 103.133473,27.8246018 C103.318621,27.1196575 103.843017,26.6458613 104.304163,26.7666103 C104.76531,26.8885093 104.989558,27.5578039 104.803259,28.2638983" id="Fill-66" fill="#1A2E35"></path>
                    <path d="M96.8302583,26.1666601 C96.6439598,26.8727544 96.120714,27.3454007 95.6595677,27.2246516 C95.1984214,27.1027526 94.9753232,26.432308 95.1604717,25.7273636 C95.3456202,25.0224193 95.870016,24.5486231 96.3311623,24.6693721 C96.7923086,24.7912711 97.0154068,25.4617158 96.8302583,26.1666601" id="Fill-68" fill="#1A2E35"></path>
                    <path d="M98.5945741,26.8275598 C98.5945741,26.8275598 95.9196956,30.4753305 93.6381139,31.9737685 C94.5788063,33.4676065 96.9834371,33.3399576 96.9834371,33.3399576 L98.5945741,26.8275598 Z" id="Fill-70" fill="#69412A"></path>
                    <path d="M107.278959,25.9808216 C107.123711,25.9681717 106.979962,25.8715725 106.916712,25.7163237 C106.189918,23.9499379 104.642031,23.6382904 104.625931,23.6348404 C104.393633,23.5911408 104.240684,23.3668926 104.285533,23.1345944 C104.329233,22.9022963 104.544281,22.7447476 104.785779,22.7930472 C104.867429,22.809147 106.807463,23.1989939 107.709056,25.3908763 C107.798755,25.6093746 107.694106,25.8600726 107.475608,25.9497718 C107.411208,25.9762216 107.343359,25.9854216 107.278959,25.9808216" id="Fill-72" fill="#1A2E35"></path>
                    <path d="M93.4560704,22.1658422 C93.3686711,22.1589423 93.2835717,22.1255925 93.2122723,22.063493 C93.0317238,21.9093943 93.0121739,21.6391464 93.1662727,21.4597479 C94.7084103,19.6623123 96.6714446,19.8957604 96.7553939,19.9107103 C96.989992,19.94176 97.1555907,20.1568083 97.1233909,20.3914064 C97.0934912,20.6248546 96.866943,20.7893032 96.6449948,20.7594035 C96.5771453,20.7559535 95.0499576,20.5800049 93.8148675,22.0174934 C93.7228682,22.1255925 93.5883193,22.1761921 93.4560704,22.1658422" id="Fill-74" fill="#1A2E35"></path>
                    <path d="M113.512944,345.006893 C113.400245,345.006893 113.307096,345.024142 113.234647,345.060942 C113.177147,345.090842 113.109298,345.146041 113.100098,345.31279 C113.078248,345.653187 113.173697,345.907335 113.391045,346.090184 C113.885541,346.505331 115.065432,346.56168 116.60182,346.252333 C115.580628,345.662387 114.206389,345.006893 113.512944,345.006893 M114.856134,346.879078 C114.168439,346.879078 113.524444,346.761778 113.115048,346.417931 C112.79075,346.145383 112.642401,345.764736 112.672301,345.28634 C112.694151,344.929843 112.8839,344.759645 113.039148,344.680295 C114.04309,344.163949 116.956017,345.959085 117.284914,346.163783 C117.358514,346.209783 117.397613,346.296032 117.383813,346.381132 C117.370014,346.466231 117.305614,346.53408 117.222815,346.55478 C116.59492,346.705429 115.693327,346.879078 114.856134,346.879078" id="Fill-76" fill="#007CFF"></path>
                    <path d="M115.34695,342.894475 C115.31475,342.894475 115.28255,342.895625 115.250351,342.900224 C114.972053,342.934724 114.946753,343.062373 114.937553,343.116423 C114.823704,343.712118 115.975995,345.209406 116.906337,345.9155 C116.801688,345.153056 116.51304,343.632769 115.839146,343.081923 C115.685047,342.956574 115.522898,342.894475 115.34695,342.894475 M117.171985,346.560645 C117.137485,346.560645 117.101836,346.551445 117.069636,346.535345 C116.134693,346.025899 114.324608,344.044465 114.515506,343.037073 C114.551156,342.853075 114.685705,342.537977 115.197451,342.474728 C115.527498,342.435628 115.836846,342.526477 116.110544,342.750726 C117.160485,343.609769 117.376683,346.219098 117.384733,346.329497 C117.391633,346.407696 117.354834,346.483596 117.288134,346.526145 C117.253634,346.549145 117.213385,346.560645 117.171985,346.560645" id="Fill-78" fill="#007CFF"></path>
                    <path d="M53.4956159,341.747359 C53.4749161,341.751959 53.4553662,341.756559 53.4369664,341.763459 C53.3438171,341.795658 53.2920675,341.856608 53.2644677,341.965857 C53.1943183,342.247605 53.238018,342.484503 53.4013166,342.688051 C53.8659129,343.267647 55.3172013,343.605744 57.342335,343.618394 C56.0313456,342.691501 54.1902103,341.60246 53.4956159,341.747359 M58.0334795,344.03584 C58.0208296,344.03814 58.0081797,344.04044 57.9955298,344.04044 C56.5097417,344.07839 53.8946627,343.988691 53.0678193,342.955999 C52.8182713,342.644352 52.7446719,342.275204 52.8493211,341.861208 C52.9114206,341.61281 53.0655193,341.439161 53.2943675,341.358662 C54.473108,340.957315 57.7494318,343.376896 58.1185788,343.656343 C58.1910282,343.710393 58.220928,343.805842 58.1921782,343.892092 C58.1691784,343.966841 58.1070789,344.02089 58.0334795,344.03584" id="Fill-80" fill="#007CFF"></path>
                    <path d="M56.0258256,340.045372 C55.8625269,340.079872 55.8326271,340.166121 55.8211272,340.201771 C55.6187289,340.788266 56.8055193,342.553502 57.7899114,343.402195 C57.7968114,342.681151 57.726662,341.190763 57.0872671,340.451319 C56.8641689,340.193721 56.598521,340.056872 56.2742236,340.035022 C56.1684245,340.026973 56.0879251,340.032722 56.0258256,340.045372 M58.0337095,344.03584 C57.9773599,344.04734 57.9187104,344.03699 57.8704108,344.003641 C56.8779688,343.335496 55.0782332,341.041264 55.4163305,340.061472 C55.4945299,339.832624 55.7164781,339.565826 56.3029734,339.607226 C56.7422698,339.638276 57.1148669,339.828024 57.4115645,340.170721 C58.3844567,341.297712 58.2108081,343.739143 58.2027581,343.842642 C58.1970082,343.918541 58.1510085,343.986391 58.0831591,344.01974 C58.0659092,344.02664 58.0498094,344.03239 58.0337095,344.03584" id="Fill-82" fill="#007CFF"></path>
                    <path d="M89.6922655,103.337366 L86.0272449,100.719987 L25.8873273,184.909662 L29.5523479,187.527041 C52.8005615,204.134058 85.1107023,198.750951 101.717719,175.502737 C118.324736,152.254524 112.940479,119.944383 89.6922655,103.337366" id="Fill-84" fill="#FBC557"></path>
                    <path d="M89.6922655,103.337596 L86.0272449,100.719067 L25.8873273,184.908742 L29.5523479,187.527271 C52.8005615,204.134288 85.1107023,198.751181 101.717719,175.502967 C118.324736,152.254754 112.940479,119.944613 89.6922655,103.337596" id="Fill-86" fill-opacity="0.2" fill="#000000"></path>
                    <path d="M0.615705061,149.392197 C-0.239888076,142.216254 0.281057746,135.065612 2.16474264,128.135767 L3.27448373,128.438215 C1.42989853,135.22316 0.919302626,142.227754 1.75649591,149.256498 L0.615705061,149.392197 Z" id="Fill-88" fill="#FBC557"></path>
                    <path d="M4.10719205,163.27523 C3.08600025,160.676251 2.25340692,157.976073 1.63126192,155.249445 L2.75135293,154.994147 C3.36199803,157.663275 4.17849148,160.308254 5.17898346,162.854334 L4.10719205,163.27523 Z" id="Fill-90" fill="#FBC557"></path>
                    <path d="M98.0521235,172.884553 C114.65914,149.63634 109.276033,117.326199 86.0266699,100.719182 C62.7796064,84.1121653 30.4694656,89.4964221 13.8624488,112.744636 C-2.74456798,135.992849 2.63853884,168.30184 25.8879023,184.908857 C49.1361159,201.515874 81.4451067,196.132767 98.0521235,172.884553" id="Fill-92" fill="#FBC557"></path>
                    <path d="M47.4059547,159.082709 C48.9423424,159.799153 50.49368,159.957852 52.0599674,159.561105 C53.6262548,159.165508 54.8923947,158.289215 55.8618369,156.933376 C56.72548,155.723586 57.1141769,154.424096 57.0279276,153.038357 C56.9393783,151.651469 56.2505338,150.142681 54.9579442,148.509694 L47.4059547,159.082709 Z M64.080821,127.430363 C62.7560316,127.030166 61.4680419,127.037066 60.215702,127.453363 C58.962212,127.868509 57.9628701,128.601053 57.2142261,129.648695 C56.5299816,130.607787 56.1826843,131.703729 56.1746344,132.938819 C56.1642845,134.175059 56.5667813,135.465348 57.3809747,136.810838 L64.080821,127.430363 Z M43.7466841,155.896084 L51.862169,144.536476 C49.0412416,140.993354 47.5382037,137.606631 47.3484552,134.372857 C47.1610067,131.141383 48.1131991,128.060558 50.2038823,125.132681 C52.3210153,122.169155 55.0349935,120.34757 58.345817,119.669075 C61.6554904,118.989431 64.9732138,119.606976 68.3024371,121.52056 L70.2620214,118.776682 L74.1926899,121.58496 L72.2331056,124.327688 C74.8619845,126.724268 76.4466718,129.338198 76.9906174,132.168325 C77.5334131,134.999602 77.0734168,137.938979 75.6060285,140.985304 L68.1080887,136.981036 C69.2155298,134.551106 69.1637802,132.330474 67.9528399,130.31914 L60.3813007,140.918605 C63.8795726,145.19312 65.7483076,148.827091 65.9829057,151.820517 C66.2198038,154.813943 65.2917613,157.775169 63.199928,160.703046 C60.8631468,163.97362 57.9042205,166.022903 54.3254492,166.850897 C50.745528,167.67889 47.0115079,167.085495 43.1256891,165.074161 L41.1672548,167.816889 L37.2365863,165.009761 L39.0995714,162.401582 C36.2429943,159.788803 34.537558,156.809177 33.9798124,153.463854 C33.4209169,150.116231 34.1431111,146.47076 36.1452451,142.521692 L43.762784,146.818057 C43.0187399,148.470594 42.6702927,150.104731 42.7162924,151.720468 C42.762292,153.337355 43.1072892,154.728844 43.7466841,155.896084 L43.7466841,155.896084 Z" id="Fill-94" fill="#FFFFFF"></path>
                    <path d="M97.867435,138.449114 C95.6514027,128.758142 90.0198979,119.810064 81.2914679,113.574814 C62.3557198,100.048622 36.0358809,104.433537 22.5096894,123.370435 C16.2824894,132.087365 13.8514089,142.370583 14.8910006,152.251304 C12.2885714,140.904345 14.3712047,128.539644 21.6713462,118.320826 C35.1975377,99.3850778 61.5139266,94.996713 80.4496747,108.524054 C90.6765426,115.827646 96.6576447,126.861807 97.867435,138.449114" id="Fill-96" fill-opacity="0.1" fill="#000000"></path>
                    <path d="M131.880827,67.8976404 C133.015868,69.3592786 133.97956,70.6691181 134.947853,72.0893567 C135.916145,73.4819956 136.855687,74.8884343 137.78028,76.3063729 C139.606465,79.15835 141.340651,82.0770266 142.950638,85.0865525 C144.587075,88.0788285 146.057913,91.1987535 147.414903,94.4003278 L148.406195,96.8233583 L149.297437,99.3188383 C149.604485,100.138782 149.850583,101.011625 150.112781,101.867218 L150.500328,103.154058 L150.596927,103.476055 L150.774026,104.172949 C150.898225,104.670895 150.944224,105.140092 150.999424,105.626538 C151.138573,107.520573 150.797025,109.10641 150.373829,110.407049 C149.940282,111.711139 149.384837,112.76453 148.820191,113.722473 C147.6794,115.623408 146.44316,117.109196 145.18967,118.505284 C142.666591,121.245712 140.012412,123.484744 137.309934,125.596128 C131.878527,129.779794 126.250472,133.258516 120.26132,136.395691 L116.5434,130.714736 C121.353812,126.606969 126.173423,122.283004 130.535338,117.902689 C132.704221,115.707357 134.763854,113.436125 136.425591,111.192493 C137.244384,110.083902 137.968878,108.955761 138.396675,108.003569 C138.611723,107.535522 138.743972,107.105426 138.787672,106.853578 C138.833671,106.60173 138.755472,106.55228 138.750872,106.822528 C138.737072,106.908777 138.761222,106.967427 138.765822,107.075526 C138.765822,107.108876 138.798022,107.208925 138.787672,107.183625 L138.686473,106.928327 L138.282826,105.907135 C138.011428,105.227491 137.76533,104.548996 137.441033,103.869352 L136.53024,101.830418 L135.544698,99.7937845 C134.180809,97.0890062 132.71802,94.3968778 131.135633,91.7346492 C129.546346,89.0804705 127.905309,86.4354917 126.191823,83.8296126 C125.34198,82.5220731 124.478337,81.2214335 123.593994,79.9414938 L120.976615,76.2040237 L131.880827,67.8976404 Z" id="Fill-98" fill="#CFA082"></path>
                    <path d="M130.720716,62.9486551 C139.196148,64.6586913 146.630839,85.3884251 146.630839,85.3884251 L128.942831,99.7966595 C128.942831,99.7966595 123.146877,89.259294 118.510114,79.0933756 C113.460505,68.0189644 120.454749,60.8786717 130.720716,62.9486551" id="Fill-102" fill="#7282AB"></path>
                    <path d="M118.627298,129.926648 L109.500972,130.92024 L115.426874,140.83546 C115.426874,140.83546 123.008763,138.264081 122.094521,134.095364 L118.627298,129.926648 Z" id="Fill-104" fill="#CFA082"></path>
                    <polygon id="Fill-107" fill="#CFA082" points="104.057605 136.158103 109.339513 144.124089 115.427564 140.835115 109.500512 130.919895"></polygon>
                    <path d="M161.319556,315.175672 L155.109606,315.750667 L154.419611,308.505725 L160.629562,307.93073 C163.389539,307.700732 164.999526,308.850723 165.229525,311.150704 C165.459523,313.565685 164.079534,314.945674 161.319556,315.175672 L161.319556,315.175672 Z M152.924623,292.865851 L158.444579,292.405854 C160.974559,292.175856 162.239549,293.555845 162.469547,295.395831 C162.584546,297.120817 161.549554,298.845803 159.134574,299.075801 L153.614618,299.535797 L152.924623,292.865851 Z M170.864479,301.375783 C175.234444,299.1908 176.729432,295.740828 176.384435,291.140865 C175.694441,284.010922 170.519482,280.905947 162.00955,281.250944 L161.549554,275.615989 L156.259597,276.075985 L156.719593,281.595941 L154.304612,281.825939 L153.844616,276.305984 L148.554658,276.76598 L149.014655,282.285936 L137.399748,283.320927 L141.424716,327.940569 L153.039622,326.905578 L153.38462,331.160544 L158.674577,330.700547 L158.32958,326.445581 L160.744561,326.215583 L161.089558,330.470549 L166.379515,330.010553 L166.034518,325.640588 C174.199453,324.375598 180.869399,320.695628 180.064406,311.6107 C179.48941,305.860747 176.269436,302.410774 170.864479,301.375783 L170.864479,301.375783 Z" id="Fill-109" fill="#FFFFFF"></path>
                </g>
            </g>
        </g>
    </g>
</svg>