<?xml version="1.0" encoding="UTF-8"?>
<svg width="550px" height="550px" viewBox="0 0 550 550" version="1.1" xmlns="http://www.w3.org/2000/svg" xmlns:xlink="http://www.w3.org/1999/xlink">
    <!-- Generator: Sketch 62 (91390) - https://sketch.com -->
    <title>Trade</title>
    <desc>Created with Sketch.</desc>
    <defs>
        <path d="M249.772946,311.972024 C249.57622,307.128869 248.667589,299.503274 247.903304,294.929464 C246.162827,284.521429 243.868185,274.435119 241.647946,265.08631 C239.451518,255.838095 236.169375,245.483036 228.479792,238.800595 C224.073244,234.971131 218.809554,232.216369 213.719077,229.551786 C213.719077,229.551786 210.072946,227.623512 208.521161,226.791964 C203.576518,224.143452 198.464018,221.404762 193.183958,219.194643 C191.964315,218.683929 190.711637,218.1875 189.50003,217.70744 C185.736042,216.215476 181.844673,214.673214 178.362232,212.478274 C178.349137,211.830357 178.195565,211.035417 177.945268,210.262798 C177.616994,210.279167 177.28872,210.295833 176.960446,210.3125 C166.669375,210.83244 156.448839,211.002976 146.167589,210.176488 C137.416994,209.472917 128.624732,208.300893 119.832768,208.65506 C118.679792,210.460119 118.633363,212.792857 118.706577,215.0625 C118.723542,215.577976 118.739018,216.093452 118.754196,216.608929 C118.83753,219.369048 118.923542,222.222917 119.196161,225.022321 C119.849137,231.727976 121.274732,236.841369 123.682768,241.113988 C125.98128,245.192857 129.384851,249.153274 133.525625,251.440179 C137.195863,253.46756 141.335446,254.377381 145.261042,255.135417 C148.223244,255.70744 151.241696,255.660714 154.160446,256.191071 C160.127708,257.275 166.297946,258.395833 172.308363,259.776786 C173.648839,260.084821 175.057768,260.353571 176.549435,260.638095 C182.162232,261.708036 188.524137,262.921131 192.512232,266.715179 C196.591696,270.596131 196.545565,275.100595 196.492589,280.316964 C196.486339,280.919345 196.480089,281.531548 196.480089,282.152679 C196.480089,291.298214 195.57622,303.940476 195.299435,307.597024 C195.170268,309.302083 195.008661,311.034226 194.852113,312.709524 C194.611935,315.278869 194.364018,317.93631 194.227708,320.559524 C194.206577,320.966964 194.15628,321.496429 194.098542,322.109821 C193.808363,325.172917 193.322946,330.300298 195.483661,331.671131 C198.152113,333.364881 201.445268,333.933929 204.016399,334.240179 C204.27622,334.271429 204.57622,334.313095 204.904494,334.359524 C205.991994,334.51131 207.343482,334.700595 208.615506,334.700595 C210.023542,334.700595 211.333958,334.46875 212.080089,333.697917 C212.691696,333.065476 212.995863,332.209524 213.26372,331.454167 C215.225923,325.927381 216.739018,319.355357 217.760446,311.920238 C217.760446,311.920238 220.345268,293.100298 221.209851,286.824702 C221.740804,290.78006 222.542589,294.945536 223.285446,298.80625 C223.628006,300.587202 224.814613,307.247619 225.090804,308.920238 C226.024137,314.564881 226.98872,320.401488 228.703601,325.976786 C228.824137,326.36875 228.942589,326.923512 229.067887,327.511012 C229.390506,329.02619 229.792292,330.911607 230.569077,331.652083 C232.33128,333.333036 235.316696,332.860417 237.715804,332.479762 C238.311637,332.385714 238.874137,332.296429 239.380089,332.244643 C240.15747,332.165476 240.970863,332.122321 241.75747,332.080655 C243.136339,332.007738 244.562232,331.93244 245.905387,331.660417 C246.191696,331.602679 246.461637,331.552381 246.716399,331.50506 C248.891696,331.100595 250.090512,330.877679 250.090512,327.704464 C250.090512,322.479762 249.984554,317.186607 249.772946,311.972024" id="path-1"></path>
        <filter x="-19.8%" y="-15.1%" width="139.6%" height="141.2%" filterUnits="objectBoundingBox" id="filter-2">
            <feOffset dx="0" dy="7" in="SourceAlpha" result="shadowOffsetOuter1"></feOffset>
            <feGaussianBlur stdDeviation="7.5" in="shadowOffsetOuter1" result="shadowBlurOuter1"></feGaussianBlur>
            <feColorMatrix values="0 0 0 0 0   0 0 0 0 0   0 0 0 0 0  0 0 0 0.2 0" type="matrix" in="shadowBlurOuter1"></feColorMatrix>
        </filter>
    </defs>
    <g id="Trade" stroke="none" stroke-width="1" fill="none" fill-rule="evenodd">
        <g id="Group-4-Copy" transform="translate(69.666667, 66.000000)">
            <path d="M7.77601997,106.287494 C-48.1104167,231.454899 214.805042,183.781063 237.168323,218.209584 C271.118612,270.474438 173.370399,323.251986 209.191097,379.303949 C259.584655,458.15787 342.17644,383.331685 371.667676,354.201015 C401.452736,324.779135 462.73139,248.283613 423.73712,181.534773 C364.175161,79.5849501 295.710059,150.939846 234.209677,110.357612 C205.208148,91.2197178 235.908688,46.7095535 191.120913,15.6661886 C113.005865,-38.4799149 27.7465384,61.5599468 7.77601997,106.287494" id="Fill-1-Copy-2" fill="#FFFFFF"></path>
            <g id="Start-Trading" transform="translate(0.000000, 44.000000)">
                <path d="M287.478423,132.617173 C286.830208,131.124911 285.469196,129.945149 283.023065,129.263601 C276.707887,127.503185 269.894196,127.833839 263.400446,127.802292 C253.959375,127.756161 244.473065,127.842768 235.057589,128.605268 C229.907292,129.022232 220.817113,129.255863 217.677827,134.36003 C214.424256,139.650208 213.45997,146.843958 211.645089,152.728185 C210.24747,157.259435 208.825446,161.78622 207.616518,166.372827 C206.606696,170.204375 204.76622,175.166875 205.899554,179.145149 C206.818601,182.370744 217.265625,181.970446 222.284673,181.778482 C223.089435,181.747827 223.715923,181.719554 224.10997,181.724315 C227.80878,181.732351 258.895089,181.954673 260.20253,181.954673 C263.756696,181.954673 267.289732,181.769554 270.50372,180.89128 C276.179613,179.340387 278.057292,168.53622 279.615625,163.876994 C282.187946,156.188006 284.409077,148.383542 286.887649,140.663899 C287.839732,137.69872 288.434375,134.818363 287.478423,132.617173" id="Fill-1" fill="#2C303C"></path>
                <path d="M250.693393,148.55622 C254.452024,149.491637 256.739226,153.295804 255.804107,157.053244 L255.772857,157.177946 C254.837738,160.935982 251.034167,163.22378 247.275833,162.288661 C243.5175,161.352946 241.807679,157.69253 242.742798,153.934792 L242.774048,153.810089 C243.708869,150.052351 246.93506,147.620506 250.693393,148.55622" id="Fill-3" fill="#434751"></path>
                <path d="M272.836369,186.644167 C272.651845,186.665298 272.463155,186.674821 272.2825,186.706667 C271.330119,186.874226 270.272976,186.800417 269.309583,186.830179 C265.37744,186.950119 199.962857,187.48375 189.257798,187.357857 C185.135476,187.309048 179.985774,188.285536 180.315238,182.72869 C180.441726,180.592976 183.170298,180.467381 184.767619,180.42006 C189.231607,180.287619 193.695893,180.156369 198.159286,180.009345 C210.90125,179.588512 223.652143,179.379286 236.400655,179.299524 C247.009286,179.23375 257.673571,179.087917 268.27,179.702798 C269.147083,179.75369 273.122381,179.64 273.566726,180.30756 C274.009583,180.972738 274.318214,185.538214 273.673571,186.275714 C273.442619,186.539702 273.145,186.60875 272.836369,186.644167" id="Fill-5" fill="#2C303C"></path>
                <path d="M234.478095,338.524345 C234.644167,339.386845 234.998929,340.016905 235.534048,340.402619 C235.702798,340.322857 235.875119,340.250833 236.05369,340.196964 C238.558155,339.442798 241.113214,338.941905 243.681667,338.518988 C243.787024,338.477321 243.881369,338.44369 243.961429,338.420774 C244.205476,338.352024 244.617976,338.325536 245.059048,338.29875 C245.725714,338.195179 246.392679,338.094286 247.059643,337.993988 C247.218571,337.925833 247.352202,337.841607 247.446845,337.734464 C247.94744,337.167202 247.123631,332.38506 246.602202,330.012143 C246.226607,330.145179 245.838214,330.238631 245.44625,330.282083 C244.854881,330.347262 244.265595,330.429107 243.676607,330.514524 C243.607262,330.570179 243.551012,330.607679 243.517381,330.615417 C242.927798,330.74994 242.316488,330.789821 241.725417,330.828214 C241.612024,330.835655 241.497738,330.843393 241.383155,330.851726 C240.913512,330.918393 240.442976,330.978214 239.971845,331.031488 C239.950417,331.03625 239.928095,331.039226 239.906667,331.04369 C239.382262,331.16244 238.846548,331.194881 238.32869,331.226429 C237.721845,331.263631 237.09506,331.301429 236.475714,331.476726 C236.337917,331.515714 236.195952,331.482381 236.053095,331.405893 C235.889702,331.42375 235.253095,331.491012 235.164405,331.499345 C235.077798,331.517798 234.95131,331.543095 234.769464,331.577917 C234.328095,331.662143 233.895655,331.696369 233.476905,331.683274 C233.301012,333.27375 233.83494,335.636845 234.222738,337.349048 C234.326905,337.809762 234.417083,338.207381 234.478095,338.524345" id="Fill-7" fill="#F5BFA5"></path>
                <path d="M204.282262,331.676518 C203.001012,331.322649 201.731071,330.923839 200.439107,330.611042 C199.911429,330.483065 199.381071,330.384554 198.848333,330.285744 C198.814405,330.284554 198.780774,330.283363 198.737917,330.282768 C198.473036,330.280089 198.210238,330.275625 197.94506,330.281577 C197.504583,330.290804 197.084048,330.232768 196.685536,330.125625 C196.4525,330.800923 196.300714,331.543185 196.162619,332.234256 C196.091786,332.586042 196.025714,332.918185 195.952202,333.222946 L195.910536,333.393482 C195.489702,335.129792 194.85369,337.753304 197.122738,338.580982 C198.182262,338.967292 199.300417,339.165804 200.381667,339.357768 C201.075714,339.480982 201.793869,339.608065 202.484643,339.783958 C202.854286,339.878006 203.263214,340.026518 203.695952,340.183363 C204.53881,340.489018 205.407262,340.804494 206.187917,340.804494 C206.268274,340.804494 206.347738,340.800923 206.42631,340.794077 C208.406369,340.615804 208.931369,337.842292 209.155476,336.657768 C209.184048,336.507173 209.217083,336.342589 209.2525,336.166101 C209.4525,335.167292 209.713214,333.858363 209.665,332.721161 C207.841488,332.57622 206.024226,332.157768 204.282262,331.676518" id="Fill-9" fill="#F5BFA5"></path>
                <g id="Fill-11">
                    <use fill="black" fill-opacity="1" filter="url(#filter-2)" xlink:href="#path-1"></use>
                    <use fill="#4160B5" fill-rule="evenodd" xlink:href="#path-1"></use>
                </g>
                <path d="M199.885119,263.72869 C197.48244,261.383452 194.501786,259.726905 191.499107,258.224226 C184.789881,254.866786 177.76875,252.132857 170.555952,250.069464 C164.802083,248.423631 158.896429,247.192679 153.408036,244.807262 C147.919643,242.42125 142.756548,238.69625 140.042262,233.362619 C136.759524,226.912321 137.5125,219.236726 138.345833,212.04744 C138.439583,211.238512 138.529464,210.377798 138.586905,209.498929 C132.345536,208.923929 126.089286,208.403095 119.832738,208.655179 C118.679762,210.460238 118.633333,212.792679 118.706548,215.062321 C118.723512,215.578095 118.738988,216.093274 118.754167,216.609048 C118.8375,219.368869 118.923512,222.223036 119.196131,225.022143 C119.849107,231.728095 121.274702,236.84119 123.682738,241.114107 C125.98125,245.192976 129.384821,249.153095 133.525595,251.440298 C137.195833,253.467381 141.335417,254.3775 145.261012,255.135536 C148.223214,255.70756 151.241667,255.660833 154.160417,256.19119 C160.127679,257.274821 166.297917,258.395952 172.308333,259.776905 C173.64881,260.08494 175.057738,260.353393 176.549405,260.637917 C182.162202,261.708155 188.524107,262.92125 192.5125,266.715 C196.591667,270.595952 196.545536,275.100714 196.49256,280.316786 C196.48631,280.919464 196.480357,281.531369 196.480357,282.1525 C196.480357,291.298333 195.57619,303.940298 195.299405,307.596845 C195.170238,309.302202 195.008631,311.034048 194.852083,312.709345 C194.611905,315.278988 194.363988,317.936429 194.227679,320.559643 C194.206548,320.966786 194.15625,321.496548 194.098512,322.10994 C193.808333,325.173036 193.322917,330.300417 195.483631,331.67125 C196.850595,332.53881 198.380952,333.10994 199.894643,333.503095 C202.181548,316.759048 204.840774,303.614702 205.997917,281.129881 C206.329167,274.695952 204.495536,268.228095 199.885119,263.72869" id="Fill-13" fill="#000000" opacity="0.2"></path>
                <path d="M225.529464,360.968452 C219.102976,354.541667 214.86131,348.92619 211.77619,342.760714 C209.935714,339.08244 208.896131,338.810714 204.78869,338.253571 C202.110714,337.889881 199.500595,336.953869 196.97619,336.047917 C196.20119,335.770238 195.400595,335.482738 194.6125,335.217857 C193.554464,334.851786 188.846131,344.419048 188.806548,344.518155 L188.76131,344.630357 C188.259821,345.881845 187.573214,347.595536 188.227976,348.905357 C189.035714,350.520536 195.282738,354.730655 198.65506,355.241369 C199.619345,355.386905 200.31994,355.240774 200.736905,354.805357 C201.025595,354.504167 201.33244,354.003571 201.6875,353.423512 C202.495833,352.104167 203.502976,350.459821 204.647917,350.749702 C205.23244,350.896131 207.339881,354.628869 207.680655,355.492262 C207.825298,355.857738 207.960417,356.227679 208.095833,356.597619 C208.702679,358.254464 209.329762,359.96756 210.752381,361.202976 C213.646131,363.715179 218.564881,366.64881 222.903274,366.64881 C224.016071,366.64881 225.178869,365.291964 225.707738,364.015476 C226.233631,362.745238 226.167262,361.60625 225.529464,360.968452" id="Fill-15" fill="#2C303C"></path>
                <path d="M272.935774,344.54997 C272.210774,343.078839 270.63369,342.716637 269.164643,342.408601 C267.295595,342.016339 265.452143,341.582708 263.632202,340.996994 C259.809881,339.767232 256.139643,338.086875 252.625952,336.151458 C251.829226,335.713065 251.299167,334.983601 250.401845,334.772292 C249.510179,334.562768 248.490536,334.858601 247.62744,335.069018 C244.970893,335.715149 242.281905,336.209196 239.572083,336.569613 C237.571488,336.835387 235.251845,337.228244 233.367917,337.963958 C231.898274,338.53747 232.345,341.025268 232.477738,342.205327 C232.697679,344.158006 233.141131,346.071696 233.349167,348.026458 C233.685774,351.187768 233.691131,354.258006 237.54381,354.394911 C240.315238,354.493423 243.08131,354.084196 245.795,353.513958 C246.318214,353.403839 246.859286,353.279435 247.284286,352.95503 C248.300655,352.179137 247.702143,350.389554 247.698571,349.293423 C247.696786,348.756815 247.61881,346.765149 248.636667,347.044911 C250.30631,347.502946 252.004524,348.114554 253.541131,348.918125 C254.983095,349.671994 256.361071,350.98747 258.063452,351.072292 C260.552143,351.195804 263.005714,350.70622 265.448274,350.30503 C267.676845,349.938958 270.46375,350.172887 272.52119,349.178244 C274.598571,348.174375 273.751548,346.205625 272.935774,344.54997" id="Fill-17" fill="#2C303C"></path>
                <path d="M222.324554,268.971607 C222.025744,263.085893 220.392411,257.548095 217.529018,252.40256 C212.115625,242.674881 203.829911,235.469226 194.086161,230.279643 C187.569792,226.80881 180.897173,223.612381 174.296875,220.304643 C173.955208,220.133214 173.653423,220.646607 173.99628,220.818631 C179.514435,223.584107 185.043601,226.329345 190.549851,229.118929 C195.72128,231.738571 200.785268,234.56119 205.214732,238.337083 C213.609673,245.493929 220.42247,255.604345 221.562351,266.769821 C222.251042,273.512976 221.28378,280.288869 220.315327,286.954048 C220.260863,287.32875 220.834375,287.490655 220.889435,287.112381 C221.761161,281.112083 222.632887,275.051071 222.324554,268.971607" id="Fill-19" fill="#E8E6FF"></path>
                <path d="M203.782054,177.697887 C202.812708,172.613065 194.194554,127.902946 190.14872,123.857113 C186.154375,119.862173 171.26747,113.745208 167.269851,112.533304 C167.202887,112.513065 167.12997,112.54253 167.096042,112.604732 C164.500506,117.373482 159.033542,120.169911 153.800506,119.40622 C148.607649,118.648185 144.285625,115.030625 140.388601,111.234196 C140.346935,111.19372 140.285327,111.18122 140.231458,111.202054 C139.984137,111.297292 115.413601,120.841042 112.249018,125.455923 C109.326399,129.718125 104.513304,146.052054 102.640089,153.294613 C101.664792,157.066637 100.390685,163.472589 99.5427679,168.873185 C98.9234226,172.816637 97.9823512,179.735982 98.6377083,181.774375 C99.4311607,184.242232 109.006458,188.603542 119.233542,191.035387 C117.317768,204.249673 116.39872,213.280923 117.966577,213.566042 C119.326399,213.813065 131.139792,214.003244 143.969851,214.003244 C145.449613,214.003244 146.944256,214.000863 148.436518,213.995506 C156.982946,213.965149 177.025506,213.794613 178.546935,212.864851 C178.943958,212.622292 180.151994,211.884196 180.766875,181.871101 C180.981458,171.413661 181.045744,160.953839 181.065387,155.666339 C181.338006,157.392827 181.63622,159.440744 181.956161,161.63747 C183.716875,173.721696 185.083244,182.28122 186.637113,182.36247 C187.193958,182.391637 200.307946,183.036577 203.23622,179.680327 C203.739196,179.103542 203.923125,178.43628 203.782054,177.697887" id="Fill-21" fill="#97B2BC"></path>
                <path d="M177.918839,69.113006 C177.082232,72.0296726 176.611994,75.083244 176.159911,78.0475298 C175.990268,79.1487202 175.817351,80.2886012 175.627173,81.4016964 C174.986994,85.1397917 174.165863,89.098125 172.495923,92.7201488 C170.713482,96.6011012 168.237292,100.791577 163.415863,102.458244 C161.005149,103.288601 158.469137,103.71122 155.993244,103.71122 C154.484315,103.71122 152.999196,103.553482 151.57628,103.238006 C147.490268,102.333244 144.183423,99.9641964 142.008125,96.3927679 C141.261101,95.1665774 140.698304,93.9195536 140.266756,92.6516964 C139.317649,89.8838393 138.975089,87.0177679 138.639077,84.0386012 C138.234315,84.0088393 137.826577,83.9909821 137.42747,83.973125 C134.927768,83.8570536 132.344435,83.738006 130.886101,80.9016964 C129.743244,78.6814583 129.915863,75.7915774 131.30872,73.8719345 C132.019732,72.8927679 133.106042,72.1219345 134.365268,71.6990179 C135.679256,71.2573512 137.061399,71.5710417 138.440863,71.191875 C141.620625,70.3177679 143.335506,69.2037798 144.728065,66.1198512 C145.936696,63.444256 149.150982,59.0177679 151.30872,58.3272917 C153.466458,57.6368155 153.380149,59.0177679 155.132827,59.1249107 C157.978363,59.2945536 157.993839,56.0222321 161.040863,56.598125 C163.874792,57.1338393 172.073304,66.9076488 177.918839,69.113006" id="Fill-23" fill="#F5BFA5"></path>
                <path d="M185.612173,59.9492857 C185.326458,60.4463095 184.894911,60.7528571 184.329435,60.86 C183.454435,61.0266667 182.365149,60.687381 181.329435,60.1844048 C182.609196,61.5058333 183.799673,63.1635714 183.927649,64.9969048 C184.019911,66.3719048 183.499077,67.6903571 182.38003,68.9165476 C179.666935,71.8894643 174.329435,67.4132738 172.148482,65.6460119 C169.189851,63.2486905 166.41247,59.9885714 162.704732,58.7210119 C161.235089,58.218631 159.438661,58.3207143 158.338958,59.4177381 C157.701458,60.0540476 157.257708,61.0230952 156.372292,61.1882738 C155.674375,61.318631 155.002054,60.8677381 154.501756,60.3644643 C154.001458,59.8608929 153.556815,59.2644643 152.910982,58.9698214 C151.873185,58.4963095 150.611577,58.9653571 149.783006,59.7495833 C148.241339,61.2085119 147.071696,63.4358929 145.805327,65.1466071 C143.941042,67.6644643 142.51872,70.7989881 139.171399,71.682619 C137.570804,72.1055357 135.945506,71.1677381 134.365446,71.6989881 C133.106518,72.1216071 132.019911,72.8927381 131.308601,73.8719048 C129.915744,75.7915476 129.743125,78.6814286 130.885982,80.9016667 C132.344613,83.7379762 134.927649,83.8570238 137.427649,83.9730952 C137.826458,83.9909524 138.234494,84.0088095 138.638958,84.0385714 C138.975268,87.0177381 139.31753,89.8838095 140.266935,92.6516667 C140.329435,92.8332143 140.394911,93.0147619 140.460387,93.1963095 C140.448482,93.1933333 140.436577,93.187381 140.421696,93.1814286 C140.41872,93.1784524 140.412768,93.1754762 140.409792,93.1725 C138.612173,92.0742857 136.269911,89.5236905 134.663065,87.7022619 C133.710387,86.6219048 132.513958,85.937381 131.353244,85.2736905 C129.722292,84.3391667 128.037768,83.374881 126.993125,81.3183333 C125.73122,78.8302381 125.835387,76.2588095 125.936577,73.7677381 C126.020208,71.7379762 126.100268,69.8213095 125.499375,67.9314286 C125.058601,66.5504762 124.347292,65.2469048 123.659792,63.985 C122.853244,62.5088095 122.019911,60.9790476 121.594315,59.2885714 C120.50503,54.9879762 122.81753,51.1605952 125.049673,47.4611905 C126.025863,45.845119 126.948482,44.3183333 127.582708,42.7796429 C128.570506,40.374881 129.889256,38.8659524 131.61247,38.1695238 C133.109196,37.5653571 134.701458,37.6695238 136.240149,37.7707143 C137.350268,37.8421429 138.502054,37.9165476 139.576458,37.7141667 C141.528839,37.345119 143.282113,36.2945238 144.975268,35.2796429 C146.787768,34.1933333 148.659792,33.0742857 150.820506,32.7290476 C153.19253,32.3510714 155.240149,33.3867857 157.222292,34.3867857 C157.752054,34.6546429 158.302649,34.9314286 158.841339,35.1725 C161.240149,36.2439286 163.877054,36.0355952 166.427649,35.8391667 C167.576458,35.749881 168.763958,35.6546429 169.927649,35.6784524 C175.171696,35.7855952 181.451756,40.5445238 181.683601,46.5177381 C181.743125,48.0713095 180.490149,48.2409524 179.889256,48.3213095 C179.832411,48.3272619 179.763958,48.3361905 179.701458,48.3480952 C179.79372,48.4522619 179.972292,48.6278571 180.314554,48.9165476 C182.415744,50.6814286 187.573482,56.5742857 185.612173,59.9492857" id="Fill-25" fill="#59412F"></path>
                <path d="M167.374881,74.3941369 C165.73381,73.8837202 165.32756,77.5173512 166.904643,78.0087202 C167.514762,78.198006 167.9975,77.386994 168.12756,76.9310417 C168.413869,75.9301488 168.174881,74.6420536 167.374881,74.3941369" id="Fill-27" fill="#000000"></path>
                <path d="M152.444226,74.3941369 C150.803155,73.8837202 150.397202,77.5173512 151.974286,78.0087202 C152.584107,78.198006 153.066845,77.386994 153.196905,76.9310417 C153.483214,75.9301488 153.244524,74.6420536 152.444226,74.3941369" id="Fill-29" fill="#000000"></path>
                <path d="M161.498363,81.7325893 C161.328125,81.4611607 161.166815,81.2049107 161.100744,80.9400298 C160.930506,80.259375 160.971577,79.5019345 161.011458,78.769494 C161.029315,78.4462798 161.047173,78.111756 161.047173,77.786756 C161.047173,77.6224702 160.914137,77.4891369 160.749554,77.4891369 C160.585565,77.4891369 160.451935,77.6224702 160.451935,77.786756 C160.451935,78.0956845 160.435268,78.4072917 160.417113,78.7370536 C160.375149,79.5135417 160.331399,80.3168155 160.523363,81.0846726 C160.612351,81.4412202 160.806696,81.7504464 160.994494,82.049256 C161.266815,82.4822917 161.501637,82.8561012 161.391518,83.2971726 C161.322173,83.5739583 161.132887,83.8391369 160.932589,84.1197917 C160.794494,84.313244 160.651339,84.513244 160.545685,84.7251488 C160.472173,84.8721726 160.531994,85.050744 160.679018,85.124256 C160.721577,85.1456845 160.767113,85.1558036 160.811458,85.1558036 C160.920982,85.1558036 161.026042,85.0953869 161.078125,84.9912202 C161.163244,84.8212798 161.286458,84.6486607 161.417113,84.465625 C161.640923,84.1522321 161.872173,83.828125 161.968899,83.4418155 C162.140625,82.7543155 161.799554,82.2114583 161.498363,81.7325893" id="Fill-31" fill="#6D3522"></path>
                <path d="M165.481637,87.4748512 C164.406042,86.5447917 163.062292,86.9540179 161.877173,87.3150298 L161.801875,87.3379464 C161.15872,87.5334821 160.516756,87.6403274 159.894435,87.6552083 C158.984018,87.6787202 158.147113,87.5025298 157.412887,87.1352679 C156.192946,86.5260417 154.035208,86.5715774 152.973006,87.5453869 C152.322708,88.1412202 151.990863,88.9754464 152.038185,89.8936012 C152.181339,92.6715774 154.774792,94.8043155 157.263185,95.475744 C158.009018,95.6769345 158.773006,95.7748512 159.528958,95.7748512 C161.382827,95.7748512 163.188185,95.1852679 164.553958,94.0808036 C165.71378,93.143006 166.540863,91.4736607 166.56497,90.0209821 C166.581935,88.9828869 166.207232,88.1025298 165.481637,87.4748512" id="Fill-33" fill="#FFFFFF"></path>
                <path d="M149.35497,67.2816369 C148.921637,67.345625 148.494554,67.4733036 148.121042,67.6503869 C147.512411,67.9387798 147.062113,68.1834226 146.660625,68.4438393 C146.06747,68.829256 145.632946,69.2203274 145.332351,69.6399702 C145.121042,69.9352083 144.785327,70.5078274 144.914196,71.0277679 C144.981756,71.3000893 145.163899,71.511994 145.456161,71.6584226 C145.569554,71.7149702 145.683244,71.7396726 145.796935,71.7396726 C146.258244,71.7396726 146.713006,71.3304464 147.092768,70.9887798 C147.245149,70.8515774 147.389196,70.7224107 147.505268,70.6462202 C147.984435,70.3325298 148.568363,70.1813393 149.133244,70.0352083 C149.315982,69.9875893 149.497232,69.9408631 149.675804,69.8881845 C150.36003,69.6863988 151.633542,69.3108036 151.427887,68.2816369 C151.268958,67.486994 150.494851,67.1128869 149.35497,67.2816369" id="Fill-35" fill="#2C303C"></path>
                <path d="M173.55628,70.6133036 C173.314018,69.0939583 171.253006,67.9990179 170.073542,67.5915774 L169.982173,67.5600298 C169.258363,67.3079464 167.563125,66.716875 167.028304,67.338006 C166.718482,67.698125 166.582173,68.0847321 166.633958,68.4564583 C166.68753,68.8400893 166.937232,69.1888988 167.355685,69.4653869 C167.790506,69.751994 168.303899,69.8921726 168.80003,70.0272917 C168.964911,70.0722321 169.129792,70.116875 169.291101,70.166875 C169.291101,70.166875 169.402113,70.2022917 169.456875,70.220744 C169.864613,70.3603274 170.230685,70.6400893 170.618185,70.9362202 C171.173839,71.3609226 171.748542,71.7999107 172.47503,71.813006 C172.482173,71.8133036 172.489018,71.8133036 172.495863,71.8133036 C172.817292,71.8133036 173.117292,71.679375 173.322054,71.4436607 C173.521756,71.2136012 173.605089,70.9186607 173.55628,70.6133036" id="Fill-37" fill="#2C303C"></path>
                <path d="M136.009196,75.4446726 C135.67497,75.1964583 135.246994,75.1479464 134.738661,75.3003274 C134.153839,75.4750298 133.763065,76.0931845 133.639256,77.040506 C133.481815,78.2449702 133.824673,79.848244 134.58628,80.3158036 C134.804732,80.4497321 135.022589,80.516994 135.233006,80.516994 C135.402351,80.516994 135.566935,80.473244 135.722589,80.3860417 C136.364256,80.0262202 136.746101,78.9833631 136.743142,77.5964583 C136.741637,76.8625298 136.613065,75.8934821 136.009196,75.4446726" id="Fill-39" fill="#E1AE96"></path>
                <path d="M162.192708,107.660625 C162.255208,116.205268 159.478423,117.702292 153.231399,117.830268 C153.061458,117.833244 152.898065,117.833244 152.737054,117.833244 C146.817708,117.833244 146.692708,115.54753 146.567708,113.333244 C146.484375,111.815387 146.508185,105.708244 146.53497,101.127887 C148.031994,102.115982 149.72247,102.827292 151.576339,103.238006 C152.998958,103.553482 154.484375,103.71122 155.993304,103.71122 C158.049554,103.71122 160.144792,103.419554 162.174554,102.845149 C162.174554,104.151696 162.17753,105.740982 162.192708,107.660625" id="Fill-41" fill="#F5BFA5"></path>
                <path d="M146.661577,101.207173 C147.921994,102.647946 149.755625,103.942887 150.883006,104.691696 C153.700863,106.563125 157.109792,107.428006 160.483304,107.205685 C161.065446,107.167292 161.630625,107.080982 162.18747,106.965506 C162.177054,105.353601 162.174673,103.990506 162.174673,102.84497 C160.144911,103.419673 158.049673,103.711339 155.993125,103.711339 C154.484196,103.711339 152.999077,103.553304 151.576458,103.237827 C149.77378,102.83872 148.127351,102.153006 146.661577,101.207173" id="Fill-43" fill="#000000" opacity="0.1"></path>
                <path d="M184.803036,179.849524 C184.797083,179.134643 184.345,178.489702 184.285774,177.777202 C184.211369,176.881667 184.854524,175.980179 185.725357,175.759345 C186.595893,175.538512 187.591429,176.024524 187.95244,176.847143 C188.031012,175.737917 188.972083,174.751607 190.07625,174.621845 C191.180714,174.491488 192.32506,175.231964 192.658988,176.292679 C193.001548,175.243274 193.998571,174.44 195.096786,174.32869 C196.194702,174.217083 197.333095,174.803988 197.879226,175.763214 C197.631607,175.328095 198.723869,174.572143 199.024167,174.480476 C199.874762,174.220357 201.058988,174.360833 201.5575,175.180179 C202.049464,175.989107 201.83875,177.130179 201.776845,178.019762 C201.726845,178.734048 201.67506,179.457857 201.444107,180.135536 C201.213452,180.813214 200.778631,181.451607 200.13875,181.773631 C197.993512,182.85369 195.990833,182.28256 193.747083,182.391786 C190.872976,182.531964 187.979226,181.985536 185.300952,180.952202 C185.149167,180.893571 184.990536,180.828393 184.889643,180.700714 C184.788155,180.572738 184.760774,180.402798 184.736964,180.24119 C184.681905,179.865298 184.62625,179.489405 184.57119,179.113214 L184.803036,179.849524 Z" id="Fill-45" fill="#F5BFA5"></path>
                <path d="M156.217946,117.02369 C156.042054,116.828155 155.856042,116.811786 155.730446,116.832619 C155.240268,116.914167 154.674196,117.72131 154.000089,119.300179 L153.965565,119.381131 C153.17122,121.20256 152.349792,123.085595 151.938482,125.022798 C151.591458,126.65881 152.523601,128.193333 153.255149,129.205238 L153.359018,129.349583 C154.094732,130.372798 155.10247,131.773988 156.468839,131.773988 C158.067946,131.773988 160.286994,129.029345 160.949196,126.233214 C161.635804,123.334702 157.50128,118.451369 156.217946,117.02369" id="Fill-47" fill="#14605E"></path>
                <path d="M156.526607,131.486994 C156.468571,131.340863 156.357262,131.346518 156.324524,131.351875 C155.326607,131.513185 151.251607,153.368244 151.045952,156.972708 C150.772143,161.767351 155.128393,172.150387 156.636429,174.519435 C156.782857,174.749494 156.943869,174.814673 157.079583,174.814673 C157.12631,174.814673 157.169762,174.807232 157.20875,174.795625 C159.004286,174.272708 161.93256,161.216756 161.93256,156.715268 C161.93256,151.568244 158.013214,135.23878 156.526607,131.486994" id="Fill-49" fill="#14605E"></path>
                <path d="M174.959226,258.468899 C172.3,256.477827 168.59256,256.401042 165.321429,256.332887 C164.840179,256.323065 164.368155,256.313244 163.909821,256.29747 C160.53631,256.181994 157.116071,255.905506 153.808333,255.637649 C152.333036,255.518304 150.857738,255.399256 149.38125,255.292708 C138.915179,254.540327 131.644643,251.498065 127.154762,245.992708 C122.152679,239.860268 120.79256,231.391815 120.122024,223.917411 C119.347321,215.283185 120.120833,206.501935 120.869048,198.009673 C121.013988,196.362649 121.158929,194.716815 121.293452,193.07247 C121.320238,192.740625 121.370536,192.367113 121.42381,191.972173 C121.583631,190.785565 121.764881,189.440625 121.463095,188.318304 C121.250298,187.527232 120.81131,186.940625 120.15744,186.574851 C118.184524,185.47128 115.618452,186.377232 114.205952,187.790327 C112.416071,189.580506 112.254464,192.076935 112.097619,194.49122 C112.07619,194.826339 112.054762,195.158482 112.028571,195.48497 C111.008333,208.338244 109.952976,221.629315 111.592262,234.579315 C112.144048,238.939137 114.720833,253.678423 124.705952,260.312649 C131.173512,264.610268 139.535119,265.215923 146.912202,265.750149 L148.129762,265.839137 C153.541369,266.239137 159.049107,266.425446 164.375,266.606101 L166.857143,266.69122 C167.600595,266.718304 168.465476,266.749256 169.369048,266.749256 C172.204167,266.749256 175.424107,266.440923 176.494048,264.72128 C177.469048,263.154315 176.952381,259.961756 174.959226,258.468899" id="Fill-51" fill="#2C303C"></path>
                <polygon id="Fill-53" fill="#E8E2D1" points="144.782143 353.899405 147.704464 353.899405 147.704464 272.90625 144.782143 272.90625"></polygon>
                <polygon id="Fill-55" fill="#E8E2D1" points="128.388244 352.483958 164.925744 352.483958 165.007292 355.635744 128.260863 355.635744"></polygon>
                <path d="M149.460179,264.736637 C149.445298,267.160149 149.597679,269.580089 149.607202,272.003006 C149.61494,273.870268 149.716726,275.725923 149.546488,277.590804 C149.537262,277.694673 149.519107,277.811637 149.433988,277.871161 C149.378929,277.909554 149.307798,277.914315 149.241131,277.917887 C147.333095,278.016696 145.41881,277.998244 143.513155,277.862232 C143.454226,277.857768 143.392321,277.852411 143.344107,277.81878 C143.268214,277.766101 143.25006,277.664018 143.238452,277.572351 C143.047679,276.047351 142.996488,274.516696 142.972083,272.98872 C142.933095,270.539911 142.841429,268.085446 142.856607,265.636339 C142.85869,265.242292 142.877738,264.80628 142.87744,264.412232 C142.877143,264.311339 142.878929,264.204196 142.933095,264.119077 C143.014048,263.992589 143.180119,263.958065 143.328631,263.936339 C145.222679,263.658065 147.154524,263.639018 149.053631,263.880387 C149.161071,263.894077 149.278036,263.913423 149.350952,263.993482 C149.429226,264.079196 149.4325,264.206875 149.431607,264.322649 C149.429226,264.727411 149.42625,265.131875 149.423571,265.536637 L149.460179,264.736637 Z" id="Fill-56" fill="#2C303C"></path>
                <path d="M156.131042,116.692946 C156.115268,116.623006 156.053065,116.573304 155.981637,116.573304 C152.05753,116.573304 148.81378,115.001577 147.304554,112.369732 C146.293542,110.606637 146.365268,108.805744 146.364077,106.843244 C146.36378,106.326875 146.364673,105.80247 146.507827,105.306637 C144.985804,105.287292 143.855744,105.506339 142.489077,106.27628 C142.010506,106.545625 141.548006,106.843244 141.09503,107.153661 C140.002768,107.901875 138.607827,109.188185 138.167649,111.067351 C138.015268,111.716756 138.206637,112.471518 138.360804,113.078363 L138.37747,113.144435 C139.900685,119.161399 146.216458,124.244732 152.169137,124.244732 C152.253958,124.244732 152.322411,124.17628 152.322411,124.091458 C152.322411,122.419435 154.486994,117.600982 156.047113,116.86497 C156.111994,116.834315 156.146815,116.762887 156.131042,116.692946" id="Fill-57" fill="#FFECC7"></path>
                <polygon id="Fill-58" fill="#2C303C" points="99.4901786 356.984821 101.871131 356.984821 101.871131 192.735119 99.4901786 192.735119"></polygon>
                <polygon id="Fill-59" fill="#2C303C" points="333.227679 356.984821 335.608631 356.984821 335.608631 192.735119 333.227679 192.735119"></polygon>
                <path d="M337.875149,187.669583 C337.871577,187.599643 337.801339,187.544286 337.715625,187.54369 C327.965625,187.495179 98.8971726,186.371667 96.1855655,187.577917 C95.7751488,187.760655 95.5096726,188.043988 95.3962798,188.419881 C94.9986607,189.738036 96.603125,191.797857 96.9290179,192.19756 C98.2123512,193.771964 99.5078869,194.402619 101.549256,194.447262 C102.939732,194.477619 104.354613,194.47494 105.722768,194.471369 C106.417411,194.470476 283.113244,194.92375 298.228125,194.92375 C317.767113,194.92375 333.364137,194.770179 334.682292,194.23625 C338.114137,192.846667 337.886756,187.880298 337.875149,187.669583" id="Fill-60" fill="#D8D0BC"></path>
                <path d="M168.032619,108.298155 C167.340952,107.789821 166.623095,107.317798 165.904643,106.848452 C165.112083,106.33119 164.324881,105.713036 163.437976,105.365714 C163.150476,105.253214 162.584107,105.052619 162.279643,105.190119 C162.106726,105.268095 162.210893,105.598155 162.238571,105.761548 C162.2975,106.108869 162.341548,106.458571 162.369821,106.809762 C162.424881,107.49369 162.420119,108.182679 162.349881,108.865417 C162.032619,111.969286 160.384405,115.379405 157.210298,116.361548 C156.78619,116.4925 156.333512,116.567202 155.890357,116.609464 C155.884107,116.654702 155.916548,116.694881 155.947202,116.72881 C156.164464,116.971369 156.337083,117.224345 156.537083,117.475536 C156.605238,117.56125 156.668036,117.639821 156.723393,117.696667 L156.901369,117.879405 C158.669226,119.696369 159.399881,121.985357 160.524286,124.233571 C160.565655,124.31631 160.672798,124.34756 160.81119,124.34756 C161.157917,124.34756 161.701667,124.151726 161.907024,124.07256 C163.914762,123.299643 165.555238,121.37375 166.873095,119.825833 C168.485298,117.932976 169.547202,115.959464 170.028452,113.960357 C170.229643,113.125238 170.331726,112.276726 170.331726,111.43744 C170.331726,110.196071 169.350774,109.30619 168.442143,108.605893 C168.307024,108.501726 168.170417,108.399048 168.032619,108.298155" id="Fill-61" fill="#FFECC7"></path>
                <path d="M182.355238,183.332887 C185.02994,183.562946 186.715952,183.566815 186.83619,182.885565 C186.854048,182.782887 186.823988,182.679315 186.745714,182.577232 C185.746905,181.270982 174.8475,179.128125 171.1225,178.788839 C166.993036,178.41503 160.860893,180.92872 158.538571,182.205506 C156.944821,183.081994 156.911786,185.443304 156.97131,186.417411 C157.057619,187.825446 157.524881,189.432589 158.157619,189.685565 C159.238274,190.117708 164.177857,191.641815 166.585,192.309673 C167.400179,192.536161 168.54244,192.609375 169.77994,192.609375 C171.043929,192.609375 172.407024,192.532887 173.620119,192.464732 C174.848988,192.395685 175.910595,192.336161 176.471607,192.382887 C178.08619,192.520089 182.571012,191.937054 183.035893,190.775149 C183.083214,190.656994 183.071905,190.532887 183.002857,190.416815 C182.670119,189.855506 180.697202,189.392708 178.989762,189.090327 C182.023988,189.142113 186.387976,189.043304 186.492143,188.045089 C186.555536,187.439732 185.009405,186.88497 183.110595,186.434673 C185.274881,186.593601 187.305238,186.579018 187.959405,186.069196 C188.116548,185.946875 188.202857,185.798065 188.215952,185.627232 C188.294524,184.595387 185.284702,183.831101 182.355238,183.332887" id="Fill-62" fill="#F5BFA5"></path>
                <path d="M159.843155,179.477768 C158.810714,178.077768 151.775893,177.691161 145.569048,177.350089 C142.852381,177.200685 140.28631,177.059613 138.604167,176.849196 C133.026488,176.150982 123.299405,173.068542 122.645833,172.860208 L100.680655,165.020625 C100.642857,164.983125 100.73244,165.006637 100.680655,165.020625 C100.629167,165.034911 100.694048,164.968839 100.680655,165.020625 C98.9392857,171.753958 97.4973214,178.227173 98.6377976,181.774494 C99.7797619,185.325982 119.109226,192.800387 132.396131,192.800387 C140.88006,192.800387 148.051786,193.099494 152.33631,193.278065 C154.311012,193.360506 155.758631,193.42122 156.549107,193.42122 C156.763393,193.42122 156.929762,193.416458 157.04494,193.406935 C158.0875,193.319732 158.658631,189.512887 159.351488,184.144435 C159.582143,182.356637 159.781548,180.812589 159.968155,180.065565 C160.020238,179.858125 159.977976,179.660506 159.843155,179.477768" id="Fill-63" fill="#97B2BC"></path>
                <path d="M159.844881,178.955208 C153.506488,178.054315 147.167798,177.153125 140.829405,176.252232 C134.826429,175.398958 128.695179,174.795387 122.884167,172.989435 C124.874048,166.013839 126.79994,159.020089 128.660655,152.008482 C128.758869,151.637649 128.184762,151.479613 128.086548,151.850149 C127.122857,155.480506 123.074345,170.140923 122.805595,171.088542 C122.650833,171.634375 122.136845,172.530506 122.335655,173.109375 C122.56631,173.781994 123.56244,173.820685 124.248452,174.009077 C126.052917,174.504315 127.884167,174.89628 129.725238,175.229018 C133.355,175.885863 137.021071,176.307589 140.671369,176.826339 C147.009762,177.727232 153.348155,178.628125 159.686845,179.529315 C160.061548,179.582292 160.223155,179.009077 159.844881,178.955208" id="Fill-64" fill-opacity="0.3" fill="#2C303C"></path>
                <path d="M158.398065,188.154077 C157.962054,190.960327 157.169196,193.154375 153.938839,193.340685 C151.459673,193.483542 148.934077,193.375208 146.453125,193.315982 C144.366518,193.265982 142.280506,193.179673 140.196875,193.058542 C132.292708,192.599911 124.33497,191.721637 116.698363,189.530863 C116.329018,189.425208 116.171577,189.999018 116.539732,190.10497 C118.961756,190.799911 121.418899,191.371042 123.898661,191.81628 C131.764732,193.22878 139.784375,193.802589 147.774851,193.937708 C148.306101,193.946637 148.837351,193.953185 149.368304,193.957649 C151.579911,193.975804 154.836161,194.541875 156.77753,193.185327 C158.32247,192.105268 158.703125,190.043958 158.972173,188.312113 C159.030506,187.937411 158.456696,187.775804 158.398065,188.154077" id="Fill-65" fill="#2C303C" opacity="0.3"></path>
                <path d="M181.981161,157.012768 C181.59247,155.370506 181.20378,153.728542 180.815089,152.08628 C180.745149,151.790446 180.251399,151.846994 180.275804,152.159196 C180.399018,153.735387 180.522232,155.311577 180.645149,156.887768 C180.67253,157.237768 181.221637,157.240744 181.193958,156.887768 C181.162411,156.48122 181.130863,156.074375 181.09872,155.667232 C181.216577,156.164256 181.334137,156.661577 181.451994,157.158601 C181.533244,157.502351 182.062708,157.356815 181.981161,157.012768" id="Fill-66" fill="#2C303C" opacity="0.3"></path>
                <path d="M186.351875,183.085238 C184.210208,183.406369 182.057232,183.280179 179.96497,182.720357 C179.779851,182.670952 179.700685,182.957857 179.885804,183.00756 C182.031935,183.581964 184.234315,183.701607 186.431339,183.372143 C186.619732,183.343869 186.539673,183.056964 186.351875,183.085238" id="Fill-67" fill="#E6885C"></path>
                <path d="M187.552827,185.966994 C185.368601,186.406577 183.157292,186.353006 180.995982,185.812232 C180.80997,185.765804 180.730804,186.052708 180.916518,186.099137 C183.128423,186.652708 185.396875,186.703899 187.631994,186.253899 C187.819494,186.216399 187.740327,185.929196 187.552827,185.966994" id="Fill-68" fill="#E6885C"></path>
                <path d="M185.261667,188.529286 C182.796786,188.874821 180.285179,189.192381 177.845893,188.517083 C177.661071,188.465893 177.582202,188.753095 177.766726,188.804286 C180.25869,189.493869 182.821786,189.169167 185.340833,188.816488 C185.529524,188.79 185.449464,188.503095 185.261667,188.529286" id="Fill-69" fill="#E6885C"></path>
                <path d="M333.923839,136.860268 C333.667589,134.219792 332.805982,132.73497 331.363423,132.44628 C328.855387,131.945685 326.55122,135.761458 325.444077,137.595982 L325.348839,137.753125 C324.284851,139.512649 323.397649,141.399851 322.539911,143.224851 C322.249137,143.843601 321.958958,144.462054 321.661042,145.076637 C319.544077,149.447173 319.313125,152.719494 320.974137,154.801935 L321.013125,154.849851 C321.598542,155.563542 322.320268,155.95372 323.158661,156.009077 C323.226518,156.013542 323.294673,156.015923 323.364018,156.015923 C324.475923,156.015923 325.727708,155.436756 326.832768,154.403423 C328.155685,153.167113 328.716994,151.683185 329.311339,150.112649 C329.60628,149.332887 329.911339,148.526637 330.318482,147.755506 C330.67503,147.079315 331.106875,146.436458 331.524732,145.81503 C332.160446,144.868601 332.818185,143.889732 333.230685,142.767411 C333.886042,140.983185 334.125923,138.940327 333.923839,136.860268" id="Fill-70" fill="#388E8D"></path>
                <path d="M319.183274,133.621488 C319.012738,131.624762 318.835655,129.560179 318.938929,127.511369 L318.948155,127.330417 C319.077024,124.790833 319.21006,122.164643 318.266905,119.777738 C317.757679,118.488155 316.599048,116.766429 315.010952,116.15869 C314.171667,115.837262 313.33625,115.878929 312.529107,116.282798 C311.113333,116.98994 310.235952,118.479226 309.461845,119.793214 L309.313631,120.044405 C308.377024,121.624167 307.583571,123.265833 306.954107,124.923571 C305.506786,128.738452 305.000536,132.350357 305.44994,135.658988 C305.801429,138.247976 306.699643,140.81494 307.914226,142.702143 C309.483274,145.139048 311.582381,146.492619 313.984762,146.615833 C314.057083,146.619405 314.129107,146.621488 314.200833,146.621488 C315.050238,146.621488 315.835952,146.359583 316.539524,145.842024 C318.557083,144.355417 319.511548,141.807202 319.457083,138.050357 C319.435655,136.565833 319.307381,135.069107 319.183274,133.621488" id="Fill-71" fill="#388E8D"></path>
                <path d="M302.625595,139.124256 C301.429464,138.523661 300.084821,138.453423 298.838393,138.926042 C297.542857,139.417113 296.497917,140.453125 295.971726,141.767708 C294.718155,144.898363 294.897619,148.188244 296.491369,151.281101 C298.365774,154.920387 301.13631,159.011161 304.115774,159.011161 C304.440476,159.011161 304.76756,158.962649 305.096429,158.859673 C305.473512,158.74122 305.808333,158.513839 306.091369,158.18378 C307.48869,156.55253 307.540476,154.264435 307.581548,152.425446 C307.63244,150.174256 307.627381,147.568899 306.918155,145.142708 C306.424405,143.451935 305.210417,140.421875 302.625595,139.124256" id="Fill-72" fill="#388E8D"></path>
                <path d="M326.044494,146.383363 C325.902827,146.312827 325.731696,146.369673 325.660863,146.511042 C325.240625,147.351815 324.883482,148.236339 324.537946,149.091399 C323.829018,150.846458 323.095982,152.661637 321.797173,154.104196 C320.610565,155.422649 319.066518,156.55122 316.937649,157.655982 C316.645685,157.80747 316.331696,157.955089 315.999256,158.111339 C314.967113,158.596756 313.788839,159.154792 312.995387,160.011637 C313.091518,159.483661 313.426935,157.748542 313.426935,157.748542 C313.926042,155.142292 314.405208,152.044375 314.173958,148.828006 C314.033185,146.861042 313.482887,144.965804 312.950744,143.132768 C312.443601,141.385446 311.918899,139.578601 311.765327,137.742887 C311.655506,136.427411 311.716518,135.077113 311.775744,133.771161 C311.811161,132.989018 311.847768,132.179792 311.847768,131.381875 C311.847768,131.224137 311.719792,131.096161 311.562054,131.096161 C311.404018,131.096161 311.276042,131.224137 311.276042,131.381875 C311.276042,132.166696 311.239732,132.969375 311.204613,133.745565 C311.144792,135.069375 311.082887,136.438423 311.195982,137.790506 C311.354018,139.683065 311.886756,141.517589 312.401637,143.292292 C312.925446,145.096756 313.467113,146.96253 313.604018,148.869077 C313.830208,152.019375 313.357589,155.071161 312.865625,157.640804 L312.732887,158.32622 C312.523363,159.408661 312.311161,160.504494 312.15253,161.608661 C312.124554,161.745863 312.105506,161.88872 312.094792,162.036637 C311.967411,163.014911 311.887351,163.998839 311.894494,164.985149 C311.22872,164.050327 310.233482,163.262232 309.362054,162.574732 C309.16622,162.420565 308.978125,162.272351 308.804018,162.129792 C306.801042,160.491399 305.353423,158.862827 304.37872,157.149732 C302.930804,154.605089 302.450446,152.643185 302.989435,151.47622 C303.055506,151.332768 302.993006,151.163125 302.849554,151.096756 C302.705804,151.030387 302.536458,151.093482 302.470089,151.236637 C301.687351,152.931577 302.805804,155.541399 303.881696,157.43247 C304.892113,159.207768 306.383482,160.88872 308.442113,162.572351 C308.618601,162.716696 308.809375,162.867292 309.008185,163.023839 C310.175149,163.944375 311.581696,165.05747 311.971577,166.400327 C312.000446,166.687827 312.035565,166.97503 312.083482,167.26253 C312.106399,167.402411 312.22753,167.501518 312.36503,167.501518 C312.380506,167.501518 312.39628,167.50003 312.412054,167.497351 C312.568006,167.471458 312.673065,167.324435 312.647173,167.16878 C312.645982,167.161935 312.645387,167.155387 312.644494,167.148542 C312.645685,167.137232 312.651042,167.127113 312.651042,167.115208 C312.651042,166.827708 312.607292,166.552708 312.534673,166.286637 C312.410863,165.00003 312.470982,163.705089 312.624256,162.414911 C312.640923,162.378899 312.651042,162.339315 312.651042,162.297351 C312.651042,162.230089 312.658482,162.166994 312.662946,162.102411 C312.679613,161.974435 312.69628,161.846161 312.714732,161.718185 C313.048661,160.135149 314.73378,159.338125 316.242708,158.628899 C316.580208,158.46997 316.898958,158.31997 317.201339,158.163423 C319.392708,157.02622 320.987946,155.857768 322.221875,154.486935 C323.588244,152.969375 324.340327,151.106577 325.068304,149.305387 C325.409077,148.460446 325.762054,147.586935 326.17247,146.766696 C326.243006,146.625327 326.185863,146.453899 326.044494,146.383363" id="Fill-73" fill="#2C303C"></path>
                <path d="M325.550685,168.96375 C325.525089,169.217917 325.484911,169.472381 325.442054,169.718214 C325.416458,169.866726 325.079256,171.549762 325.044732,171.693512 C324.757232,172.88875 324.413185,174.082798 324.056042,175.240536 C323.88997,175.778036 323.724196,176.315238 323.57003,176.849762 C322.829554,179.405119 321.783423,182.766429 320.277173,186.0825 C319.828065,187.068214 319.382232,187.139643 318.496518,187.282798 L318.390565,187.299762 C317.07003,187.514345 315.652173,187.631607 313.791458,187.682798 C313.294137,187.697083 312.816756,187.703036 312.359613,187.703036 C311.050387,187.703036 309.88997,187.645595 308.789673,187.531607 C308.649494,187.514345 308.503661,187.502738 308.355149,187.488452 C307.828958,187.442917 307.231637,187.391429 306.73997,187.234286 C306.25128,187.079821 305.862589,186.753929 305.516756,186.21375 C305.331042,185.922083 305.176577,185.596488 305.019435,185.261964 C303.026875,180.954226 301.820923,176.286667 300.754851,171.678929 C300.725982,171.558988 300.254554,169.503631 300.223006,169.361071 C300.103065,168.834881 299.980149,168.292024 300.00872,167.731607 C300.105744,165.856905 302.038185,165.739345 303.453065,165.653631 C303.647113,165.642321 303.83878,165.631012 304.018839,165.616429 C306.053958,165.442321 308.09503,165.413452 309.646815,165.405119 C312.099494,165.393512 314.543244,165.459583 317.250089,165.539345 C317.787589,165.556607 318.330446,165.562262 318.87628,165.570893 C320.620327,165.590833 322.420625,165.61375 324.147113,165.945 C324.470327,166.008095 324.80753,166.091131 325.047708,166.33994 C325.622113,166.934286 325.66497,167.9575 325.550685,168.96375" id="Fill-74" fill="#FDBE31"></path>
                <path d="M325.550685,168.96375 C325.525089,169.217917 325.484911,169.472381 325.442054,169.718214 L324.507232,168.33756 L323.106935,171.050357 C323.064077,171.133095 322.981042,171.184583 322.886696,171.18756 C322.803958,171.190238 322.709613,171.147381 322.657827,171.067321 L320.894435,168.260476 L318.430446,170.990238 C318.37628,171.050357 318.29622,171.081607 318.216161,171.073274 C318.133423,171.064643 318.061994,171.01881 318.018839,170.947381 L316.435506,168.27744 L314.154554,170.981607 C314.103065,171.044405 314.025685,171.074464 313.945923,171.073274 C313.865565,171.071786 313.791458,171.030119 313.745923,170.964643 L311.867649,168.243214 L309.161101,171.1075 C309.106637,171.164643 309.029554,171.193214 308.949494,171.18756 C308.872411,171.181607 308.800982,171.136071 308.757827,171.070298 L306.962887,168.280417 L304.556339,171.399167 C304.504851,171.461964 304.43878,171.499167 304.347708,171.499167 C304.267649,171.499167 304.193244,171.458988 304.144732,171.39619 L301.855149,168.292024 L300.483125,170.501548 C300.428958,170.261369 300.374494,170.024167 300.320327,169.786964 L301.617946,167.700357 C301.660506,167.625952 301.740863,167.580417 301.826577,167.57744 C301.912292,167.574464 301.992351,167.614643 302.040863,167.683095 L304.356042,170.815833 L306.777173,167.67744 C306.828661,167.611667 306.911399,167.574464 306.991756,167.57744 C307.07747,167.580417 307.151577,167.625952 307.197411,167.694405 L309.012589,170.515833 L311.710506,167.657202 C311.76497,167.603036 311.842054,167.571488 311.919137,167.57744 C311.996518,167.583095 312.06497,167.625952 312.110804,167.68875 L313.977173,170.392917 L316.275387,167.66881 C316.329851,167.606012 316.412887,167.57 316.495327,167.57744 C316.578661,167.584583 316.652768,167.631607 316.695625,167.703333 L318.284911,170.383988 L320.742946,167.663155 C320.797113,167.603036 320.874494,167.57 320.954554,167.57744 C321.034613,167.584583 321.10872,167.628929 321.151875,167.697381 L322.855149,170.412857 L324.250089,167.717619 C324.290268,167.637262 324.373006,167.583095 324.461696,167.57744 C324.553065,167.571488 324.639077,167.614643 324.690268,167.691726 L325.550685,168.96375 Z" id="Fill-75" fill="#FFE1AB"></path>
                <path d="M306.128423,171.267381 L306.825744,169.975417 L307.585863,171.267381 L306.128423,171.267381 Z M308.14628,171.373036 L307.002827,169.429583 C306.962946,169.36381 306.897173,169.32244 306.814435,169.323929 C306.737054,169.325417 306.665923,169.369464 306.62872,169.435238 L305.579315,171.378988 C305.545089,171.44744 305.546875,171.526607 305.585268,171.590595 C305.624256,171.655179 305.693899,171.695952 305.768304,171.695952 L307.960565,171.695952 C308.037649,171.695952 308.109077,171.656369 308.14628,171.587619 C308.183482,171.521845 308.183482,171.43881 308.14628,171.373036 L308.14628,171.373036 Z" id="Fill-76" fill="#FFE1AB"></path>
                <path d="M300.754732,171.678929 C300.777351,171.690536 300.800268,171.69619 300.826161,171.69619 L303.018423,171.69619 C303.095506,171.69619 303.166637,171.656012 303.204137,171.58756 C303.241042,171.521488 303.241339,171.43875 303.201458,171.373274 L302.058006,169.429524 C302.020804,169.364048 301.935089,169.322679 301.869315,169.323869 C301.792232,169.325357 301.72378,169.369405 301.686577,169.438155 L300.669018,171.321786 L300.754732,171.678929 Z M301.18628,171.267321 L301.883601,169.975357 L302.644018,171.267321 L301.18628,171.267321 Z" id="Fill-77" fill="#FFE1AB"></path>
                <path d="M310.967649,171.267381 L311.670625,169.975417 L312.425089,171.267381 L310.967649,171.267381 Z M312.982827,171.381964 L311.850685,169.429583 C311.813482,169.36381 311.740863,169.323929 311.663482,169.323929 C311.586399,169.323929 311.513482,169.366488 311.47628,169.435238 L310.418542,171.373036 C310.381339,171.43881 310.381339,171.519167 310.421518,171.584643 C310.45872,171.650417 310.530149,171.695952 310.604256,171.695952 L312.796815,171.695952 C312.873899,171.695952 312.945625,171.661726 312.982827,171.595952 C313.022411,171.530476 313.022411,171.44744 312.982827,171.381964 L312.982827,171.381964 Z" id="Fill-78" fill="#FFE1AB"></path>
                <path d="M315.426429,171.267381 L316.129702,169.975417 L316.884167,171.267381 L315.426429,171.267381 Z M317.441607,171.381964 L316.309762,169.429583 C316.27256,169.36381 316.198452,169.329286 316.124048,169.323929 C316.046667,169.323929 315.975536,169.366488 315.938333,169.435238 L314.877619,171.373036 C314.840417,171.43881 314.843393,171.519167 314.880595,171.584643 C314.920774,171.650417 314.989226,171.695952 315.06631,171.695952 L317.258571,171.695952 C317.332976,171.695952 317.404405,171.661726 317.441607,171.595952 C317.481488,171.530476 317.481488,171.44744 317.441607,171.381964 L317.441607,171.381964 Z" id="Fill-79" fill="#FFE1AB"></path>
                <path d="M319.942738,171.267381 L320.645714,169.975417 L321.400179,171.267381 L319.942738,171.267381 Z M321.957917,171.381964 L320.826071,169.429583 C320.788869,169.36381 320.715952,169.323929 320.638571,169.323929 C320.561488,169.323929 320.488571,169.366488 320.454345,169.435238 L319.393929,171.373036 C319.356726,171.43881 319.359702,171.519167 319.396607,171.584643 C319.43381,171.650417 319.505238,171.695952 319.579643,171.695952 L321.771905,171.695952 C321.849286,171.695952 321.920714,171.661726 321.957917,171.595952 C321.997798,171.530476 321.997798,171.44744 321.957917,171.381964 L321.957917,171.381964 Z" id="Fill-80" fill="#FFE1AB"></path>
                <path d="M324.941786,169.429643 C324.904881,169.363869 324.833452,169.323988 324.756071,169.323988 C324.678988,169.323988 324.604583,169.366548 324.567381,169.435298 L323.509643,171.373095 C323.47244,171.438869 323.47244,171.519226 323.512619,171.584702 C323.549821,171.650476 323.62125,171.693333 323.695655,171.693333 L325.044762,171.693333 C325.081964,171.550476 325.110536,171.40881 325.139107,171.265952 L324.055774,171.265952 L324.762024,169.975476 L325.233155,170.787381 C325.247738,170.718631 325.333452,170.298393 325.362024,170.152857 L324.941786,169.429643 Z" id="Fill-81" fill="#FFE1AB"></path>
                <path d="M195.088899,52.2460714 C192.656756,52.2460714 190.678185,54.2249405 190.678185,56.6570833 C190.678185,59.0892262 192.656756,61.0680952 195.088899,61.0680952 C197.521042,61.0680952 199.499613,59.0892262 199.499613,56.6570833 C199.499613,54.2249405 197.521042,52.2460714 195.088899,52.2460714" id="Fill-82" fill="#E9ECF3"></path>
                <path d="M205.931369,43.3895833 C203.499226,43.3895833 201.520357,45.3684524 201.520357,47.8005952 C201.520357,50.2327381 203.499226,52.2116071 205.931369,52.2116071 C208.363512,52.2116071 210.342083,50.2327381 210.342083,47.8005952 C210.342083,45.3684524 208.363512,43.3895833 205.931369,43.3895833" id="Fill-83" fill="#E9ECF3"></path>
                <path d="M325.427738,38.6718452 C325.033393,29.1450595 323.253036,15.68375 312.397976,8.80190476 C303.240536,2.99654762 290.800952,0.11827381 274.367619,0.0025 C264.335774,-0.0739880952 254.185476,1.38702381 245.047083,4.21083333 C235.736964,7.08761905 228.602738,11.5248214 223.84381,17.3992262 C214.922976,28.4099405 215.860179,43.5757143 218.217321,54.3590476 C220.194702,63.4075595 223.940833,76.3370238 233.598274,84.1197619 C244.448571,92.8632143 259.472976,93.0257143 272.728631,93.168869 C272.728631,93.168869 275.392917,93.19625 276.01881,93.19625 C286.604226,93.19625 301.109881,92.0304762 312.207798,84.0700595 C326.872381,73.5510119 326.03756,53.3914881 325.427738,38.6718452" id="Fill-84" fill="#E9ECF3"></path>
                <path d="M217.968584,373.7918 C97.5877892,373.7918 -3.90798505e-13,368.093267 -3.90798505e-13,361.062566 C-3.90798505e-13,354.03299 97.5877892,348.333333 217.968584,348.333333 C338.349379,348.333333 435.937168,354.03299 435.937168,361.062566 C435.937168,368.093267 338.349379,373.7918 217.968584,373.7918 Z" id="Fill-1" fill-opacity="0.05" fill="#000000"></path>
            </g>
        </g>
    </g>
</svg>