<?xml version="1.0" encoding="UTF-8"?>
<svg width="560px" height="268px" viewBox="0 0 560 268" version="1.1" xmlns="http://www.w3.org/2000/svg" xmlns:xlink="http://www.w3.org/1999/xlink">
    <!-- Generator: Sketch 63.1 (92452) - https://sketch.com -->
    <title>13</title>
    <desc>Created with Sketch.</desc>
    <defs>
        <rect id="path-1" x="0" y="0" width="560" height="268"></rect>
    </defs>
    <g id="Page-1" stroke="none" stroke-width="1" fill="none" fill-rule="evenodd">
        <g id="13">
            <mask id="mask-2" fill="white">
                <use xlink:href="#path-1"></use>
            </mask>
            <use id="Mask" fill="#ADCA8E" xlink:href="#path-1"></use>
            <g id="17" mask="url(#mask-2)">
                <g transform="translate(121.000000, 20.000000)">
                    <polygon id="Path" stroke="none" fill="#FFDC4D" fill-rule="nonzero" points="183.744 134.936 76.56 134.936 76.56 201.552 183.744 201.552"></polygon>
                    <polyline id="Path" stroke="#000000" stroke-width="1.056" fill="none" points="153.65768 174.30016 167.31704 174.30016 192.20168 173.414 192.20168 65.856 67.825736 65.856 63.8 177.99 106.093592 176.48256"></polyline>
                    <path d="M188.408,106.479 L135.828,106.479 M188.408,99.131 L146.432,99.131 L188.408,99.131 Z" id="Shape" stroke="#000000" stroke-width="1.056" fill="none" stroke-linecap="round"></path>
                    <path d="M245.67664,68.354408 C245.67664,69.73416 245.366,72.426432 243.98616,72.426432 C242.60632,72.426432 240.68,69.73416 240.68,68.354408 C240.68,66.974568 241.79848,65.856 243.17832,65.856 C244.55816,65.856 245.67664,66.974568 245.67664,68.354408 Z" id="Path" stroke="none" fill="#000000" fill-rule="nonzero"></path>
                    <path d="M252.64008,68.354408 C252.64008,69.73416 252.32856,72.426432 250.9496,72.426432 C249.56976,72.426432 247.64344,69.73416 247.64344,68.354408 C247.64344,66.974568 248.76192,65.856 250.14176,65.856 C251.5216,65.856 252.64008,66.974568 252.64008,68.354408 Z" id="Path" stroke="none" fill="#000000" fill-rule="nonzero"></path>
                    <path d="M259.59208,68.354408 C259.59208,69.73416 259.28056,72.426432 257.9016,72.426432 C256.52176,72.426432 254.59544,69.73416 254.59544,68.354408 C254.59544,66.974568 255.71392,65.856 257.09376,65.856 C258.4736,65.856 259.59208,66.974568 259.59208,68.354408 Z" id="Path" stroke="none" fill="#000000" fill-rule="nonzero"></path>
                    <path d="M96.316,86.712 C99.839608,86.712 102.696,83.638864 102.696,79.848 C102.696,76.057136 99.839608,72.984 96.316,72.984 C92.792392,72.984 89.936,76.057136 89.936,79.848 C89.936,83.638864 92.792392,86.712 96.316,86.712 Z" id="Path" stroke="none" fill="#000000" fill-rule="nonzero"></path>
                    <path d="M112.728,86.712 C116.22732,86.712 119.064,83.638864 119.064,79.848 C119.064,76.057136 116.22732,72.984 112.728,72.984 C109.22868,72.984 106.392,76.057136 106.392,79.848 C106.392,83.638864 109.22868,86.712 112.728,86.712 Z" id="Path" stroke="none" fill="#000000" fill-rule="nonzero"></path>
                    <polygon id="Path" stroke="none" fill="#FFDC4D" fill-rule="nonzero" points="220.3112 7.10542736e-15 223.05064 6.93924 232.6224 2.332 226.4668 11.222992 234.3912 15.438016 225.248 16.56468 225.79008 24.005432 220.3112 18.942 212.7432 25.872 215.37528 16.56468 208 15.438016 214.1556 11.222992 211.5992 5.28 217.57176 6.93924"></polygon>
                    <polygon id="Path" stroke="none" fill="#FFDC4D" fill-rule="nonzero" points="283.20232 40 283.91424 41.793792 286.40376 40.6028 284.80304 42.901184 286.864 43.9908 284.48624 44.281992 284.62704 46.205496 283.20232 44.896584 281.23376 46.688 281.9184 44.281992 280 43.9908 281.60072 42.901184 280.93632 41.36488 282.48952 41.793792"></polygon>
                    <path d="M36.428,114.58864 C20.052784,103.28944 9.013008,115.89368 5.54,123.60864 C9.566176,126.07176 18.517008,130.49288 25.34,127.64168 C32.162992,124.79048 35.844032,117.68272 36.428,114.58864 Z" id="Path" stroke="none" fill="#D1EAFF" fill-rule="nonzero"></path>
                    <path d="M21.996,126.664 C26.15136,126.664 29.52,123.29536 29.52,119.14 C29.52,114.98464 26.15136,111.616 21.996,111.616 C17.84064,111.616 14.472,114.98464 14.472,119.14 C14.472,123.29536 17.84064,126.664 21.996,126.664 Z" id="Path" stroke="none" fill="#000000" fill-rule="nonzero"></path>
                    <line x1="5.76" y1="121.04168" x2="0.744" y2="118.26968" id="Path" stroke="#000000" stroke-width="1.056" fill="none" stroke-linecap="round"></line>
                    <line x1="9.32708" y1="115.84176" x2="4.903848" y2="112.19768" id="Path" stroke="#000000" stroke-width="1.056" fill="none" stroke-linecap="round"></line>
                    <line x1="15.248776" y1="111.33176" x2="11.937688" y2="106.65368" id="Path" stroke="#000000" stroke-width="1.056" fill="none" stroke-linecap="round"></line>
                    <line x1="22.359176" y1="109.04288" x2="21.756024" y2="103.344" id="Path" stroke="#000000" stroke-width="1.056" fill="none" stroke-linecap="round"></line>
                    <line x1="30.886552" y1="110.11824" x2="32.537432" y2="104.62968" id="Path" stroke="#000000" stroke-width="1.056" fill="none" stroke-linecap="round"></line>
                    <line x1="36.428" y1="112.97472" x2="39.580952" y2="108.18928" id="Path" stroke="#000000" stroke-width="1.056" fill="none" stroke-linecap="round"></line>
                    <path d="M308.25216,198.64216 C303.9076,185.57416 292.55472,187.94136 287.4208,190.75912 C288.62024,193.79864 291.72576,199.97096 296.68456,201.23728 C301.64424,202.50448 306.64,200.10912 308.25216,198.64216 Z" id="Path" stroke="none" fill="#D1EAFF" fill-rule="nonzero"></path>
                    <path d="M295.244,199.30392 C297.5408,201.03488 300.80648,200.5764 302.53744,198.2796 C304.2684,195.9828 303.80992,192.71712 301.51312,190.98616 C299.21632,189.2552 295.95064,189.71368 294.21968,192.01048 C292.48872,194.30728 292.9472,197.57296 295.244,199.30392 Z" id="Path" stroke="none" fill="#000000" fill-rule="nonzero"></path>
                    <line x1="288.61144" y1="189.43208" x2="286.994" y2="185.81" id="Path" stroke="#000000" stroke-width="1.056" fill="none" stroke-linecap="round"></line>
                    <line x1="292.75008" y1="188.04432" x2="291.82344" y2="184.18728" id="Path" stroke="#000000" stroke-width="1.056" fill="none" stroke-linecap="round"></line>
                    <line x1="297.90248" y1="188.01792" x2="298.0204" y2="184.05264" id="Path" stroke="#000000" stroke-width="1.056" fill="none" stroke-linecap="round"></line>
                    <line x1="302.7856" y1="189.71544" x2="304.8272" y2="186.31424" id="Path" stroke="#000000" stroke-width="1.056" fill="none" stroke-linecap="round"></line>
                    <line x1="307.05184" y1="193.862" x2="310.25064" y2="191.5168" id="Path" stroke="#000000" stroke-width="1.056" fill="none" stroke-linecap="round"></line>
                    <line x1="308.92448" y1="197.74984" x2="312.66096" y2="196.4184" id="Path" stroke="#000000" stroke-width="1.056" fill="none" stroke-linecap="round"></line>
                    <path d="M82.617888,35.154384 C76.331168,25.868184 67.95304,30.227616 64.549904,33.568096 C66.159952,35.686256 69.955656,39.840384 74.122544,39.7398 C78.28952,39.639304 81.677784,36.660064 82.617888,35.154384 Z" id="Path" stroke="none" fill="#D1EAFF" fill-rule="nonzero"></path>
                    <path d="M72.566616,38.54168 C74.748928,39.392376 77.207648,38.31288 78.058344,36.130568 C78.90904,33.948256 77.829544,31.489536 75.647232,30.638928 C73.46492,29.788232 71.0062,30.867728 70.155504,33.05004 C69.304808,35.232352 70.384304,37.691072 72.566616,38.54168 Z" id="Path" stroke="none" fill="#000000" fill-rule="nonzero"></path>
                    <line x1="65.190896" y1="32.265344" x2="63.12404" y2="29.782688" id="Path" stroke="#000000" stroke-width="1.056" fill="none" stroke-linecap="round"></line>
                    <line x1="68.128688" y1="30.264752" x2="66.551728" y2="27.445496" id="Path" stroke="#000000" stroke-width="1.056" fill="none" stroke-linecap="round"></line>
                    <line x1="72.161816" y1="29.108256" x2="71.380552" y2="25.973784" id="Path" stroke="#000000" stroke-width="1.056" fill="none" stroke-linecap="round"></line>
                    <line x1="76.364784" y1="29.362048" x2="77.214776" y2="26.245528" id="Path" stroke="#000000" stroke-width="1.056" fill="none" stroke-linecap="round"></line>
                    <line x1="80.623016" y1="31.672224" x2="82.613488" y2="29.127968" id="Path" stroke="#000000" stroke-width="1.056" fill="none" stroke-linecap="round"></line>
                    <line x1="82.94824" y1="34.306944" x2="85.58384" y2="32.439056" id="Path" stroke="#000000" stroke-width="1.056" fill="none" stroke-linecap="round"></line>
                    <path d="M110.220088,239.172 L122.5444,216.82 L107.892928,206.92 L101.376088,218.58 C101.214696,220.00296 100.681944,224.1064 102.300088,229.184 C103.576088,233.188 107.697392,237.96904 110.220088,239.172 Z" id="Path" stroke="none" fill="#EEB594" fill-rule="nonzero"></path>
                    <path d="M115.32532,77.428088 C117.75456,80.983288 117.5108,88.472088 117.08532,91.772 C109.73732,92.784 94.41652,94.5 91.91732,93.268 C89.41812,92.036 90.875928,89.792 91.91732,88.824 C91.00212,88.542488 90.040016,87.826696 89.67332,87.504088 C88.37092,85.532888 90.216016,84.189392 91.30132,83.764088 C87.53492,81.264888 89.731928,79.144088 91.30132,78.396088 C88.30932,76.037688 90.46532,74.216088 91.91732,73.600088 L97.59332,73.600088 C93.23732,68.804088 94.46932,66.208088 96.00932,65.856088 C97.54932,65.504088 112.28932,72.984088 115.32532,77.428088 Z" id="Path" stroke="none" fill="#EEB594" fill-rule="nonzero"></path>
                    <path d="M98.033408,88.493648 C99.045408,89.07304 100.814208,90.5664 99.793408,91.904 M92.313408,78.572088 C93.590464,78.834064 96.076288,79.052128 98.033408,78.4356 L92.313408,78.572088 Z M98.517408,74.348088 C99.720104,74.670696 101.659008,75.747288 99.793408,77.472088 C99.316184,77.913232 98.70608,78.223696 98.033408,78.4356 L98.517408,74.348088 Z M92.313408,83.808088 C94.161408,84.086696 98.244608,84.380088 99.793408,83.324088 C101.729408,82.004088 102.169408,79.399112 98.033408,78.4356 L92.313408,83.808088 Z M92.973408,88.648088 C94.078688,88.733888 96.237416,88.778944 98.033408,88.493648 L92.973408,88.648088 Z M99.793408,84.424088 C100.556104,85.304088 101.623808,87.257688 99.793408,88.032088 C99.302192,88.239856 98.692176,88.389016 98.033408,88.493648 L99.793408,84.424088 Z" id="Shape" stroke="#000000" stroke-width="0.704" fill="none" stroke-linecap="round"></path>
                    <path d="M100.541408,76.812088 C101.612104,77.897392 104.422208,80.358488 107.097408,81.520088" id="Path" stroke="#000000" stroke-width="0.704" fill="none" stroke-linecap="round"></path>
                    <path d="M207.32976,105.588 C200.50096,104.0392 180.01984,104.94296 170.63376,105.588 C158.44576,105.588 147.84176,111.792 145.15776,114.08 C143.01056,115.9104 131.95776,119.14 125.66576,120.592 C122.53296,116.7904 120.34176,99.94104 119.63776,91.992 C113.160608,88.331288 102.184104,91.728 97.505408,93.884 C98.326712,99.75096 100.347808,114.256 101.861408,125.344 C103.753408,139.204 107.009408,150.424 116.117408,151.656 C123.40416,152.6416 144.84976,146.66904 154.66176,143.56 L154.66176,151.656 L227.92,196.536 L225.50176,160.984 L246.44576,177.352 C250.09776,179.42 258.88896,180.9424 264.83776,170.488 C272.27376,157.42 250.80176,138.94 239.58176,124.156 C229.39664,110.736 215.86576,107.524 207.32976,105.588 Z" id="Path" stroke="none" fill="#3D98E7" fill-rule="nonzero"></path>
                    <path d="M252.824,147.872 C252.824,151.61464 255.85736,154.648 259.6,154.648 C260.78008,154.648 261.75776,154.03464 262.724,153.504 C261.844,150.82 257.42904,145.93512 255.2,142.71872 C253.74536,143.96128 252.824,145.80928 252.824,147.872 Z" id="Path" stroke="none" fill="#0E76D0" fill-rule="nonzero"></path>
                    <path d="M125.972,121.692 C126.368,122.89496 127.4064,127.236 128.216,131.46 M157.168,120.68 C156.156,125.75496 154.2112,136.8808 154.528,140.788 L157.168,120.68 Z M152.119,129.128 C152.119,131.9 152.119,137.7784 152.119,139.116 L152.119,129.128 Z M230.428,134.584 C238.49496,139.92296 255.0856,150.9344 256.916,152.272 L230.428,134.584 Z M251.504,143.604 C253.01496,145.17304 256.4056,148.84 257.884,150.952 L251.504,143.604 Z" id="Shape" stroke="#000000" stroke-width="1.056" fill="none" stroke-linecap="round"></path>
                    <path d="M152.19776,144.396 L227.788,195.656 C227.788,195.656 230.67088,240.008 230.384,241.196 C231.044,246.344 228.77096,249.01304 227.788,249.776 C206.43304,250.28904 175.1992,251.008 173.932,249.776 C169.60504,245.5696 136.532,206.216 136.532,206.216 L121.74976,226.06 L101.42,210.83688 C101.068,208.75392 100.2672,204.368 99.88,203.488 C99.396,202.388 98.56,199.22 97.064,198.516 C95.8672,197.9528 94.805304,203.00312 94.424,205.59824 L84.965408,198.516 L116.761832,151.656 C116.761832,151.656 117.84872,151.63136 119.16256,151.53456 C120.08128,151.45976 121.09856,151.34624 122.10176,151.18344 C123.74824,150.86664 126.23776,150.028 126.23776,150.028 C133.98176,136.8632 146.7708,140.788 152.19776,144.396 Z" id="Path" stroke="none" fill="#1B2033" fill-rule="nonzero"></path>
                    <line x1="126.016" y1="150.996" x2="93.191824" y2="200.408" id="Path" stroke="#FFFFFF" stroke-width="1.056" fill="none" opacity="0.2" stroke-linecap="round"></line>
                    <path d="M136.312,205.204 L146.432,191.256 C146.432,191.256 156.34168,210.11176 164.78,220.252 C172.96664,230.08952 188.804,242.384 188.804,242.384" id="Path" stroke="#FFFFFF" stroke-width="1.056" fill="none" opacity="0.2" stroke-linecap="round"></path>
                    <path d="M209.88,186.02 C207.636,192.64904 206.7912,208.548 221.364,219.108" id="Path" stroke="#FFFFFF" stroke-width="1.056" fill="none" opacity="0.2" stroke-linecap="round"></path>
                    <path d="M103.120864,230.68704 C105.075696,236.22664 109.753424,239.2028 111.848,239.99744 L107.368008,247.91128 C105.952264,251.42248 102.2714,258.36304 98.873544,258.03656 L52.096,206.18872 C52.503264,202.3484 64.25584,195.656 67.28128,195.656 C70.306632,195.656 76.008416,201.53352 79.20836,203.9192 C81.768368,205.82792 90.010624,209.60224 93.811872,211.25136 C94.16088,206.98424 95.336208,198.53096 97.244488,198.85656 C99.629904,199.264 101.72448,212.06624 101.72448,213.63704 C101.72448,215.20784 100.677192,223.76232 103.120864,230.68704 Z" id="Path" stroke="#000000" stroke-width="1.056" fill="none"></path>
                    <path d="M88.704,247.3604 C87.28764,250.8716 83.19784,258.45192 79.798576,258.12544 L33,206.27672 C33.4074488,202.4364 45.165296,195.744 48.192056,195.744 C50.183144,195.744 53.33284,198.2872 56.166616,200.7072" id="Path" stroke="#000000" stroke-width="1.056" fill="none"></path>
                    <path d="M57.552,200.408 C57.72668,202.5024 58.61196,207.18048 60.7552,209.13584 C66.583264,214.45192 74.442104,228.42632 81.546872,230.31568 C85.798416,231.24672 91.156472,243.81488 94.184992,246.02544 C97.213424,248.23688 101.872672,251.66976 105.6,251.43656" id="Path" stroke="#000000" stroke-width="1.056" fill="none"></path>
                    <path d="M38.896,200.496 C39.07068,202.5904 39.95596,207.26848 42.0992,209.22384 C47.927264,214.53992 55.786104,228.51432 62.890872,230.40368 C67.142416,231.33472 72.500472,243.90288 75.528992,246.11344 C78.557424,248.32488 83.216672,251.75776 86.944,251.52456" id="Path" stroke="#000000" stroke-width="1.056" fill="none"></path>
                    <path d="M61.864,198.296 C62.813432,201.28008 65.584288,208.00328 69.07208,211.0252 C73.431864,214.80392 76.628992,218.4656 78.489224,219.68616 C80.349368,220.90672 90.231504,215.32664 90.464,209.86272" id="Path" stroke="#000000" stroke-width="1.056" fill="none"></path>
                    <path d="M111.32,240.05112 C109.32152,239.05056 104.102328,236.50648 101.774024,237.10664 C99.445808,237.7068 94.440016,242.16752 92.752,244.496" id="Path" stroke="#000000" stroke-width="1.056" fill="none"></path>
                    <path d="M212.0492,120.724 L227.39728,133.3784 C221.19768,138.80888 218.63072,142.38344 215.57184,149.64168 L199.90432,138.9444 C198.22088,139.09136 194.53808,139.0148 193.27176,137.53728 C192.00544,136.05976 193.83584,134.14928 194.90856,133.3784 C192.95408,130.83344 195.16728,128.38792 196.38696,127.73496 C196.30424,124.50096 199.25752,123.68432 200.8776,123.42824 C202.4484,115.92536 209.0836,118.14296 212.0492,120.724 Z" id="Path" stroke="none" fill="#EEB594" fill-rule="nonzero"></path>
                    <path d="M201.60536,123.45992 C202.8224,123.19152 205.79064,123.04808 207.92728,124.62152" id="Path" stroke="#000000" stroke-width="0.704" fill="none" stroke-linecap="round"></path>
                    <path d="M197.08392,127.78512 C198.30096,127.51672 201.2692,127.37328 203.40584,128.94672" id="Path" stroke="#000000" stroke-width="0.704" fill="none" stroke-linecap="round"></path>
                    <path d="M195.96544,133.22 C197.18248,132.9516 200.15072,132.80816 202.28736,134.3816" id="Path" stroke="#000000" stroke-width="0.704" fill="none" stroke-linecap="round"></path>
                    <line x1="197.11208" y1="136.38976" x2="199.59544" y2="138.6188" id="Path" stroke="#000000" stroke-width="0.704" fill="none" stroke-linecap="round"></line>
                    <path d="M191.66136,71.813776 C185.57968,72.347672 182.87632,74.21556 179.11256,82.586208 C177.20296,86.83476 176.4576,93.16504 178.68928,95.04912 C180.08672,96.23008 183.26352,97.36792 186.494,98.13088 C186.494,98.13088 186.494,103.036 185.46176,104.18 C184.85544,104.85232 183.34976,105.236 183.34976,105.236 C183.34976,105.236 182.42752,109.548 186.494,112.012 C192.80976,115.84 204.16176,105.632 204.16176,105.632 C202.68952,105.19464 200.82392,104.32872 200.55992,103.3616 C200.29504,102.39536 201.86144,97.2676 202.6772,94.82472 C205.23096,92.08792 206.65832,88.29732 206.3028,84.247208 C205.6428,76.7284 199.08768,71.161784 191.66136,71.813776 Z" id="Path" stroke="none" fill="#EEB594" fill-rule="nonzero"></path>
                    <polygon id="Path" stroke="none" fill="#D7A284" fill-rule="nonzero" points="181.05912 87.791144 184.28784 84.153488 184.27464 88.84424"></polygon>
                    <polyline id="Path" stroke="#000000" stroke-width="0.55" fill="none" stroke-linecap="round" points="183.95784 84.448992 180.86288 87.730072 184.0784 88.705464"></polyline>
                    <path d="M184.14704,91.87584 L180.49416,90.53472 C180.58568,91.09704 181.06704,92.13456 181.69888,92.498 C182.74344,93.09728 183.56976,92.4056 184.14704,91.87584 Z" id="Path" stroke="#000000" stroke-width="0.55" fill="none"></path>
                    <path d="M179.80952,83.188744 C180.30672,83.498152 180.96056,83.346264 181.26944,82.849504 C181.5792,82.352744 181.42696,81.699256 180.93064,81.389848 C180.43344,81.08044 179.7796,81.232328 179.47072,81.729088 C179.16096,82.225848 179.3132,82.879336 179.80952,83.188744 Z" id="Path" stroke="none" fill="#000000" fill-rule="nonzero"></path>
                    <path d="M187.14784,86.081832 C187.64504,86.39124 188.29888,86.239352 188.60776,85.742592 C188.91752,85.245832 188.76528,84.592344 188.26896,84.282936 C187.77176,83.973528 187.1188,84.125416 186.80904,84.622176 C186.49928,85.118936 186.65152,85.772424 187.14784,86.081832 Z" id="Path" stroke="none" fill="#000000" fill-rule="nonzero"></path>
                    <path d="M188.00496,81.4700142 C188.9712,81.469048 190.20232,81.866984 190.828,82.55928" id="Path" stroke="#000000" stroke-width="0.55" fill="none" stroke-linecap="round"></path>
                    <path d="M182.45304,79.405712 C181.67072,78.838288 180.44048,78.438768 179.52792,78.632808" id="Path" stroke="#000000" stroke-width="0.55" fill="none" stroke-linecap="round"></path>
                    <path d="M187.44352,89.99968 C187.9548,90.31824 188.628,90.1616 188.94656,89.65032 C189.26512,89.13816 189.10848,88.4654 188.5972,88.146752 C188.08504,87.828192 187.41272,87.984568 187.09416,88.496112 C186.77472,89.00792 186.93136,89.68024 187.44352,89.99968 Z" id="Path" stroke="none" fill="#E0AA8B" fill-rule="nonzero"></path>
                    <path d="M178.58896,86.50344 C179.10112,86.822 179.77344,86.665624 180.09288,86.15408 C180.41144,85.642536 180.2548,84.969512 179.74352,84.650952 C179.23136,84.332304 178.55816,84.48868 178.2396,85.000224 C177.92104,85.511856 178.07768,86.184792 178.58896,86.50344 Z" id="Path" stroke="none" fill="#E0AA8B" fill-rule="nonzero"></path>
                    <path d="M193.91944,79.599488 C188.00496,80.118688 183.86896,77.839312 182.87016,75.959104 C182.19432,74.571432 181.60736,71.347288 184.66976,69.552088 C187.73216,67.756888 190.22872,69.566696 191.09376,70.696088 L192.98576,70.696088 C193.08872,66.618696 195.25616,58.692888 203.10576,59.608088 C210.95536,60.523288 212.12576,66.002696 211.72976,68.628 C213.54872,68.290696 217.18576,68.6632 217.18576,72.852 C217.18576,77.0408 214.7508,78.088 213.53376,78.088 C214.51672,79.378696 215.82176,82.5496 213.18176,84.908 C210.54176,87.2664 207.52424,85.890696 206.34504,84.908 C206.49904,88.708016 205.09192,92.23752 202.6772,94.82472 C196.1608,95.39672 195.84928,90.90872 196.5084,88.593088 C196.9088,87.395936 198.06776,84.587856 199.49688,82.933104 C201.28328,80.864576 198.48752,79.198384 193.91944,79.599488 Z" id="Path" stroke="none" fill="#724C2B" fill-rule="nonzero"></path>
                    <path d="M196.85776,91.95416 C198.10384,92.72152 199.9668,91.95944 201.01928,90.25136 C202.07176,88.543192 201.91512,86.536 200.66816,85.7682 C199.42208,85.0004 197.55912,85.762568 196.50664,87.470648 C195.45416,89.17864 195.61168,91.18592 196.85776,91.95416 Z" id="Path" stroke="none" fill="#E0AA8B" fill-rule="nonzero"></path>
                    <path d="M197.07776,88.86448 C197.53712,88.175528 198.74888,87.156488 199.54968,86.970192" id="Path" stroke="#000000" stroke-width="0.55" fill="none" stroke-linecap="round"></path>
                    <path d="M198.88176,87.368832 C199.16336,87.718896 199.49424,88.511864 199.45992,88.95688" id="Path" stroke="#000000" stroke-width="0.55" fill="none" stroke-linecap="round"></path>
                    <path d="M197.34,90.848 C194.10776,90.848 191.488,93.46776 191.488,96.7 C191.488,99.93224 194.10776,102.552 197.34,102.552 C200.57224,102.552 203.192,99.93224 203.192,96.7 C203.192,94.7112 202.20024,92.95472 200.684,91.89696" id="Path" stroke="#000000" stroke-width="0.704" fill="none" stroke-linecap="round"></path>
                    <path d="M127.556,29.644 C117.62696,30.406696 94.009872,29.204 92.224,49.004 C91.332912,58.884024 94.501968,67.443344 95.95696,73.248 M260.568,149.06 C273.724,125.872 262.856,112.716 251.944,112.716 C241.032,112.716 247.412,137.752 256.96,133.704 C266.508,129.656 275.088,104.576 247.412,89.176 C225.2712,76.856 212.98728,93.752 210.672,109.152 C210.24608,111.98384 209.682,115.10872 208.9736,118.436 M279.664,241.24 C270.424,244.716 249.4976,247.2152 239.712,229.404 C231.8404,215.0776 237.28848,195.52136 245.6784,177.22 M202.554,141.184 C193.82528,165.72456 178.45344,190.61448 154.836,190.376 C111.276,189.936 98.648,136.344 121.66,112.716 C144.672,89.088 154.836,120.68 149.028,133.704 C145.6532,141.27112 134.596,156.276 109.868,154.296 C85.14,152.316 81.532,133.836 81.532,127.764 C81.532,117.292 85.8,111.528 92.224,102.244 C94.249584,99.31624 95.688912,96.49848 96.693872,93.928" id="Shape" stroke="#000000" stroke-width="1.056" fill="none" stroke-linecap="round"></path>
                </g>
            </g>
            <g id="Group-2" mask="url(#mask-2)">
                <g transform="translate(287.000000, 47.500000) rotate(-2.000000) translate(-287.000000, -47.500000) translate(249.000000, 37.000000)">
                    <rect id="Rectangle" stroke="#000000" stroke-width="1" fill-opacity="0.2" fill="#FFFFFF" fill-rule="evenodd" x="2.27373675e-13" y="2.84217094e-14" width="76" height="21" rx="10.5"></rect>
                    <text id="BLOCKCHAIN" stroke="none" fill="none" font-family="Poppins-Medium, Poppins" font-size="8" font-weight="400" letter-spacing="0.8">
                        <tspan x="8.80369541" y="13.0174497" fill="#000000">BLOCKCHAIN</tspan>
                    </text>
                </g>
            </g>
            <circle id="Oval" fill="#FFFFFF" mask="url(#mask-2)" cx="400.5" cy="262.5" r="7.5"></circle>
            <circle id="Oval-Copy" fill="#FFFFFF" mask="url(#mask-2)" cx="370.5" cy="110.5" r="7.5"></circle>
            <circle id="Oval-Copy-2" fill="#FFFFFF" mask="url(#mask-2)" cx="319" cy="172" r="6"></circle>
            <circle id="Oval-Copy-3" fill="#FFFFFF" mask="url(#mask-2)" cx="257.5" cy="125.5" r="7.5"></circle>
            <circle id="Oval-Copy-5" fill="#FFFFFF" mask="url(#mask-2)" cx="207" cy="161" r="6"></circle>
            <circle id="Oval-Copy-6" fill="#FFFFFF" mask="url(#mask-2)" cx="213" cy="74" r="6"></circle>
            <circle id="Oval-Copy-4" fill="#FFFFFF" mask="url(#mask-2)" cx="272.5" cy="209.5" r="7.5"></circle>
        </g>
    </g>
</svg>