<?xml version="1.0" encoding="UTF-8"?>
<svg width="560px" height="268px" viewBox="0 0 560 268" version="1.1" xmlns="http://www.w3.org/2000/svg" xmlns:xlink="http://www.w3.org/1999/xlink">
    <!-- Generator: Sketch 63.1 (92452) - https://sketch.com -->
    <title>Rectangle Copy 4</title>
    <desc>Created with Sketch.</desc>
    <defs>
        <rect id="path-1" x="0" y="0" width="560" height="268"></rect>
        <circle id="path-3" cx="15.39" cy="15.39" r="15.39"></circle>
    </defs>
    <g id="Page-1" stroke="none" stroke-width="1" fill="none" fill-rule="evenodd">
        <g id="Rectangle-Copy-4">
            <g id="19_payment_processed">
                <mask id="mask-2" fill="white">
                    <use xlink:href="#path-1"></use>
                </mask>
                <use id="Mask" fill="#5366B5" xlink:href="#path-1"></use>
                <g mask="url(#mask-2)">
                    <g transform="translate(81.000000, 19.000000)">
                        <g id="background" stroke-width="1" fill="none">
                            <ellipse id="circle_1_" fill="#D5E0EA" opacity="0.2" cx="72.6317638" cy="73.2389152" rx="72.6317638" ry="73.2389152"></ellipse>
                            <path d="M274.124914,181.484139 C274.509566,181.625354 274.684408,182.084305 274.544535,182.472649 C273.32064,185.579395 271.53725,191.792888 273.845166,198.324116 C274.509566,200.336441 276.397861,205.455511 280.838851,207.467836 C281.048662,205.137776 281.573188,203.01954 282.272557,201.289647 C283.391547,198.571244 284.965126,196.841351 286.64361,196.311792 C288.042347,195.888145 289.825737,196.20588 291.399316,197.19439 C293.112769,198.253508 294.266727,199.842185 294.476538,201.430863 C295.001064,204.961256 291.0846,208.138611 288.077316,209.233033 C285.734431,210.115631 283.601357,209.939111 282.167652,209.621376 C282.132683,212.869338 282.727146,216.364428 284.440599,219.365262 C286.4338,222.895656 289.650895,225.543451 293.077801,227.167432 C294.021948,223.531127 296.120054,220.247861 298.952496,218.659184 L298.987465,218.62388 C300.805823,217.635369 304.932097,216.29382 307.554729,218.482664 C309.617866,220.212557 309.373087,223.213391 309.373087,223.319303 C309.058372,226.849697 305.631466,228.932629 304.897129,229.356276 L304.897129,229.356276 C302.20456,230.874346 298.148222,230.803738 294.126853,229.356276 C293.777169,231.756944 293.98698,234.192916 294.896159,236.240544 C299.581928,247.290676 312.625151,247.467196 312.765025,247.467196 C313.219614,247.431892 313.53433,247.784931 313.53433,248.208578 C313.53433,248.667529 313.184646,248.985265 312.765025,248.985265 C312.625151,248.949961 298.602812,248.808745 293.53239,236.840711 C292.483337,234.404739 292.308495,231.509816 292.763085,228.756109 C288.951526,227.06152 285.349778,224.131294 283.111799,220.177253 C281.188536,216.788075 280.524136,212.869338 280.629041,209.233033 C275.173966,207.185404 272.970955,201.042519 272.271587,199.030195 C269.788829,192.004712 271.642155,185.438179 273.005924,182.119609 C273.075861,181.94309 273.250703,181.801874 273.390577,181.731266 C273.670324,181.519443 273.950071,181.484139 274.124914,181.484139 L274.124914,181.484139 Z M287.796689,207.750196 C290.287892,206.83282 293.586104,204.186544 293.200143,201.681403 C292.989619,200.587609 292.077347,199.352681 290.744027,198.541156 C289.51597,197.835482 288.18265,197.517929 287.235291,197.835482 C285.972146,198.258886 284.744088,199.740801 283.831816,201.928389 C283.130069,203.657289 282.603758,205.809594 282.428322,208.103033 C283.656379,208.350018 285.586185,208.597004 287.796689,207.750196 L287.796689,207.750196 Z M304.443254,228.069695 L304.443254,228.069695 C304.967971,227.751996 307.801442,226.022304 308.04631,223.268916 C308.04631,223.268916 308.256197,220.939127 306.752009,219.703633 C304.967971,218.15044 301.679745,218.997636 299.895708,219.986031 L299.860727,220.021331 C297.342086,221.433325 295.488086,224.504411 294.648539,227.822596 C298.286576,229.23459 301.959594,229.375789 304.443254,228.069695 L304.443254,228.069695 Z" id="line_1_" fill="#D5E0EA"></path>
                        </g>
                        <path d="M378.4,163.863399 C371.340791,178.542266 364.355116,193.221133 357.295907,207.9 C346.339427,196.311421 335.382947,184.793076 324.5,173.204496 C330.750341,158.736331 336.927149,144.268165 343.17749,129.8 C354.942838,141.177878 366.634652,152.555755 378.4,163.863399 Z" id="rhomb" fill-opacity="0.05" fill="#000000" transform="translate(351.450000, 168.850000) rotate(64.000000) translate(-351.450000, -168.850000) "></path>
                        <g id="man" stroke-width="1" fill="none" transform="translate(114.371598, 27.234093)">
                            <g id="head" transform="translate(94.160799, 45.975056)">
                                <path d="M32.1403216,28.9283959 C31.6502663,31.7874972 30.565144,34.6465984 29.0599742,37.2586169 C28.8499505,37.6115923 28.6399268,37.9998653 28.3948992,38.3528408 C28.1498715,38.7411138 27.9048439,39.1293868 27.6248123,39.4823623 C27.6948202,39.5529574 27.799832,39.5882549 27.8698399,39.65885 L26.8897294,45.024077 C21.2890977,44.1416384 11.0679448,42.6591414 4.94225388,41.8120003 C2.42196961,37.8586751 1.58187485,32.2463653 2.42196961,26.8811383 C2.42196961,26.8105432 2.45697356,26.7399481 2.45697356,26.669353 C2.6319933,25.6810217 2.84201699,24.6926904 3.12204857,23.7396566 C3.36707621,22.857218 3.68211174,22.0100769 4.03215123,21.1982333 C4.17216702,20.9158529 4.31218281,20.5275799 4.5222065,20.1040094 C5.18728152,18.7627026 5.99237232,17.4919909 6.97248287,16.397767 L7.00748682,16.3624695 C8.16261711,15.1270553 12.1530672,11.2796228 17.7887029,11.9502762 C20.7640385,12.3032516 25.3845596,14.0681289 26.5396899,17.6331811 C28.0098557,22.2924572 22.6542517,27.4106014 24.8244965,29.9873223 C25.1745359,30.3755953 25.804607,30.869761 26.5746939,31.0462487 L26.5746939,31.0462487 C26.6447018,30.9756536 26.7147097,30.869761 26.7847176,30.7991659 C28.1498715,29.1754788 30.2151045,28.5401229 32.1403216,28.9283959 L32.1403216,28.9283959 Z" id="Shape" fill="#FCC6A7"></path>
                                <g id="eyes" transform="translate(9.423742, 18.518197)" fill="#000000">
                                    <ellipse id="Oval" cx="0.881081522" cy="0.869361958" rx="1" ry="1"></ellipse>
                                    <ellipse id="Oval" cx="7.85311792" cy="1.60348983" rx="1" ry="1"></ellipse>
                                </g>
                                <g id="hair_1_" transform="translate(0.907621, 0.000000)" fill="#000000">
                                    <path d="M30.8496217,40.5651337 C30.0724421,41.3471126 29.3659151,41.9158245 28.8006935,42.164636 C28.3767773,42.3423585 26.9990497,42.9466149 26.4338282,42.4134475 C25.8686066,41.88028 26.3631755,40.5295892 26.6811126,39.7120658 C26.716439,39.6409768 26.7517653,39.5698878 26.7517653,39.4987988 C27.9881875,40.3518667 29.4718941,40.7073117 30.8496217,40.5651337 L30.8496217,40.5651337 Z" id="Shape"></path>
                                    <path d="M35.8325656,14.3947046 C33.9105239,10.3374718 29.1578389,4.02230083 23.2169827,3.6342177 C19.4777379,3.38725571 17.2062341,5.57463337 13.8164514,3.91645998 C11.1954855,2.64636972 10.461615,0.282590637 7.70086417,0.0709089282 C7.45624067,0.0356286433 5.21968305,-0.105492496 4.0315118,1.23515833 C2.21430873,3.21085428 3.19280269,7.93841246 5.46430654,11.2547592 C4.59065121,11.8192438 1.93473903,13.6890989 0.67667536,17.2876879 C-0.965796649,22.0858067 1.09602992,26.1783197 1.48043826,26.8839254 C1.69011554,25.472714 2.10947009,23.4617378 3.05301784,21.2390799 C3.05301784,21.2037996 3.05301784,21.2037996 3.08796405,21.1685193 C3.22774891,20.886277 3.36753376,20.4981939 3.57721104,20.0748305 C4.06645802,19.0869825 4.76538228,17.7816119 5.77882245,16.6173625 C5.81376867,16.546802 5.88366109,16.4762414 5.98849973,16.3704005 L6.02344594,16.3351203 C7.17667097,15.1003103 11.1605392,11.2547592 16.7868795,11.9250846 C19.7573076,12.2778875 24.3702077,14.0419017 25.5234328,17.6052105 C26.9911737,22.2622081 21.6444031,27.3778494 23.8110683,29.9533102 C24.1605305,30.3413934 24.7895623,30.8353173 25.558379,31.0117188 L25.558379,31.0117188 C25.6282714,30.9411582 25.6981638,30.8353173 25.7680563,30.7647568 C27.1659048,29.177144 29.2277314,28.5773791 31.1497731,28.930182 C32.1981595,29.1065834 33.1766534,29.6005074 34.0153625,30.3413934 C34.7841792,31.0117188 35.3083724,31.8584456 35.6228883,32.775733 C37.8244997,27.4836903 38.8379399,20.7098756 35.8325656,14.3947046 L35.8325656,14.3947046 Z" id="hair"></path>
                                </g>
                                <g id="ear" transform="translate(25.206593, 28.812349)">
                                    <path d="M11.6046891,4.97087068 C11.5697204,4.65349877 11.4648141,4.30086331 11.3599079,3.98349139 C11.0451891,3.0666392 10.5206578,2.2203141 9.7513453,1.55030672 C7.37347018,-0.636033124 3.6667825,-0.459715394 1.4987199,1.97346928 C1.42878239,2.04399637 1.35884489,2.149787 1.28890739,2.2203141 L1.28890739,2.2203141 C-0.634373957,4.61823522 -0.389592695,8.17985336 1.91834492,10.2956661 L1.91834492,10.2956661 C2.05821992,10.4014568 2.16312618,10.5072474 2.30300119,10.613038 C2.33796994,10.6483016 2.40790744,10.6835651 2.44287619,10.7188287 C3.63181375,11.5651538 5.10050132,11.9177892 6.46428264,11.776735 C7.82806396,11.6356809 9.15687652,11.000937 10.1360016,9.87250356 C11.4298454,8.46196173 11.8844392,6.66352088 11.6046891,4.97087068 L11.6046891,4.97087068 Z" id="face" fill="#FCC6A7"></path>
                                    <path d="M2.49667524,6.24304441 L2.3575084,6.24304441 C2.25313328,6.24304441 2.18354986,6.13777473 2.18354986,6.06759494 C2.18354986,5.96232526 2.25313328,5.89214548 2.3575084,5.89214548 C2.98375917,5.92723537 3.54042651,5.64651623 3.8883436,5.12016783 C4.23626069,4.59381943 4.2710524,3.92711146 3.99271872,3.40076307 C3.95792702,3.36567317 3.95792702,3.29549339 3.99271872,3.2253136 C4.02751043,3.19022371 4.06230214,3.15513382 4.13188556,3.12004392 L9.21147506,2.80423488 C9.31585019,2.80423488 9.38543361,2.87441467 9.38543361,2.97968435 C9.38543361,3.08495403 9.31585019,3.15513382 9.21147506,3.15513382 L4.37542752,3.47094285 C4.58417778,4.06747104 4.51459436,4.7692689 4.16667727,5.33070719 C3.81876018,5.89214548 3.19250942,6.24304441 2.49667524,6.24304441 L2.49667524,6.24304441 Z" id="Shape" fill="#000000"></path>
                                </g>
                                <path d="M10.3113024,29.1050936 C10.276291,29.1050936 10.2412797,29.1050936 10.2062683,29.069881 L7.1952907,26.886697 C7.16027933,26.8514844 7.12526796,26.8162717 7.12526796,26.7458464 C7.12526796,26.7106338 7.12526796,26.6402085 7.16027933,26.6049959 L12.7270868,20.6188463 C12.7971095,20.548421 12.9021436,20.548421 12.9721663,20.6188463 C13.0421891,20.6892715 13.0421891,20.7949095 12.9721663,20.8653348 L7.54540437,26.7106338 L10.4163365,28.7529672 C10.4863592,28.8233925 10.5213706,28.9290304 10.4513479,28.9994557 C10.4163365,29.069881 10.3463138,29.1050936 10.3113024,29.1050936 L10.3113024,29.1050936 Z" id="Shape" fill="#000000"></path>
                                <path d="M11.9671839,34.5144569 L11.9671839,34.5144569 L6.95691486,34.0121589 C6.8510641,34.0121589 6.78049693,33.896244 6.78049693,33.8189674 C6.78049693,33.7030524 6.88634769,33.6257758 6.95691486,33.6257758 L11.9671839,34.1280738 C12.0730347,34.1280738 12.1436019,34.2439888 12.1436019,34.3212654 C12.1436019,34.4371803 12.0730347,34.5144569 11.9671839,34.5144569 L11.9671839,34.5144569 Z" id="mouth" fill="#000000"></path>
                                <path d="M13.1406955,43.8262895 C12.129973,43.8262895 11.1541031,43.719933 10.1085282,43.5426722 C10.0039707,43.5426722 9.93426566,43.4363157 9.96911816,43.3299592 C10.0039707,43.2236027 10.0736757,43.1526984 10.1782331,43.1881506 C12.7224655,43.6490287 15.2318454,43.50722 17.6366677,42.7981768 C18.7170952,42.4791073 19.7626701,42.0536814 20.7733926,41.521899 C20.8430976,41.4864468 20.9476551,41.521899 21.0173601,41.5928033 C21.0522126,41.6637076 21.0173601,41.7700641 20.9476551,41.8409684 C19.9369326,42.408203 18.8565052,42.8336289 17.7412252,43.1526984 C16.2425678,43.5781243 14.7090579,43.8262895 13.1406955,43.8262895 L13.1406955,43.8262895 Z" id="Shape" fill="#000000"></path>
                                <g id="brows" transform="translate(7.206807, 14.654366)" fill="#000000">
                                    <ellipse id="Oval" transform="translate(12.138678, 2.202384) rotate(-65.349308) translate(-12.138678, -2.202384) " cx="12.1386782" cy="2.20238363" rx="1" ry="2.66604334"></ellipse>
                                    <ellipse id="Oval" transform="translate(2.791552, 1.661447) rotate(-17.422044) translate(-2.791552, -1.661447) " cx="2.79155246" cy="1.6614473" rx="2.64324457" ry="1"></ellipse>
                                </g>
                                <g id="moustache" transform="translate(0.000000, 29.562838)" fill="#000000">
                                    <path d="M10.3174952,0.276383093 C11.3003913,0.276383093 12.8800456,0.382814072 14.6703205,1.05687694 C17.1275606,1.97927876 18.6019047,3.43383547 19.2688698,4.17885233 C16.179768,3.64669743 13.1257696,3.11454254 10.0366678,2.54691065 C10.1419781,1.80189379 10.2472884,1.05687694 10.3174952,0.276383093 L10.3174952,0.276383093 Z" id="Shape"></path>
                                    <path d="M9.50035729,0.217380689 C8.51877056,0.0404557396 6.94122045,-0.13646921 5.083217,0.181995699 C2.52408016,0.606615577 0.771246717,1.77432024 0,2.37586507 C3.12004354,2.41125006 6.24008707,2.48202004 9.36013061,2.51740503 C9.39518728,1.73893525 9.43024395,0.960465476 9.50035729,0.217380689 L9.50035729,0.217380689 Z" id="Shape"></path>
                                </g>
                            </g>
                            <g id="legs_1_" transform="translate(0.000000, 174.026945)">
                                <polygon id="Rectangle" fill="#000000" points="62.7284019 3.33896201 95.2264728 2.84702247 87.8783049 79.254279 38.7170367 69.338962"></polygon>
                                <polygon id="Rectangle" fill="#000000" transform="translate(118.803928, 39.794906) scale(-1, 1) translate(-118.803928, -39.794906) " points="105.488644 1.43553237 143.890819 1.74702247 136.542651 78.154279 93.7170367 69.5548716"></polygon>
                                <g id="pants_pattern" transform="translate(26.803756, 0.000000)" fill="#5168C7">
                                    <path d="M37.5249993,11.8305993 C36.896655,10.1705988 35.8494145,8.7578324 34.4530938,7.73357678 C34.3483697,8.08676837 34.2087376,8.43995997 34.1040136,8.79315156 C35.2210701,9.67613054 36.0588626,10.8416628 36.5475748,12.1837909 C37.2806432,14.1263446 37.1759191,16.2454942 36.3381267,18.1527288 C35.4654263,20.0599634 33.9643815,21.5080489 32.0095325,22.2144321 C31.1368321,22.5323045 30.2292236,22.7089003 29.3216152,22.7089003 C29.1819831,23.0620919 29.077259,23.4152835 28.972535,23.7684751 L29.3216152,23.7684751 C30.3688557,23.7684751 31.3811882,23.5918793 32.3935207,23.2033686 C34.5927258,22.3910279 36.3381267,20.7310274 37.2806432,18.5765587 C38.2580677,16.4574091 38.3627917,14.0203871 37.5249993,11.8305993 L37.5249993,11.8305993 Z" id="Shape"></path>
                                    <path d="M67.0169352,0.715111381 C66.9468888,0.503356177 66.8418191,0.25630844 66.7367495,0.044553237 L65.5459601,0.044553237 C65.7210762,0.362186042 65.8961923,0.715111381 66.0362851,1.10332925 C66.7717727,3.04441862 66.666703,5.16197065 65.8261458,7.06776748 C64.9855886,8.97356431 63.4445671,10.4205582 61.483267,11.1264089 C59.5569901,11.8675521 57.4555971,11.796967 55.5643434,10.9146537 C53.6730897,10.0323403 52.2721611,8.51476137 51.5366735,6.53837947 C50.801186,4.59729011 50.8712324,2.47973807 51.7468128,0.573941245 C51.8168593,0.397478576 51.9219289,0.221015906 52.0269986,0.044553237 L50.8362092,0.044553237 C50.801186,0.0798457709 50.801186,0.115138305 50.801186,0.150430839 C49.8205359,2.3032754 49.7504895,4.70316771 50.5560235,6.92659734 C51.3615575,9.15002698 53.0076486,10.9146537 55.1440648,11.8675521 C56.299831,12.3969401 57.5606668,12.6792804 58.7864793,12.6792804 C59.8371758,12.6792804 60.8528491,12.5028177 61.8685224,12.1145998 C64.074985,11.3028715 65.8261458,9.64412245 66.8067959,7.49127788 C67.7524227,5.30314078 67.8574924,2.90324848 67.0169352,0.715111381 L67.0169352,0.715111381 Z" id="Shape"></path>
                                    <path d="M90.8984655,0.044553237 C89.1811308,0.676816479 87.3236056,0.676816479 85.6062709,0.044553237 L83.2931262,0.044553237 C83.713698,0.325559123 84.1342698,0.571439272 84.5898892,0.782193686 C85.7464615,1.30907972 87.0081767,1.59008561 88.2348444,1.59008561 C89.2862737,1.59008561 90.3026555,1.41445693 91.3190372,1.02807384 C91.9849425,0.782193686 92.6158001,0.466062065 93.1765625,0.044553237 L90.8984655,0.044553237 L90.8984655,0.044553237 Z" id="Shape"></path>
                                    <path d="M29.6526786,42.4388878 C28.8475634,40.2150384 27.2023281,38.4500786 25.0670226,37.4970003 C24.8219875,37.3911027 24.6119575,37.2852051 24.3669224,37.2146067 C24.2619074,37.5322995 24.1218874,37.8852915 24.0168724,38.2029842 C24.2269024,38.2735826 24.4369325,38.344181 24.6119575,38.4500786 C26.5022279,39.3325585 27.9374332,40.8504239 28.6375334,42.8271789 C29.3726385,44.7686347 29.2676235,46.8865865 28.4275033,48.7927431 C27.5523781,50.6988997 26.0471628,52.1461667 24.0868824,52.8521506 C22.371637,53.4875361 20.5513766,53.4875361 18.9411463,52.922749 C18.8361312,53.275741 18.6961112,53.5934337 18.5910962,53.9111265 C19.5012264,54.2288193 20.4463616,54.3700161 21.3914968,54.3700161 C22.406642,54.3700161 23.4567922,54.1935201 24.4369325,53.8052289 C26.6422479,52.9933474 28.3924983,51.3342852 29.3376335,49.1810342 C30.3877838,47.0277833 30.4577938,44.6274379 29.6526786,42.4388878 L29.6526786,42.4388878 Z" id="Shape"></path>
                                    <path d="M60.5258666,30.7669326 C58.8440922,26.1768119 53.763732,23.8464429 49.2089263,25.5765653 C44.6541207,27.2713791 42.3416809,32.3911292 44.0584922,36.9459414 C45.389897,40.5121121 48.7184088,42.7012467 52.2921794,42.7012467 C53.3082514,42.7012467 54.3593605,42.5247035 55.3403955,42.1363087 C59.8952012,40.4414949 62.207641,35.3570534 60.5258666,30.7669326 L60.5258666,30.7669326 Z M55.0067953,41.1749217 C51.012798,42.659326 46.5633449,40.6094344 45.0568372,36.5803371 C43.5503294,32.5512398 45.6173982,28.062684 49.6113955,26.5429368 C50.487272,26.1895072 51.3981837,26.0481354 52.3090954,26.0481354 C55.4622511,26.0481354 58.4051965,27.9919981 59.5613536,31.1375214 C61.0328262,35.1666187 59.0007925,39.6905175 55.0067953,41.1749217 L55.0067953,41.1749217 Z" id="Shape"></path>
                                    <path d="M91.4218804,19.100323 C89.7404876,14.5084817 84.6612801,12.1772393 80.1425369,13.9080102 C77.9357088,14.7204129 76.184258,16.3805401 75.2034455,18.5351733 C74.222633,20.6898065 74.152575,23.0916926 74.9582424,25.3169696 C75.7639098,27.5422465 77.4102736,29.3083392 79.5470436,30.2973512 C80.7030012,30.827179 81.9290168,31.1097539 83.1900614,31.1097539 C84.2409319,31.1097539 85.2567734,30.9331446 86.2726149,30.5446042 C90.8263871,28.8138333 93.1383023,23.6921642 91.4218804,19.100323 L91.4218804,19.100323 Z M85.9209458,29.5693783 C83.9938953,30.3127868 81.8916585,30.2065856 79.9996453,29.3569758 C78.1076321,28.4719657 76.6711036,26.9497482 75.970358,24.9673254 C75.2345751,23.0203031 75.3396869,20.8962787 76.1805817,18.9846567 C77.0565137,17.0730348 78.5631168,15.6216181 80.5252045,14.91361 C81.4011365,14.5950063 82.3121058,14.4180043 83.2230751,14.4180043 C86.3764304,14.4180043 89.319562,16.3650266 90.4757923,19.5156628 C91.9473581,23.5513092 89.9151958,28.0471608 85.9209458,29.5693783 L85.9209458,29.5693783 Z" id="Shape"></path>
                                    <path d="M85.7111104,49.7906186 C84.0320575,45.1896338 78.9599188,42.8537491 74.4124841,44.5879665 C73.1182142,45.0834572 71.9988457,45.8266932 71.0893588,46.8176745 C71.1593193,47.277773 71.2292798,47.7732637 71.2992404,48.2333622 C72.173747,47.0300277 73.3630761,46.1098307 74.7972671,45.5789479 C75.6717737,45.2604181 76.5812607,45.0834572 77.4907476,45.0834572 C80.6039914,45.0834572 83.5773141,47.0300277 84.7316629,50.1799327 C86.2008341,54.2146425 84.1719786,58.7094508 80.1842282,60.231315 C78.2603135,60.974551 76.1614975,60.8683745 74.272563,60.0189619 C73.7828393,59.7712165 73.2931156,59.5234712 72.8733524,59.1695493 C72.9433129,59.6296478 73.0132734,60.0897463 73.083234,60.5852369 C73.3280958,60.7268057 73.5729577,60.8683745 73.8527998,60.974551 C75.0071487,61.5054339 76.2664383,61.7885714 77.4907476,61.7885714 C78.5401556,61.7885714 79.5545834,61.6116105 80.5690111,61.2222964 C85.0814655,59.5234712 87.3901632,54.3916035 85.7111104,49.7906186 L85.7111104,49.7906186 Z" id="Shape"></path>
                                    <path d="M113.023172,48.915755 C111.515382,49.1982784 109.937462,48.9863859 108.499801,48.315393 C106.606297,47.4325076 105.203701,45.9139448 104.467339,43.9362816 C102.959548,39.9103243 105.028377,35.4252666 109.025775,33.9067038 C109.586813,33.6948113 110.147851,33.5535497 110.743954,33.4829188 L110.603695,32.4234564 C109.937462,32.4940872 109.306294,32.6706643 108.675126,32.9178722 C104.11669,34.6130121 101.837472,39.7337472 103.520587,44.3247511 C104.853053,47.891608 108.184217,50.0811637 111.760836,50.0811637 C112.251745,50.0811637 112.742653,50.0458483 113.233562,49.9399021 L113.023172,48.915755 L113.023172,48.915755 Z" id="Shape"></path>
                                </g>
                            </g>
                            <g id="hands" transform="translate(44.327155, 0.000000)">
                                <path d="M171.793969,67.8376575 C171.408749,67.1665625 170.743369,66.8133546 170.042969,66.8133546 L170.603289,66.4601468 C171.548829,65.8950142 171.899029,64.588145 171.338709,63.599163 C170.778389,62.6101809 169.552689,62.2922938 168.60715,62.8574264 L168.32699,63.0340304 C168.782249,62.3629354 168.887309,61.4799157 168.46707,60.7381792 C167.90675,59.7491971 166.68105,59.3959892 165.73551,59.9964426 L154.073854,67.0959209 C153.093294,67.0252794 152.112735,66.9546378 151.132175,66.919317 C151.972655,65.8243726 152.848154,64.6941074 153.688634,63.5638422 C154.529114,62.7867848 154.599154,61.4799157 153.898754,60.6322168 C153.863734,60.596896 153.653614,60.3496505 153.408474,60.2083674 C152.567994,59.7845179 150.816995,60.9501039 150.816995,60.9501039 C149.416195,61.9037652 139.575578,70.2747918 137.404339,72.1821143 C137.159199,72.4293599 136.984099,72.5353222 136.984099,72.570643 C138.174779,74.2660408 151.937635,84.6150316 152.392894,84.9329187 L152.392894,84.9329187 C154.424054,83.9439366 170.778389,76.0320802 171.198629,74.0187953 C171.408749,72.9591717 171.023529,72.3940391 171.023529,72.3940391 C170.848429,72.1467936 170.498229,71.7935857 170.007949,71.6169817 C169.867869,71.581661 169.762809,71.5463402 169.692769,71.5110194 L171.058549,70.6633205 C171.653889,70.3101126 172.004088,69.6743384 172.074128,69.0032435 C172.074128,68.6500356 172.004088,68.2261861 171.793969,67.8376575 L171.793969,67.8376575 Z" id="Shape" fill="#FCC6A7"></path>
                                <path d="M148.02487,77.2438951 C147.954697,77.2438951 147.919611,77.2086292 147.884525,77.1733634 C147.849439,77.1028316 147.849439,76.9970339 147.954697,76.9265021 C148.375732,76.6796409 150.480905,75.2690054 150.831767,72.588798 C151.077371,70.6491742 150.270388,69.1680069 149.884439,68.6037527 C149.814267,68.5332209 149.849353,68.4274233 149.919525,68.3568915 C149.989698,68.2863597 150.094956,68.3216256 150.165129,68.3921574 C150.656336,69.132741 151.393146,70.6491742 151.147543,72.6240639 C150.796681,75.4453349 148.551163,76.961768 148.095042,77.2086292 C148.095042,77.2086292 148.059956,77.2438951 148.02487,77.2438951 L148.02487,77.2438951 Z" id="Shape" fill="#1F0000"></path>
                                <path d="M157.563246,69.2844034 C157.493199,69.2844034 157.458176,69.2492582 157.423152,69.1789677 C157.388129,69.1086772 157.388129,69.0032415 157.493199,68.9329511 L168.245384,62.8528253 C168.315431,62.8176801 168.420501,62.8176801 168.490548,62.9231158 C168.525571,62.9934063 168.525571,63.098842 168.420501,63.1691324 L157.668316,69.2492582 C157.633293,69.2844034 157.598269,69.2844034 157.563246,69.2844034 L157.563246,69.2844034 Z" id="Shape" fill="#1F0000"></path>
                                <path d="M159.280094,72.4913831 C159.209956,72.4913831 159.139819,72.4558734 159.139819,72.3848541 C159.10475,72.3138348 159.139819,72.2073059 159.209956,72.1362866 L169.97611,66.6322907 C170.046247,66.596781 170.151454,66.6322907 170.221592,66.70331 C170.256661,66.7743293 170.221592,66.8808583 170.151454,66.9518776 L159.350232,72.4558734 C159.315163,72.4913831 159.315163,72.4913831 159.280094,72.4913831 L159.280094,72.4913831 Z" id="Shape" fill="#1F0000"></path>
                                <path d="M160.234395,76.1620225 C160.164315,76.1620225 160.094236,76.1266115 160.059196,76.0557895 C160.024157,75.9849674 160.059196,75.8787344 160.129276,75.8079124 L169.554939,71.3461257 C169.625018,71.3107147 169.730137,71.3461257 169.800217,71.4169477 C169.835256,71.4877697 169.800217,71.5940028 169.730137,71.6648248 L160.304474,76.1620225 L160.234395,76.1620225 L160.234395,76.1620225 Z" id="Shape" fill="#1F0000"></path>
                                <path d="M27.4178851,12.715162 C27.3828794,12.715162 27.3828794,12.715162 27.4178851,12.715162 C26.5427418,12.0092785 25.2475297,12.115161 24.5124094,12.9975154 L20.3117216,18.150465 L19.1215267,19.6328203 C17.3012287,19.3857611 15.4809307,19.1034077 13.6606326,18.8563485 C13.6256269,16.4563446 13.6256269,14.0210465 13.5906212,11.6210426 L14.3607473,10.8092766 L19.086521,5.83279792 C19.2965554,5.58573869 19.4715841,5.33867947 19.5766013,5.0210319 C19.8216414,4.27985422 19.611607,3.4680882 19.0515153,2.9033814 C18.6664522,2.51514548 18.1413663,2.3386746 17.6162803,2.3386746 C17.0911943,2.3386746 16.5311026,2.55043965 16.1460396,2.97396975 L11.2802429,8.05633094 L12.8905065,2.72691053 C13.2405639,1.63279111 12.6104607,0.468083336 11.525283,0.150435762 C11.3152486,0.0798474119 11.14022,0.044553237 10.9301856,0.044553237 C10.090048,0.044553237 9.31992193,0.538671685 9.00487035,1.35043771 C8.79483596,1.13867266 8.51479011,0.962201784 8.19973852,0.856319259 C7.98970414,0.78573091 7.81467548,0.750436735 7.60464109,0.750436735 C6.7294978,0.750436735 5.88936025,1.31514353 5.64432013,2.19749791 L4.59414818,5.62103287 L4.59414818,5.44456199 C4.66415965,4.3151484 3.78901636,3.3269115 2.63382722,3.25632315 L2.52881003,3.25632315 C1.44363235,3.25632315 0.533483333,4.13867752 0.463471871,5.23279695 L0.0434030929,13.315163 C-0.096619833,13.8445756 1.26860369,22.7740019 1.79368967,26.7975378 C1.79368967,26.7975378 1.79368967,26.7975378 1.79368967,26.7622436 L1.79368967,26.7622436 C8.09472133,27.8916572 14.395753,29.0210708 20.6967847,30.1504844 L20.6967847,30.2210728 L20.6967847,30.2210728 C21.7119509,27.5387155 22.9371515,24.6798873 24.4073922,21.6798824 C25.4925699,19.4916436 26.5777475,17.4445815 27.6629252,15.5739902 C28.3980456,14.7622242 28.2930284,13.4563397 27.4178851,12.715162 L27.4178851,12.715162 Z" id="Shape" fill="#FCC6A7"></path>
                                <path d="M9.68731058,13.7997913 L9.65220908,13.7997913 C9.54690457,13.7644715 9.51180306,13.6585119 9.54690457,13.5878722 L11.1966753,8.00733454 C11.2317768,7.90137496 11.3370813,7.8660551 11.4072843,7.90137496 C11.5125888,7.93669482 11.5476903,8.0426544 11.5125888,8.11329411 L9.86281811,13.6938318 C9.8277166,13.7644715 9.75751359,13.7997913 9.68731058,13.7997913 L9.68731058,13.7997913 Z" id="Shape" fill="#1F0000"></path>
                                <path d="M6.22468911,13.7997913 L6.18929595,13.7997913 C6.08311646,13.7644988 6.0477233,13.6939137 6.0477233,13.5880361 L8.94996253,1.30623434 C8.9853557,1.20035674 9.05614202,1.16506421 9.1623215,1.16506421 C9.26850099,1.20035674 9.30389415,1.27094181 9.30389415,1.37681941 L6.40165492,13.6586212 C6.36626176,13.7292063 6.29547543,13.7997913 6.22468911,13.7997913 L6.22468911,13.7997913 Z" id="Shape" fill="#1F0000"></path>
                                <path d="M3.00459811,13.7225147 L2.96965056,13.7225147 C2.8648079,13.6872714 2.82986035,13.6167848 2.82986035,13.5110548 L4.47239524,5.44033654 C4.50734279,5.33460661 4.57723789,5.2993633 4.68208055,5.2993633 C4.7869232,5.33460661 4.82187075,5.40509323 4.82187075,5.51082316 L3.17933586,13.5815415 C3.14438831,13.6872714 3.07449321,13.7225147 3.00459811,13.7225147 L3.00459811,13.7225147 Z" id="Shape" fill="#1F0000"></path>
                            </g>
                            <g id="tshirt" transform="translate(43.237842, 26.814987)">
                                <path d="M77.7532102,64.1794504 C72.1564342,63.2974072 61.9423181,61.8155746 55.8208444,60.9688131 C54.1418116,60.721841 52.7426176,60.5454324 51.8681213,60.4748689 C51.5533027,63.5090976 51.2734639,66.5433262 50.9586452,69.5775549 C48.2651968,96.7444857 45.5717483,123.876135 42.8782999,151.043066 C51.2035042,150.866657 59.5636883,150.654967 67.8888926,150.478558 C69.2880866,140.670238 70.7222604,130.861917 72.1564342,121.088878 C74.535064,104.894565 76.9836535,88.7355334 79.5022027,72.5765018 L79.5022027,72.5765018 C79.9219609,69.9303721 80.3067393,67.2842425 80.7264975,64.6733946 C80.0269005,64.5322677 79.0124848,64.355859 77.7532102,64.1794504 L77.7532102,64.1794504 Z" id="Shape" fill="#FFB800"></path>
                                <path d="M53.3614528,70.4049144 L53.3614528,70.4049144 C53.2544549,70.4049144 53.1831229,70.2986942 53.1831229,70.2278807 L53.8607763,60.8450942 C53.8607763,60.7388739 53.9677742,60.6680605 54.0391062,60.6680605 C54.1461041,60.6680605 54.217436,60.7742807 54.217436,60.8450942 L53.5397826,70.2278807 C53.5397826,70.2986942 53.4327847,70.4049144 53.3614528,70.4049144 L53.3614528,70.4049144 Z" id="Shape" fill="#1F0D60"></path>
                                <path d="M56.464392,70.7140209 C56.4287261,70.7140209 56.4287261,70.7140209 56.464392,70.7140209 C56.3573941,70.7140209 56.2860622,70.6078006 56.2860622,70.5369872 L56.9637156,61.1542006 C56.9637156,61.0479804 57.0707135,60.9771669 57.1420454,60.9771669 C57.2490433,60.9771669 57.3203753,61.0833872 57.3203753,61.1542006 L56.6427219,70.5369872 C56.6070559,70.6432074 56.535724,70.7140209 56.464392,70.7140209 L56.464392,70.7140209 Z" id="Shape" fill="#1F0D60"></path>
                                <path d="M59.8351976,70.984489 C59.7995895,70.984489 59.7995895,70.984489 59.8351976,70.984489 C59.7283731,70.984489 59.6571567,70.8788651 59.6571567,70.7732411 L60.9390515,61.5135406 C60.9390515,61.4079167 61.045876,61.3375007 61.1527006,61.3727087 C61.2595251,61.3727087 61.3307415,61.4783326 61.2951333,61.5839566 L60.0132386,70.8436571 C59.9776304,70.9140731 59.906414,70.984489 59.8351976,70.984489 L59.8351976,70.984489 Z" id="Shape" fill="#1F0D60"></path>
                                <path d="M64.0110468,71.8345318 L64.0110468,71.8345318 C63.9040489,71.8345318 63.832717,71.7283116 63.832717,71.6574981 L64.5103704,62.2747116 C64.5103704,62.1684914 64.6173683,62.0976779 64.6887002,62.0976779 C64.7956981,62.0976779 64.8670301,62.2038981 64.8670301,62.2747116 L64.1893767,71.6574981 C64.1893767,71.7637184 64.1180447,71.8345318 64.0110468,71.8345318 L64.0110468,71.8345318 Z" id="Shape" fill="#1F0D60"></path>
                                <path d="M66.9617823,72.2595532 L66.9617823,72.2595532 C66.8182962,72.2595532 66.7824247,72.1535413 66.7824247,72.0475294 L68.253157,62.7891557 C68.253157,62.6831438 68.3607716,62.6124692 68.4683862,62.6478065 C68.5760007,62.6478065 68.6477438,62.7538184 68.6118723,62.8598303 L67.1411399,72.118204 C67.1411399,72.1888786 67.0693968,72.2595532 66.9617823,72.2595532 L66.9617823,72.2595532 Z" id="Shape" fill="#1F0D60"></path>
                                <path d="M70.1755949,72.7618513 L70.1755949,72.7618513 C70.0353491,72.7265261 70.0002876,72.6558759 70.0002876,72.5499004 L71.7182992,63.3300402 C71.7533607,63.2240648 71.8234836,63.1534145 71.928668,63.1887397 C72.0338524,63.2240648 72.0689138,63.2947151 72.0689138,63.4006905 L70.3509022,72.6205507 C70.3509022,72.691201 70.2807793,72.7618513 70.1755949,72.7618513 L70.1755949,72.7618513 Z" id="Shape" fill="#1F0D60"></path>
                                <path d="M73.1628708,73.0709577 L73.1628708,73.0709577 C73.0232167,73.0358056 72.9883032,72.9655013 72.9883032,72.8600449 L75.3973362,63.8610955 C75.4322498,63.755639 75.5020768,63.7204869 75.6068174,63.7204869 C75.7115579,63.755639 75.7464715,63.8259433 75.7464715,63.9313998 L73.3374384,72.9303491 C73.3374384,73.0358056 73.2676114,73.0709577 73.1628708,73.0709577 L73.1628708,73.0709577 Z" id="Shape" fill="#1F0D60"></path>
                                <path d="M76.5745113,73.6118941 L76.5745113,73.6118941 C76.4330668,73.5766903 76.3977056,73.5062827 76.3977056,73.4006713 L78.3425679,64.2476852 C78.377929,64.1420738 78.4486513,64.10687 78.5547347,64.10687 C78.660818,64.1420738 78.6961792,64.2124814 78.6961792,64.3180927 L76.751317,73.4710789 C76.7159558,73.5414865 76.6452336,73.6118941 76.5745113,73.6118941 L76.5745113,73.6118941 Z" id="Shape" fill="#1F0D60"></path>
                                <path d="M21.8855749,3.39023453 L21.8855749,3.46074119 C21.6755864,5.36442096 21.4655978,7.26810074 21.2556093,9.17178051 C20.9756246,11.6395136 20.7306379,14.0719933 20.4856513,16.504473 L0.0117684309,11.4985002 C0.956716871,6.63354081 2.11165385,2.7556746 3.0216042,0.0411682569 C3.0216042,0.0411682569 3.0216042,0.0411682569 3.0216042,0.00591492777 L3.0216042,0.00591492777 C9.28626238,1.13402146 15.5859187,2.26212799 21.8855749,3.39023453 L21.8855749,3.39023453 Z" id="Shape" fill="#2F2D2A"></path>
                                <path d="M153.588109,58.1088151 C153.55308,59.9449308 153.518051,62.1341455 153.342908,64.5705297 C147.633244,62.3106951 139.716776,59.1328027 135.583399,57.5085466 C136.634258,52.8123278 137.509973,48.7869974 138.175517,45.7150348 C139.36649,47.4099107 153.097708,57.7910259 153.588109,58.1088151 C153.55308,58.1088151 153.588109,58.1088151 153.588109,58.1088151 L153.588109,58.1088151 Z" id="Shape" fill="#2F2D2A"></path>
                            </g>
                            <g id="cardigan" transform="translate(41.568987, 38.097373)">
                                <path d="M52.6684282,58.2764091 C49.9735031,85.4615295 47.278578,112.611345 44.583653,139.796465 L43.7786753,147.952001 L1.77984283,147.952001 C10.3896035,125.497798 18.9993642,103.043594 27.6091248,80.5893911 C21.7292883,75.0817563 9.12963851,61.7363335 3.17980391,40.27068 C-1.65006183,22.8298366 0.134888553,8.00158908 1.63984672,0.199106474 L22.1142776,5.21246634 C21.9392824,13.1914757 23.0242523,22.9357526 27.3291326,32.8565563 C30.1990528,39.458657 36.6038748,53.0512172 49.3785197,57.5703021 C50.0785002,57.7821342 51.16347,58.0292717 52.6684282,58.2764091 L52.6684282,58.2764091 Z" id="Shape" fill="#343C5F"></path>
                                <path d="M154.912193,53.2770546 C154.667337,56.8775128 154.247583,61.0780473 153.443056,65.7021651 C151.589145,76.5741367 150.6447,82.0101225 147.181734,86.2459556 C140.780494,94.0469483 130.076782,95.0353093 119.268132,96.058969 C109.85866,96.9414342 102.093222,95.9530732 97.0561806,95.0000107 C95.8668792,116.991044 94.6775779,138.982078 93.4882765,160.973111 C84.9882699,157.690341 76.4532839,154.372271 67.9532772,151.089501 C68.5129484,147.136056 69.0726197,143.182612 69.6322909,139.193869 C71.0314689,129.380856 72.4656264,119.567843 73.8997839,109.790128 C76.2783866,93.5880663 78.7269482,77.4213033 81.2454687,61.2545403 L81.2454687,61.2545403 C84.3236604,61.5369292 87.0520575,61.9958111 89.3956808,62.5252902 C91.2845711,62.9488736 92.823667,63.3724569 93.90803,63.6901443 C94.607619,63.901936 95.1323107,64.0784291 95.2722286,64.1137277 C115.280475,70.6439704 125.284598,73.926741 130.006824,70.7145676 C131.47596,69.7262065 132.14057,68.5260538 136.478022,49.358909 C136.722878,48.2999507 136.967734,47.2409925 137.177611,46.2173328 C141.305186,47.8763674 149.245522,51.0179436 154.912193,53.2770546 L154.912193,53.2770546 Z" id="Shape" fill="#343C5F"></path>
                                <path d="M43.7640739,148.106554 L43.7640739,148.106554 C43.6593042,148.106554 43.5894577,148.000655 43.5894577,147.930055 L52.4599582,58.2683142 C52.4599582,58.1624145 52.5647279,58.0918147 52.6345744,58.1271146 C52.7393441,58.1271146 52.8091906,58.2330143 52.7742673,58.3036141 L43.9037668,147.965355 C43.93869,148.035955 43.8688436,148.106554 43.7640739,148.106554 L43.7640739,148.106554 Z" id="Shape" fill="#1F0D60"></path>
                                <path d="M67.9364624,151.274896 L67.9364624,151.274896 C67.8316276,151.274896 67.7617378,151.169018 67.7617378,151.06314 L81.040808,61.243433 C81.040808,61.1375551 81.1456428,61.0669699 81.2504775,61.1022625 C81.3553123,61.1022625 81.4252021,61.2081404 81.3902572,61.3140182 L68.111187,151.133725 C68.111187,151.20431 68.0412971,151.274896 67.9364624,151.274896 L67.9364624,151.274896 Z" id="Shape" fill="#1F0D60"></path>
                                <path d="M22.1534557,5.41527822 L22.1184314,5.41527822 L1.62918156,0.361794092 C1.52410848,0.326206176 1.48908412,0.255030343 1.48908412,0.148266593 C1.48908412,0.0415028442 1.5941572,0.00591492777 1.69923027,0.00591492777 L22.1884801,5.05939906 C22.2935532,5.09498698 22.3285775,5.16616281 22.3285775,5.27292656 C22.3285775,5.37969031 22.2585288,5.41527822 22.1534557,5.41527822 L22.1534557,5.41527822 Z" id="Shape" fill="#1F0D60"></path>
                                <path d="M154.912341,53.4813349 L154.84236,53.4813349 L137.102192,46.4318619 C136.997221,46.3966146 136.96223,46.2908725 136.997221,46.2203777 C137.032211,46.1146356 137.137182,46.0793883 137.207163,46.1146356 L154.947331,53.1641087 C155.052303,53.199356 155.087293,53.3050981 155.052303,53.3755928 C155.052303,53.4460876 154.982322,53.4813349 154.912341,53.4813349 L154.912341,53.4813349 Z" id="Shape" fill="#1F0D60"></path>
                            </g>
                        </g>
                        <g id="scheme" stroke-width="1" fill="none" transform="translate(86.948071, 23.370262)">
                            <path d="M80.4845529,159.736685 L12.6253256,159.736685 C12.3453494,159.736685 12.1003703,159.489519 12.1003703,159.207042 L12.1003703,15.1794771 C12.1003703,14.8970008 12.3453494,14.6498341 12.6253256,14.6498341 L190.830166,14.6498341 C191.110142,14.6498341 191.355121,14.8970008 191.355121,15.1794771 L191.355121,41.6616232 L224.567296,41.6616232 C224.847272,41.6616232 225.092251,41.9087899 225.092251,42.1912661 C225.092251,42.4737423 224.847272,42.720909 224.567296,42.720909 L190.830166,42.720909 C190.55019,42.720909 190.305211,42.4737423 190.305211,42.1912661 L190.305211,15.70912 L13.150281,15.70912 L13.150281,158.6774 L80.4845529,158.6774 C80.7645291,158.6774 81.0095083,158.924566 81.0095083,159.207042 C81.0095083,159.489519 80.7995261,159.736685 80.4845529,159.736685 L80.4845529,159.736685 Z" id="line" fill="#FFB800"></path>
                            <path d="M99.2125173,15.398208 C99.2125173,15.7860259 99.1775716,16.1738438 99.10768,16.5616618 C98.234036,15.8565383 96.9410427,15.997563 96.2421274,16.8437112 L92.0486358,21.9911129 C88.6938425,21.6738073 86.0729103,18.8533132 86.0729103,15.3629518 C86.0729103,15.1161586 86.0729103,14.8693653 86.107856,14.6225721 L90.8255341,9.65145126 C91.0352087,9.40465803 91.2099375,9.1578648 91.3147748,8.84055921 C91.734124,8.73479069 92.1884189,8.69953451 92.6427138,8.69953451 C96.2770732,8.77004686 99.2125173,11.7315657 99.2125173,15.398208 L99.2125173,15.398208 Z" id="circle" fill="#290060"></path>
                            <path d="M93.9137359,12.9297378 L94.5519291,12.9297378 L93.223648,14.3716806 C92.7404355,14.8935347 91.9645268,14.8935347 91.4813143,14.3716806 L90.1519291,12.9297378 L90.7912264,12.9297378 L91.8004109,14.0245687 C92.1062253,14.3554349 92.5978537,14.3554349 92.9036681,14.0245687 L93.9137359,12.9297378 Z M90.7888291,17.3297378 L90.1519291,17.3297378 L91.4840291,15.5971846 C91.9654295,14.9739222 92.7384286,14.9739222 93.2198291,15.5971846 L94.5519291,17.3294487 L93.9150291,17.3294487 L92.9019291,16.0105921 C92.5972615,15.6154309 92.1074767,15.6154309 91.8028091,16.0105921 L90.7886091,17.3297378 L90.7888291,17.3297378 Z" id="Shape" fill="#FFFFFF" fill-rule="nonzero"></path>
                            <path d="M3.81113884,29.5255832 C2.5518873,29.5255832 1.29263576,29.3488187 0.0333842154,29.0306427 L1.85230311,21.9954163 C3.81113884,22.5257098 5.87491221,22.2075337 7.62387268,21.1822997 C9.40781237,20.1217128 10.6670639,18.4601267 11.1917521,16.4803645 C11.7164402,14.5006023 11.4016273,12.4147815 10.3872302,10.6471367 C9.33785395,8.84413896 7.6938311,7.5714347 5.73499537,7.04114126 L7.55391426,0.00591492777 C11.3666481,1.03114892 14.5847354,3.50585165 16.5785503,6.97043547 C18.5723653,10.4350193 19.1320326,14.5006023 18.1176355,18.354068 C17.1032385,22.2075337 14.6546938,25.4600001 11.2267313,27.4751152 C8.98806185,28.8185253 6.39960035,29.5255832 3.81113884,29.5255832 L3.81113884,29.5255832 Z" id="semicircle" fill="#FFB800"></path>
                            <path d="M17.1817877,99.5381996 C8.62447546,98.2307755 2.59227178,90.5275744 3.78468414,82.5063511 C5.01216744,74.4497921 13.0434154,68.9020739 21.6007276,70.2094979 C20.1277476,79.9621746 18.6547676,89.7501871 17.1817877,99.5381996 L17.1817877,99.5381996 Z" id="semicircle_1_" fill="#4E06AA"></path>
                            <path d="M75.3535039,148.877683 C75.4585245,147.605362 75.7035724,146.333041 76.1236546,145.131404 L82.9499896,147.499335 C82.2848595,149.443159 82.4248869,151.528351 83.3350649,153.401491 C84.2452429,155.27463 85.7855442,156.652978 87.7109207,157.32448 C89.6362973,157.995983 91.7017012,157.854614 93.5570641,156.935716 C95.412427,156.016817 96.777694,154.461758 97.4428241,152.517934 L104.269159,154.885865 C102.973906,158.667486 100.313385,161.706919 96.7426871,163.474031 C93.1719888,165.241144 89.1462014,165.523882 85.4004689,164.216219 C81.6547363,162.908556 78.6441475,160.222545 76.8938052,156.617635 C75.6685656,154.143678 75.1434629,151.493009 75.3535039,148.877683 L75.3535039,148.877683 Z" id="semicircle_2_" fill="#ADCA8E"></path>
                        </g>
                    </g>
                </g>
            </g>
            <g id="btc" transform="translate(189.500000, 192.500000) rotate(9.000000) translate(-189.500000, -192.500000) translate(174.000000, 177.000000)">
                <path d="M15.7660965,30.6155649 C24.0503589,30.6155649 30.7660965,23.8998274 30.7660965,15.6155649 C30.7660965,7.3313025 24.0503589,0.615564929 15.7660965,0.615564929 C7.48183409,0.615564929 0.766096513,7.3313025 0.766096513,15.6155649 C0.766096513,23.8998274 7.48183409,30.6155649 15.7660965,30.6155649 Z" id="Path" stroke="#FFFFFF" stroke-width="0.756" fill="#FFFFFF" stroke-linecap="round" stroke-linejoin="round"></path>
                <path d="M18.9581059,15.3255656 C19.7407574,14.9253493 20.2388264,14.2138222 20.1231926,13.0309544 C19.9719684,11.4122798 18.642618,10.869758 16.8816662,10.7185903 L16.8816662,8.47735067 L15.512012,8.47735067 L15.512012,10.6563281 C15.1562484,10.6563281 14.7915944,10.6652187 14.4269685,10.6741093 L14.4269685,8.47735067 L13.0573142,8.47735067 L13.0573142,10.7185903 C12.5537416,10.733803 11.9672469,10.7263801 10.3091433,10.7185903 L10.3091433,12.1771502 C11.3905177,12.1580143 11.9579048,12.0885268 12.0879045,12.7819058 L12.0879045,18.9186219 C12.0053493,19.4687641 11.5650831,19.3895393 10.5848354,19.3722098 L10.3091433,20.999775 C12.8064593,20.999775 13.0573425,21.0086655 13.0573425,21.0086655 L13.0573425,22.9280387 L14.4269967,22.9280387 L14.4269967,21.0353372 C14.8005131,21.0442278 15.1651672,21.0442278 15.5120402,21.0442278 L15.5120402,22.9280387 L16.8816945,22.9280387 L16.8816945,21.0086655 C19.1762774,20.8841413 20.7101954,20.3060573 20.9147629,18.1448609 C21.0748212,16.410609 20.2565793,15.6368199 18.9581059,15.3255656 L18.9581059,15.3255656 Z M14.4536684,12.2749745 C15.2274294,12.2749745 17.6465366,12.034873 17.6465366,13.6446288 C17.6465366,15.1832602 15.2274576,15.0053643 14.4536684,15.0053643 L14.4536684,12.2749745 L14.4536684,12.2749745 Z M14.4536684,19.3811004 L14.4536684,16.3750186 C15.3786253,16.3750186 18.2110449,16.1171077 18.2110449,17.8780877 C18.2110449,19.5767774 15.3786253,19.3811004 14.4536684,19.3811004 Z" id="Shape" fill="#000000" fill-rule="nonzero"></path>
            </g>
            <g id="eth" transform="translate(419.500000, 87.500000) rotate(-8.000000) translate(-419.500000, -87.500000) translate(404.000000, 72.000000)">
                <g id="Mask" fill="#627EEA" fill-rule="nonzero">
                    <circle id="path-1" cx="15.39" cy="15.39" r="15.39"></circle>
                </g>
                <g id="Clipped">
                    <mask id="mask-4" fill="white">
                        <use xlink:href="#path-3"></use>
                    </mask>
                    <g id="path-1"></g>
                    <g id="Group" mask="url(#mask-4)">
                        <g transform="translate(1.620000, 1.620000)">
                            <circle id="Oval" fill="#627EEA" fill-rule="nonzero" cx="13.365" cy="13.365" r="13.365"></circle>
                            <g id="Group" stroke-width="1" fill="none" fill-rule="evenodd" transform="translate(8.100000, 3.240000)">
                                <polygon id="Path" fill-opacity="0.602" fill="#FFFFFF" fill-rule="nonzero" points="6.07338 0 6.07338 7.4840625 12.14595 10.310625"></polygon>
                                <polygon id="Path" fill="#FFFFFF" fill-rule="nonzero" points="6.07338 0 0 10.310625 6.07338 7.4840625"></polygon>
                                <polygon id="Path" fill-opacity="0.602" fill="#FFFFFF" fill-rule="nonzero" points="6.07338 15.1605 6.07338 20.2457813 12.15 11.4885"></polygon>
                                <polygon id="Path" fill="#FFFFFF" fill-rule="nonzero" points="6.07338 20.2457813 6.07338 15.1596563 0 11.4885"></polygon>
                                <polygon id="Path" fill-opacity="0.2" fill="#FFFFFF" fill-rule="nonzero" points="6.07338 13.9834688 12.14595 10.310625 6.07338 7.48575"></polygon>
                                <polygon id="Path" fill-opacity="0.602" fill="#FFFFFF" fill-rule="nonzero" points="0 10.310625 6.07338 13.9834688 6.07338 7.48575"></polygon>
                            </g>
                        </g>
                    </g>
                </g>
            </g>
        </g>
    </g>
</svg>